<!-- Generated by IcoMoon.io -->
<svg version="1.1" xmlns="http://www.w3.org/2000/svg" width="128" height="32" viewBox="0 0 128 32">
<title>logo-omega-r</title>
<path fill="#fff" d="M14.893 3.25c-0.034-0.12-0.069-0.224-0.138-0.292-0.052-0.069-0.12-0.103-0.206-0.103s-0.155 0.034-0.206 0.103c-0.052 0.069-0.103 0.172-0.138 0.292-0.034 0.138-0.052 0.275-0.052 0.447s0.017 0.31 0.052 0.447c0.034 0.12 0.069 0.224 0.138 0.292 0.052 0.069 0.12 0.103 0.189 0.103 0.086 0 0.155-0.034 0.206-0.103s0.103-0.172 0.138-0.292c0.034-0.138 0.052-0.275 0.052-0.447 0.017-0.172 0-0.327-0.034-0.447zM14.893 3.25c-0.034-0.12-0.069-0.224-0.138-0.292-0.052-0.069-0.12-0.103-0.206-0.103s-0.155 0.034-0.206 0.103c-0.052 0.069-0.103 0.172-0.138 0.292-0.034 0.138-0.052 0.275-0.052 0.447s0.017 0.31 0.052 0.447c0.034 0.12 0.069 0.224 0.138 0.292 0.052 0.069 0.12 0.103 0.189 0.103 0.086 0 0.155-0.034 0.206-0.103s0.103-0.172 0.138-0.292c0.034-0.138 0.052-0.275 0.052-0.447 0.017-0.172 0-0.327-0.034-0.447zM14.893 3.25c-0.034-0.12-0.069-0.224-0.138-0.292-0.052-0.069-0.12-0.103-0.206-0.103s-0.155 0.034-0.206 0.103c-0.052 0.069-0.103 0.172-0.138 0.292-0.034 0.138-0.052 0.275-0.052 0.447s0.017 0.31 0.052 0.447c0.034 0.12 0.069 0.224 0.138 0.292 0.052 0.069 0.12 0.103 0.189 0.103 0.086 0 0.155-0.034 0.206-0.103s0.103-0.172 0.138-0.292c0.034-0.138 0.052-0.275 0.052-0.447 0.017-0.172 0-0.327-0.034-0.447zM16.905 3.25c-0.034-0.12-0.069-0.224-0.138-0.292-0.052-0.069-0.12-0.103-0.206-0.103s-0.155 0.034-0.206 0.103c-0.052 0.069-0.103 0.172-0.138 0.292-0.034 0.138-0.052 0.275-0.052 0.447s0.017 0.31 0.052 0.447c0.034 0.12 0.069 0.224 0.138 0.292 0.052 0.069 0.12 0.103 0.189 0.103 0.086 0 0.155-0.034 0.206-0.103s0.103-0.172 0.138-0.292c0.034-0.138 0.052-0.275 0.052-0.447s0-0.327-0.034-0.447zM14.893 3.25c-0.034-0.12-0.069-0.224-0.138-0.292-0.052-0.069-0.12-0.103-0.206-0.103s-0.155 0.034-0.206 0.103c-0.052 0.069-0.103 0.172-0.138 0.292-0.034 0.138-0.052 0.275-0.052 0.447s0.017 0.31 0.052 0.447c0.034 0.12 0.069 0.224 0.138 0.292 0.052 0.069 0.12 0.103 0.189 0.103 0.086 0 0.155-0.034 0.206-0.103s0.103-0.172 0.138-0.292c0.034-0.138 0.052-0.275 0.052-0.447 0.017-0.172 0-0.327-0.034-0.447zM16.905 3.25c-0.034-0.12-0.069-0.224-0.138-0.292-0.052-0.069-0.12-0.103-0.206-0.103s-0.155 0.034-0.206 0.103c-0.052 0.069-0.103 0.172-0.138 0.292-0.034 0.138-0.052 0.275-0.052 0.447s0.017 0.31 0.052 0.447c0.034 0.12 0.069 0.224 0.138 0.292 0.052 0.069 0.12 0.103 0.189 0.103 0.086 0 0.155-0.034 0.206-0.103s0.103-0.172 0.138-0.292c0.034-0.138 0.052-0.275 0.052-0.447s0-0.327-0.034-0.447zM14.893 3.25c-0.034-0.12-0.069-0.224-0.138-0.292-0.052-0.069-0.12-0.103-0.206-0.103s-0.155 0.034-0.206 0.103c-0.052 0.069-0.103 0.172-0.138 0.292-0.034 0.138-0.052 0.275-0.052 0.447s0.017 0.31 0.052 0.447c0.034 0.12 0.069 0.224 0.138 0.292 0.052 0.069 0.12 0.103 0.189 0.103 0.086 0 0.155-0.034 0.206-0.103s0.103-0.172 0.138-0.292c0.034-0.138 0.052-0.275 0.052-0.447 0.017-0.172 0-0.327-0.034-0.447zM16.905 3.25c-0.034-0.12-0.069-0.224-0.138-0.292-0.052-0.069-0.12-0.103-0.206-0.103s-0.155 0.034-0.206 0.103c-0.052 0.069-0.103 0.172-0.138 0.292-0.034 0.138-0.052 0.275-0.052 0.447s0.017 0.31 0.052 0.447c0.034 0.12 0.069 0.224 0.138 0.292 0.052 0.069 0.12 0.103 0.189 0.103 0.086 0 0.155-0.034 0.206-0.103s0.103-0.172 0.138-0.292c0.034-0.138 0.052-0.275 0.052-0.447s0-0.327-0.034-0.447zM14.893 3.25c-0.034-0.12-0.069-0.224-0.138-0.292-0.052-0.069-0.12-0.103-0.206-0.103s-0.155 0.034-0.206 0.103c-0.052 0.069-0.103 0.172-0.138 0.292-0.034 0.138-0.052 0.275-0.052 0.447s0.017 0.31 0.052 0.447c0.034 0.12 0.069 0.224 0.138 0.292 0.052 0.069 0.12 0.103 0.189 0.103 0.086 0 0.155-0.034 0.206-0.103s0.103-0.172 0.138-0.292c0.034-0.138 0.052-0.275 0.052-0.447 0.017-0.172 0-0.327-0.034-0.447zM16.905 3.25c-0.034-0.12-0.069-0.224-0.138-0.292-0.052-0.069-0.12-0.103-0.206-0.103s-0.155 0.034-0.206 0.103c-0.052 0.069-0.103 0.172-0.138 0.292-0.034 0.138-0.052 0.275-0.052 0.447s0.017 0.31 0.052 0.447c0.034 0.12 0.069 0.224 0.138 0.292 0.052 0.069 0.12 0.103 0.189 0.103 0.086 0 0.155-0.034 0.206-0.103s0.103-0.172 0.138-0.292c0.034-0.138 0.052-0.275 0.052-0.447s0-0.327-0.034-0.447zM14.893 3.25c-0.034-0.12-0.069-0.224-0.138-0.292-0.052-0.069-0.12-0.103-0.206-0.103s-0.155 0.034-0.206 0.103c-0.052 0.069-0.103 0.172-0.138 0.292-0.034 0.138-0.052 0.275-0.052 0.447s0.017 0.31 0.052 0.447c0.034 0.12 0.069 0.224 0.138 0.292 0.052 0.069 0.12 0.103 0.189 0.103 0.086 0 0.155-0.034 0.206-0.103s0.103-0.172 0.138-0.292c0.034-0.138 0.052-0.275 0.052-0.447 0.017-0.172 0-0.327-0.034-0.447zM16.905 3.25c-0.034-0.12-0.069-0.224-0.138-0.292-0.052-0.069-0.12-0.103-0.206-0.103s-0.155 0.034-0.206 0.103c-0.052 0.069-0.103 0.172-0.138 0.292-0.034 0.138-0.052 0.275-0.052 0.447s0.017 0.31 0.052 0.447c0.034 0.12 0.069 0.224 0.138 0.292 0.052 0.069 0.12 0.103 0.189 0.103 0.086 0 0.155-0.034 0.206-0.103s0.103-0.172 0.138-0.292c0.034-0.138 0.052-0.275 0.052-0.447s0-0.327-0.034-0.447zM14.893 3.25c-0.034-0.12-0.069-0.224-0.138-0.292-0.052-0.069-0.12-0.103-0.206-0.103s-0.155 0.034-0.206 0.103c-0.052 0.069-0.103 0.172-0.138 0.292-0.034 0.138-0.052 0.275-0.052 0.447s0.017 0.31 0.052 0.447c0.034 0.12 0.069 0.224 0.138 0.292 0.052 0.069 0.12 0.103 0.189 0.103 0.086 0 0.155-0.034 0.206-0.103s0.103-0.172 0.138-0.292c0.034-0.138 0.052-0.275 0.052-0.447 0.017-0.172 0-0.327-0.034-0.447zM16.905 3.25c-0.034-0.12-0.069-0.224-0.138-0.292-0.052-0.069-0.12-0.103-0.206-0.103s-0.155 0.034-0.206 0.103c-0.052 0.069-0.103 0.172-0.138 0.292-0.034 0.138-0.052 0.275-0.052 0.447s0.017 0.31 0.052 0.447c0.034 0.12 0.069 0.224 0.138 0.292 0.052 0.069 0.12 0.103 0.189 0.103 0.086 0 0.155-0.034 0.206-0.103s0.103-0.172 0.138-0.292c0.034-0.138 0.052-0.275 0.052-0.447s0-0.327-0.034-0.447zM14.893 3.25c-0.034-0.12-0.069-0.224-0.138-0.292-0.052-0.069-0.12-0.103-0.206-0.103s-0.155 0.034-0.206 0.103c-0.052 0.069-0.103 0.172-0.138 0.292-0.034 0.138-0.052 0.275-0.052 0.447s0.017 0.31 0.052 0.447c0.034 0.12 0.069 0.224 0.138 0.292 0.052 0.069 0.12 0.103 0.189 0.103 0.086 0 0.155-0.034 0.206-0.103s0.103-0.172 0.138-0.292c0.034-0.138 0.052-0.275 0.052-0.447 0.017-0.172 0-0.327-0.034-0.447zM16.905 3.25c-0.034-0.12-0.069-0.224-0.138-0.292-0.052-0.069-0.12-0.103-0.206-0.103s-0.155 0.034-0.206 0.103c-0.052 0.069-0.103 0.172-0.138 0.292-0.034 0.138-0.052 0.275-0.052 0.447s0.017 0.31 0.052 0.447c0.034 0.12 0.069 0.224 0.138 0.292 0.052 0.069 0.12 0.103 0.189 0.103 0.086 0 0.155-0.034 0.206-0.103s0.103-0.172 0.138-0.292c0.034-0.138 0.052-0.275 0.052-0.447s0-0.327-0.034-0.447zM14.893 3.25c-0.034-0.12-0.069-0.224-0.138-0.292-0.052-0.069-0.12-0.103-0.206-0.103s-0.155 0.034-0.206 0.103c-0.052 0.069-0.103 0.172-0.138 0.292-0.034 0.138-0.052 0.275-0.052 0.447s0.017 0.31 0.052 0.447c0.034 0.12 0.069 0.224 0.138 0.292 0.052 0.069 0.12 0.103 0.189 0.103 0.086 0 0.155-0.034 0.206-0.103s0.103-0.172 0.138-0.292c0.034-0.138 0.052-0.275 0.052-0.447 0.017-0.172 0-0.327-0.034-0.447zM16.905 3.25c-0.034-0.12-0.069-0.224-0.138-0.292-0.052-0.069-0.12-0.103-0.206-0.103s-0.155 0.034-0.206 0.103c-0.052 0.069-0.103 0.172-0.138 0.292-0.034 0.138-0.052 0.275-0.052 0.447s0.017 0.31 0.052 0.447c0.034 0.12 0.069 0.224 0.138 0.292 0.052 0.069 0.12 0.103 0.189 0.103 0.086 0 0.155-0.034 0.206-0.103s0.103-0.172 0.138-0.292c0.034-0.138 0.052-0.275 0.052-0.447s0-0.327-0.034-0.447zM14.893 3.25c-0.034-0.12-0.069-0.224-0.138-0.292-0.052-0.069-0.12-0.103-0.206-0.103s-0.155 0.034-0.206 0.103c-0.052 0.069-0.103 0.172-0.138 0.292-0.034 0.138-0.052 0.275-0.052 0.447s0.017 0.31 0.052 0.447c0.034 0.12 0.069 0.224 0.138 0.292 0.052 0.069 0.12 0.103 0.189 0.103 0.086 0 0.155-0.034 0.206-0.103s0.103-0.172 0.138-0.292c0.034-0.138 0.052-0.275 0.052-0.447 0.017-0.172 0-0.327-0.034-0.447zM16.905 3.25c-0.034-0.12-0.069-0.224-0.138-0.292-0.052-0.069-0.12-0.103-0.206-0.103s-0.155 0.034-0.206 0.103c-0.052 0.069-0.103 0.172-0.138 0.292-0.034 0.138-0.052 0.275-0.052 0.447s0.017 0.31 0.052 0.447c0.034 0.12 0.069 0.224 0.138 0.292 0.052 0.069 0.12 0.103 0.189 0.103 0.086 0 0.155-0.034 0.206-0.103s0.103-0.172 0.138-0.292c0.034-0.138 0.052-0.275 0.052-0.447s0-0.327-0.034-0.447zM14.893 3.25c-0.034-0.12-0.069-0.224-0.138-0.292-0.052-0.069-0.12-0.103-0.206-0.103s-0.155 0.034-0.206 0.103c-0.052 0.069-0.103 0.172-0.138 0.292-0.034 0.138-0.052 0.275-0.052 0.447s0.017 0.31 0.052 0.447c0.034 0.12 0.069 0.224 0.138 0.292 0.052 0.069 0.12 0.103 0.189 0.103 0.086 0 0.155-0.034 0.206-0.103s0.103-0.172 0.138-0.292c0.034-0.138 0.052-0.275 0.052-0.447 0.017-0.172 0-0.327-0.034-0.447zM16.905 3.25c-0.034-0.12-0.069-0.224-0.138-0.292-0.052-0.069-0.12-0.103-0.206-0.103s-0.155 0.034-0.206 0.103c-0.052 0.069-0.103 0.172-0.138 0.292-0.034 0.138-0.052 0.275-0.052 0.447s0.017 0.31 0.052 0.447c0.034 0.12 0.069 0.224 0.138 0.292 0.052 0.069 0.12 0.103 0.189 0.103 0.086 0 0.155-0.034 0.206-0.103s0.103-0.172 0.138-0.292c0.034-0.138 0.052-0.275 0.052-0.447s0-0.327-0.034-0.447zM31.212 12.812c-0.138 0.12-0.292 0.258-0.516 0.378-0.911 0.533-1.668 0.619-1.462 0.774s0.86-0.138 0.963 0.12c0.103 0.258 0.172 0.585-0.688 1.152-0.653 0.43-1.531 0.378-1.341 0.585 0.189 0.189 0.946-0.103 0.739 0.653-0.155 0.585-1.015 3.061-3.766 3.749-1.685 0.43-3.783 0.43-5.348 0.258 0.103 0.206 0.206 0.43 0.309 0.636 1.221 2.528 8.736-1.771 6.449 1.204-0.533 0.688-0.653 1.616-0.275 2.39 0.31 0.619-0.069 1.273-1.29 1.582-0.55 0.138-0.98 0.567-1.152 1.101-0.378 1.204-3.732 1.341-5.606-1.995-1.135-2.046-5.159 0.155-6.724-4.127-1.41-3.835-0.292-5.4-0.344-6.225-0.086-1.462-1.083-1.72-1.376-1.462-0.396 0.344-0.516 0.396-0.722 0.413-0.138 0.017-0.241-0.12-0.206-0.241 0.069-0.206 0.086-0.396 0.086-0.602 0-0.344-0.069-0.705-0.103-1.066-0.034-0.396 0.12-0.911 0.413-1.307 0.464-0.602 1.376-1.703 4.282 1.015 0.636 0.602 1.238 1.238 1.806 1.892 1.273-1.204 2.442-2.545 3.405-3.973 0.585-0.877 1.083-1.84 1.376-2.855 0.12-0.447 0.361-2.236 1.101-1.255 0.292 0.378 0.482 1.221 0.292 1.685-0.172 0.43 0.344-0.482 0.653-0.258s0 1.169 0.069 1.462c0.069 0.31 0.361-0.241 0.619-0.224 0.275 0.017 0.533 0.481 0.292 0.894s0.12 0.705 0.327 0.516c0.069-0.069 0.138-0.069 0.206-0.017-0.739 0.396-1.513 0.757-2.287 1.118-1.238 0.568-2.373 1.273-3.439 2.064-0.533 0.396-1.049 0.825-1.53 1.273-0.138 0.12-0.275 0.258-0.413 0.396 0.034 0.034 0.069 0.086 0.103 0.12 1.221-0.98 3.371-2.494 5.675-3.216 0.619-0.189 1.238-0.516 1.823-0.894 1.909-1.255 3.525-3.267 4.42-4.574-0.069-0.103-0.155-0.189-0.241-0.292-2.855-3.474-7.206-5.658-12.038-5.658-8.702 0-15.752 7.051-15.752 15.752 0 5.847 3.181 10.954 7.911 13.654 0.946 0.55 1.961 0.997 3.027 1.341-1.066-1.169-2.425-2.855-3.113-4.488-0.567 0.12-1.083 0.155-1.599 0.086-0.258-0.034-0.516-0.103-0.757-0.189s-0.482-0.206-0.705-0.344c-0.224-0.138-0.43-0.309-0.619-0.516-0.103-0.103-0.189-0.206-0.275-0.31s-0.172-0.224-0.258-0.344c-0.155-0.241-0.292-0.516-0.413-0.808-0.069-0.138-0.12-0.292-0.155-0.447-0.052-0.155-0.086-0.327-0.12-0.482 0.602-0.017 1.135 0.052 1.634 0.206 0.499 0.138 0.963 0.361 1.359 0.671 0.189 0.155 0.396 0.31 0.585 0.482s0.361 0.378 0.516 0.585c0.103 0.155 0.224 0.309 0.344 0.464 0-0.017-0.017-0.034-0.017-0.034-0.069-0.155-0.155-0.31-0.224-0.464-0.138-0.31-0.275-0.619-0.413-0.929-0.069-0.155-0.12-0.31-0.189-0.464-0.017-0.052-0.034-0.086-0.052-0.138-0.052-0.138-0.103-0.258-0.155-0.395s-0.103-0.258-0.155-0.396c-0.052-0.155-0.103-0.31-0.155-0.464-0.086-0.292-0.189-0.585-0.275-0.86-0.55-0.017-1.066-0.103-1.548-0.292-0.241-0.086-0.482-0.206-0.705-0.327-0.103-0.069-0.224-0.138-0.327-0.224-0.103-0.069-0.189-0.155-0.292-0.241-0.189-0.172-0.361-0.378-0.516-0.585-0.155-0.224-0.292-0.447-0.396-0.705s-0.189-0.516-0.258-0.808c-0.034-0.138-0.069-0.292-0.069-0.43-0.017-0.155-0.017-0.309-0.017-0.464 0.585 0.086 1.101 0.241 1.565 0.464s0.86 0.533 1.187 0.877c0.086 0.086 0.172 0.172 0.241 0.275s0.155 0.189 0.224 0.292c0.155 0.206 0.275 0.43 0.396 0.653 0.052 0.12 0.103 0.224 0.172 0.344 0.017 0.034 0.034 0.086 0.052 0.12-0.069-0.241-0.12-0.482-0.172-0.722-0.069-0.275-0.138-0.55-0.189-0.825-0.034-0.189-0.069-0.378-0.103-0.567-0.017-0.138-0.052-0.275-0.069-0.413-0.103-0.585-0.172-1.135-0.224-1.651-0.533-0.12-1.015-0.292-1.445-0.533-0.447-0.258-0.843-0.568-1.135-0.963-0.155-0.189-0.275-0.396-0.396-0.619-0.052-0.12-0.103-0.224-0.155-0.344-0.034-0.12-0.069-0.241-0.103-0.361-0.12-0.499-0.155-1.049-0.017-1.634 0.568 0.138 1.049 0.361 1.445 0.653 0.396 0.275 0.739 0.619 0.997 0.997s0.464 0.825 0.602 1.29c0.034 0.12 0.069 0.241 0.086 0.361 0 0.034 0.017 0.069 0.017 0.103-0.034-0.585-0.069-1.101-0.069-1.548 0-0.309 0-0.602 0-0.843-0.017-0.241 0.017-0.447 0.017-0.619 0-0.017 0-0.017 0-0.034-0.086-0.12-0.155-0.241-0.224-0.361-0.103-0.224-0.224-0.43-0.292-0.653s-0.12-0.43-0.155-0.653c-0.017-0.103-0.034-0.206-0.034-0.327 0-0.052 0-0.103 0-0.155s0-0.103 0.017-0.155c0.052-0.413 0.172-0.825 0.396-1.187 0.241-0.361 0.585-0.705 1.015-0.98 0.31 0.447 0.499 0.86 0.602 1.273s0.138 0.808 0.069 1.187c-0.017 0.052-0.017 0.103-0.034 0.155s-0.017 0.103-0.034 0.138c-0.017 0.103-0.052 0.189-0.086 0.292-0.069 0.189-0.155 0.378-0.258 0.568s-0.224 0.378-0.361 0.568c-0.069 0.103-0.155 0.224-0.241 0.327 0 0.017 0 0.017 0 0.034 0 0.172-0.017 0.378-0.017 0.619s0 0.516 0 0.825c0.017-0.12 0.052-0.224 0.069-0.344 0.052-0.206 0.103-0.378 0.189-0.55s0.189-0.327 0.31-0.482c0.224-0.292 0.533-0.516 0.877-0.688 0.361-0.155 0.791-0.258 1.29-0.275 0.017 0.103 0.017 0.206 0.017 0.31s0 0.206 0 0.292c-0.017 0.189-0.052 0.378-0.103 0.55-0.017 0.086-0.052 0.172-0.103 0.241-0.034 0.086-0.069 0.155-0.12 0.241-0.086 0.155-0.189 0.292-0.31 0.43-0.482 0.533-1.187 0.929-2.064 1.187 0.052 0.791 0.138 1.737 0.292 2.786 0-0.12 0.017-0.241 0.017-0.361 0.034-0.241 0.069-0.464 0.138-0.671 0.069-0.224 0.155-0.413 0.275-0.602 0.103-0.189 0.241-0.361 0.396-0.499 0.155-0.155 0.344-0.292 0.533-0.413 0.396-0.241 0.877-0.413 1.445-0.499 0.052 0.241 0.086 0.464 0.086 0.688 0.017 0.224 0 0.43-0.034 0.636s-0.103 0.396-0.189 0.585c-0.069 0.189-0.172 0.361-0.292 0.55-0.482 0.688-1.221 1.273-2.201 1.72 0.017 0.12 0.052 0.224 0.069 0.344 0.052 0.258 0.12 0.533 0.189 0.808 0.034 0.155 0.069 0.31 0.12 0.464 0.034 0.138 0.069 0.258 0.103 0.396 0.086 0.275 0.155 0.55 0.241 0.843s0.206 0.585 0.292 0.877c0.034 0.086 0.069 0.189 0.103 0.275 0-0.017 0-0.052-0.017-0.069-0.017-0.138-0.034-0.258-0.052-0.378-0.017-0.258-0.017-0.499 0-0.722 0.034-0.241 0.086-0.464 0.155-0.671 0.292-0.843 1.015-1.496 2.115-1.926 0.103 0.224 0.172 0.447 0.224 0.671s0.086 0.43 0.086 0.636c0 0.103 0 0.206-0.017 0.31 0 0.052-0.017 0.103-0.017 0.155s-0.017 0.103-0.017 0.155c-0.034 0.206-0.103 0.413-0.189 0.619s-0.189 0.413-0.327 0.602c-0.12 0.206-0.258 0.396-0.43 0.585-0.309 0.361-0.688 0.722-1.118 1.049v0.017c0.069 0.155 0.12 0.31 0.189 0.447 0.138 0.31 0.275 0.602 0.413 0.911 0.034 0.086 0.069 0.155 0.103 0.241 0.069 0.12 0.12 0.241 0.189 0.361 0.052 0.103 0.103 0.206 0.155 0.31 0.258 0.516 0.55 1.032 0.86 1.53 0-0.034-0.017-0.069-0.034-0.103-0.052-0.12-0.086-0.241-0.12-0.361-0.069-0.241-0.12-0.482-0.138-0.722s0-0.482 0.034-0.722c0.12-0.929 0.722-1.771 1.754-2.476 0.155 0.206 0.258 0.413 0.344 0.619 0.103 0.206 0.172 0.413 0.206 0.619 0.069 0.43 0.086 0.86-0.017 1.307-0.052 0.224-0.12 0.464-0.206 0.688-0.086 0.241-0.189 0.464-0.309 0.705-0.241 0.464-0.533 0.911-0.911 1.376 0.327 0.499 1.307 1.737 1.307 1.737 0.241 0.275 0.843 0.877 1.359 1.393 0.413 0.103 0.825 0.172 1.238 0.241 0.378 0.052 0.757 0.103 1.135 0.138 0.413 0.034 0.843 0.052 1.255 0.052 0.189 0 0.378 0 0.568-0.017 0.739-0.017 1.445-0.103 2.15-0.224 0.653-0.12 1.273-0.258 1.892-0.464 0.034-0.017 0.086-0.017 0.12-0.034 6.397-2.012 11.023-7.979 11.023-15.030 0.017-1.015-0.069-1.995-0.258-2.941zM17.902 3.955c0.069-0.069 0.206-0.069 0.292 0 0.034 0.034 0.052 0.086 0.052 0.138 0 0.086 0.017 0.155 0.052 0.224s0.086 0.12 0.155 0.155c0.138 0.069 0.31 0.069 0.43 0 0.069-0.034 0.12-0.086 0.155-0.155s0.052-0.138 0.052-0.224-0.017-0.155-0.052-0.224c-0.034-0.069-0.086-0.12-0.155-0.155s-0.138-0.052-0.224-0.052h-0.516c-0.052 0-0.103-0.017-0.138-0.052s-0.052-0.086-0.052-0.138v-0.825c0-0.052 0.017-0.103 0.052-0.138s0.086-0.069 0.138-0.069h1.032c0.052 0 0.103 0.017 0.138 0.069 0.034 0.034 0.052 0.086 0.052 0.138s-0.017 0.103-0.052 0.138c-0.034 0.034-0.086 0.069-0.138 0.069h-0.825v0.43h0.31c0.155 0 0.292 0.034 0.43 0.103 0.12 0.069 0.224 0.172 0.292 0.292s0.103 0.258 0.103 0.43c0 0.155-0.034 0.292-0.103 0.413s-0.172 0.224-0.292 0.292c-0.12 0.069-0.258 0.103-0.43 0.103-0.155 0-0.292-0.034-0.413-0.103s-0.224-0.172-0.292-0.292c-0.069-0.12-0.103-0.258-0.103-0.413 0-0.069 0.017-0.103 0.052-0.155zM15.89 3.027c0.069-0.189 0.155-0.327 0.258-0.43 0.12-0.103 0.258-0.155 0.43-0.155s0.31 0.052 0.43 0.155c0.12 0.103 0.206 0.241 0.258 0.43s0.086 0.396 0.086 0.653-0.034 0.464-0.086 0.653c-0.069 0.189-0.155 0.327-0.258 0.43-0.12 0.103-0.258 0.155-0.43 0.155s-0.31-0.052-0.43-0.155c-0.12-0.103-0.206-0.241-0.258-0.43s-0.086-0.413-0.086-0.653 0.017-0.464 0.086-0.653zM13.878 3.027c0.052-0.189 0.155-0.327 0.258-0.43 0.12-0.103 0.258-0.155 0.43-0.155s0.31 0.052 0.43 0.155 0.206 0.241 0.258 0.43c0.052 0.189 0.086 0.396 0.086 0.653s-0.034 0.464-0.086 0.653c-0.052 0.189-0.155 0.327-0.258 0.43-0.12 0.103-0.258 0.155-0.43 0.155s-0.309-0.052-0.43-0.155-0.206-0.241-0.258-0.43c-0.052-0.189-0.086-0.413-0.086-0.653s0.034-0.464 0.086-0.653zM12.863 3.009c-0.017-0.052-0.069-0.103-0.12-0.138s-0.12-0.052-0.189-0.052-0.138 0.017-0.189 0.052c-0.052 0.034-0.103 0.086-0.138 0.138-0.034 0.069-0.052 0.12-0.052 0.206 0 0.052-0.017 0.103-0.052 0.138-0.069 0.069-0.206 0.086-0.292 0-0.034-0.034-0.052-0.086-0.052-0.138 0-0.138 0.034-0.275 0.103-0.396s0.155-0.206 0.275-0.275c0.12-0.069 0.241-0.103 0.396-0.103 0.138 0 0.275 0.034 0.378 0.103s0.189 0.155 0.258 0.275c0.052 0.12 0.086 0.258 0.086 0.413 0 0.069-0.017 0.138-0.052 0.224-0.034 0.069-0.069 0.138-0.103 0.206-0.052 0.069-0.086 0.12-0.138 0.172l-0.636 0.722h0.774c0.052 0 0.103 0.017 0.138 0.052s0.052 0.086 0.052 0.138-0.017 0.103-0.052 0.138c-0.034 0.034-0.086 0.069-0.138 0.069h-1.135c-0.052 0-0.103-0.017-0.138-0.069-0.034-0.034-0.052-0.086-0.052-0.138s0.017-0.103 0.052-0.138l0.86-1.015c0.052-0.069 0.103-0.138 0.138-0.189s0.052-0.103 0.052-0.155c0.017-0.12 0-0.189-0.034-0.241zM16.371 4.437c0.052 0.069 0.12 0.103 0.189 0.103 0.086 0 0.155-0.034 0.206-0.103s0.103-0.172 0.138-0.292c0.034-0.138 0.052-0.275 0.052-0.447s-0.017-0.31-0.052-0.447c-0.034-0.12-0.069-0.224-0.138-0.292-0.052-0.069-0.12-0.103-0.206-0.103s-0.155 0.034-0.206 0.103c-0.052 0.069-0.103 0.172-0.138 0.292-0.034 0.138-0.052 0.275-0.052 0.447s0.017 0.31 0.052 0.447c0.052 0.12 0.103 0.206 0.155 0.292zM14.377 4.437c0.052 0.069 0.12 0.103 0.189 0.103 0.086 0 0.155-0.034 0.206-0.103s0.103-0.172 0.138-0.292c0.034-0.138 0.052-0.275 0.052-0.447s-0.017-0.31-0.052-0.447c-0.034-0.12-0.069-0.224-0.138-0.292-0.052-0.069-0.12-0.103-0.206-0.103s-0.155 0.034-0.206 0.103c-0.052 0.069-0.103 0.172-0.138 0.292-0.034 0.138-0.052 0.275-0.052 0.447s0.017 0.31 0.052 0.447c0.052 0.12 0.086 0.206 0.155 0.292zM16.905 3.25c-0.034-0.12-0.069-0.224-0.138-0.292-0.052-0.069-0.12-0.103-0.206-0.103s-0.155 0.034-0.206 0.103c-0.052 0.069-0.103 0.172-0.138 0.292-0.034 0.138-0.052 0.275-0.052 0.447s0.017 0.31 0.052 0.447c0.034 0.12 0.069 0.224 0.138 0.292 0.052 0.069 0.12 0.103 0.189 0.103 0.086 0 0.155-0.034 0.206-0.103s0.103-0.172 0.138-0.292c0.034-0.138 0.052-0.275 0.052-0.447s0-0.327-0.034-0.447zM14.893 3.25c-0.034-0.12-0.069-0.224-0.138-0.292-0.052-0.069-0.12-0.103-0.206-0.103s-0.155 0.034-0.206 0.103c-0.052 0.069-0.103 0.172-0.138 0.292-0.034 0.138-0.052 0.275-0.052 0.447s0.017 0.31 0.052 0.447c0.034 0.12 0.069 0.224 0.138 0.292 0.052 0.069 0.12 0.103 0.189 0.103 0.086 0 0.155-0.034 0.206-0.103s0.103-0.172 0.138-0.292c0.034-0.138 0.052-0.275 0.052-0.447 0.017-0.172 0-0.327-0.034-0.447zM16.905 3.25c-0.034-0.12-0.069-0.224-0.138-0.292-0.052-0.069-0.12-0.103-0.206-0.103s-0.155 0.034-0.206 0.103c-0.052 0.069-0.103 0.172-0.138 0.292-0.034 0.138-0.052 0.275-0.052 0.447s0.017 0.31 0.052 0.447c0.034 0.12 0.069 0.224 0.138 0.292 0.052 0.069 0.12 0.103 0.189 0.103 0.086 0 0.155-0.034 0.206-0.103s0.103-0.172 0.138-0.292c0.034-0.138 0.052-0.275 0.052-0.447s0-0.327-0.034-0.447zM14.893 3.25c-0.034-0.12-0.069-0.224-0.138-0.292-0.052-0.069-0.12-0.103-0.206-0.103s-0.155 0.034-0.206 0.103c-0.052 0.069-0.103 0.172-0.138 0.292-0.034 0.138-0.052 0.275-0.052 0.447s0.017 0.31 0.052 0.447c0.034 0.12 0.069 0.224 0.138 0.292 0.052 0.069 0.12 0.103 0.189 0.103 0.086 0 0.155-0.034 0.206-0.103s0.103-0.172 0.138-0.292c0.034-0.138 0.052-0.275 0.052-0.447 0.017-0.172 0-0.327-0.034-0.447zM16.905 3.25c-0.034-0.12-0.069-0.224-0.138-0.292-0.052-0.069-0.12-0.103-0.206-0.103s-0.155 0.034-0.206 0.103c-0.052 0.069-0.103 0.172-0.138 0.292-0.034 0.138-0.052 0.275-0.052 0.447s0.017 0.31 0.052 0.447c0.034 0.12 0.069 0.224 0.138 0.292 0.052 0.069 0.12 0.103 0.189 0.103 0.086 0 0.155-0.034 0.206-0.103s0.103-0.172 0.138-0.292c0.034-0.138 0.052-0.275 0.052-0.447s0-0.327-0.034-0.447zM14.893 3.25c-0.034-0.12-0.069-0.224-0.138-0.292-0.052-0.069-0.12-0.103-0.206-0.103s-0.155 0.034-0.206 0.103c-0.052 0.069-0.103 0.172-0.138 0.292-0.034 0.138-0.052 0.275-0.052 0.447s0.017 0.31 0.052 0.447c0.034 0.12 0.069 0.224 0.138 0.292 0.052 0.069 0.12 0.103 0.189 0.103 0.086 0 0.155-0.034 0.206-0.103s0.103-0.172 0.138-0.292c0.034-0.138 0.052-0.275 0.052-0.447 0.017-0.172 0-0.327-0.034-0.447zM16.905 3.25c-0.034-0.12-0.069-0.224-0.138-0.292-0.052-0.069-0.12-0.103-0.206-0.103s-0.155 0.034-0.206 0.103c-0.052 0.069-0.103 0.172-0.138 0.292-0.034 0.138-0.052 0.275-0.052 0.447s0.017 0.31 0.052 0.447c0.034 0.12 0.069 0.224 0.138 0.292 0.052 0.069 0.12 0.103 0.189 0.103 0.086 0 0.155-0.034 0.206-0.103s0.103-0.172 0.138-0.292c0.034-0.138 0.052-0.275 0.052-0.447s0-0.327-0.034-0.447zM14.893 3.25c-0.034-0.12-0.069-0.224-0.138-0.292-0.052-0.069-0.12-0.103-0.206-0.103s-0.155 0.034-0.206 0.103c-0.052 0.069-0.103 0.172-0.138 0.292-0.034 0.138-0.052 0.275-0.052 0.447s0.017 0.31 0.052 0.447c0.034 0.12 0.069 0.224 0.138 0.292 0.052 0.069 0.12 0.103 0.189 0.103 0.086 0 0.155-0.034 0.206-0.103s0.103-0.172 0.138-0.292c0.034-0.138 0.052-0.275 0.052-0.447 0.017-0.172 0-0.327-0.034-0.447zM16.905 3.25c-0.034-0.12-0.069-0.224-0.138-0.292-0.052-0.069-0.12-0.103-0.206-0.103s-0.155 0.034-0.206 0.103c-0.052 0.069-0.103 0.172-0.138 0.292-0.034 0.138-0.052 0.275-0.052 0.447s0.017 0.31 0.052 0.447c0.034 0.12 0.069 0.224 0.138 0.292 0.052 0.069 0.12 0.103 0.189 0.103 0.086 0 0.155-0.034 0.206-0.103s0.103-0.172 0.138-0.292c0.034-0.138 0.052-0.275 0.052-0.447s0-0.327-0.034-0.447zM14.893 3.25c-0.034-0.12-0.069-0.224-0.138-0.292-0.052-0.069-0.12-0.103-0.206-0.103s-0.155 0.034-0.206 0.103c-0.052 0.069-0.103 0.172-0.138 0.292-0.034 0.138-0.052 0.275-0.052 0.447s0.017 0.31 0.052 0.447c0.034 0.12 0.069 0.224 0.138 0.292 0.052 0.069 0.12 0.103 0.189 0.103 0.086 0 0.155-0.034 0.206-0.103s0.103-0.172 0.138-0.292c0.034-0.138 0.052-0.275 0.052-0.447 0.017-0.172 0-0.327-0.034-0.447zM16.905 3.25c-0.034-0.12-0.069-0.224-0.138-0.292-0.052-0.069-0.12-0.103-0.206-0.103s-0.155 0.034-0.206 0.103c-0.052 0.069-0.103 0.172-0.138 0.292-0.034 0.138-0.052 0.275-0.052 0.447s0.017 0.31 0.052 0.447c0.034 0.12 0.069 0.224 0.138 0.292 0.052 0.069 0.12 0.103 0.189 0.103 0.086 0 0.155-0.034 0.206-0.103s0.103-0.172 0.138-0.292c0.034-0.138 0.052-0.275 0.052-0.447s0-0.327-0.034-0.447zM14.893 3.25c-0.034-0.12-0.069-0.224-0.138-0.292-0.052-0.069-0.12-0.103-0.206-0.103s-0.155 0.034-0.206 0.103c-0.052 0.069-0.103 0.172-0.138 0.292-0.034 0.138-0.052 0.275-0.052 0.447s0.017 0.31 0.052 0.447c0.034 0.12 0.069 0.224 0.138 0.292 0.052 0.069 0.12 0.103 0.189 0.103 0.086 0 0.155-0.034 0.206-0.103s0.103-0.172 0.138-0.292c0.034-0.138 0.052-0.275 0.052-0.447 0.017-0.172 0-0.327-0.034-0.447zM16.905 3.25c-0.034-0.12-0.069-0.224-0.138-0.292-0.052-0.069-0.12-0.103-0.206-0.103s-0.155 0.034-0.206 0.103c-0.052 0.069-0.103 0.172-0.138 0.292-0.034 0.138-0.052 0.275-0.052 0.447s0.017 0.31 0.052 0.447c0.034 0.12 0.069 0.224 0.138 0.292 0.052 0.069 0.12 0.103 0.189 0.103 0.086 0 0.155-0.034 0.206-0.103s0.103-0.172 0.138-0.292c0.034-0.138 0.052-0.275 0.052-0.447s0-0.327-0.034-0.447zM14.893 3.25c-0.034-0.12-0.069-0.224-0.138-0.292-0.052-0.069-0.12-0.103-0.206-0.103s-0.155 0.034-0.206 0.103c-0.052 0.069-0.103 0.172-0.138 0.292-0.034 0.138-0.052 0.275-0.052 0.447s0.017 0.31 0.052 0.447c0.034 0.12 0.069 0.224 0.138 0.292 0.052 0.069 0.12 0.103 0.189 0.103 0.086 0 0.155-0.034 0.206-0.103s0.103-0.172 0.138-0.292c0.034-0.138 0.052-0.275 0.052-0.447 0.017-0.172 0-0.327-0.034-0.447zM16.905 3.25c-0.034-0.12-0.069-0.224-0.138-0.292-0.052-0.069-0.12-0.103-0.206-0.103s-0.155 0.034-0.206 0.103c-0.052 0.069-0.103 0.172-0.138 0.292-0.034 0.138-0.052 0.275-0.052 0.447s0.017 0.31 0.052 0.447c0.034 0.12 0.069 0.224 0.138 0.292 0.052 0.069 0.12 0.103 0.189 0.103 0.086 0 0.155-0.034 0.206-0.103s0.103-0.172 0.138-0.292c0.034-0.138 0.052-0.275 0.052-0.447s0-0.327-0.034-0.447zM14.893 3.25c-0.034-0.12-0.069-0.224-0.138-0.292-0.052-0.069-0.12-0.103-0.206-0.103s-0.155 0.034-0.206 0.103c-0.052 0.069-0.103 0.172-0.138 0.292-0.034 0.138-0.052 0.275-0.052 0.447s0.017 0.31 0.052 0.447c0.034 0.12 0.069 0.224 0.138 0.292 0.052 0.069 0.12 0.103 0.189 0.103 0.086 0 0.155-0.034 0.206-0.103s0.103-0.172 0.138-0.292c0.034-0.138 0.052-0.275 0.052-0.447 0.017-0.172 0-0.327-0.034-0.447zM16.905 3.25c-0.034-0.12-0.069-0.224-0.138-0.292-0.052-0.069-0.12-0.103-0.206-0.103s-0.155 0.034-0.206 0.103c-0.052 0.069-0.103 0.172-0.138 0.292-0.034 0.138-0.052 0.275-0.052 0.447s0.017 0.31 0.052 0.447c0.034 0.12 0.069 0.224 0.138 0.292 0.052 0.069 0.12 0.103 0.189 0.103 0.086 0 0.155-0.034 0.206-0.103s0.103-0.172 0.138-0.292c0.034-0.138 0.052-0.275 0.052-0.447s0-0.327-0.034-0.447zM14.893 3.25c-0.034-0.12-0.069-0.224-0.138-0.292-0.052-0.069-0.12-0.103-0.206-0.103s-0.155 0.034-0.206 0.103c-0.052 0.069-0.103 0.172-0.138 0.292-0.034 0.138-0.052 0.275-0.052 0.447s0.017 0.31 0.052 0.447c0.034 0.12 0.069 0.224 0.138 0.292 0.052 0.069 0.12 0.103 0.189 0.103 0.086 0 0.155-0.034 0.206-0.103s0.103-0.172 0.138-0.292c0.034-0.138 0.052-0.275 0.052-0.447 0.017-0.172 0-0.327-0.034-0.447zM16.905 3.25c-0.034-0.12-0.069-0.224-0.138-0.292-0.052-0.069-0.12-0.103-0.206-0.103s-0.155 0.034-0.206 0.103c-0.052 0.069-0.103 0.172-0.138 0.292-0.034 0.138-0.052 0.275-0.052 0.447s0.017 0.31 0.052 0.447c0.034 0.12 0.069 0.224 0.138 0.292 0.052 0.069 0.12 0.103 0.189 0.103 0.086 0 0.155-0.034 0.206-0.103s0.103-0.172 0.138-0.292c0.034-0.138 0.052-0.275 0.052-0.447s0-0.327-0.034-0.447zM14.893 3.25c-0.034-0.12-0.069-0.224-0.138-0.292-0.052-0.069-0.12-0.103-0.206-0.103s-0.155 0.034-0.206 0.103c-0.052 0.069-0.103 0.172-0.138 0.292-0.034 0.138-0.052 0.275-0.052 0.447s0.017 0.31 0.052 0.447c0.034 0.12 0.069 0.224 0.138 0.292 0.052 0.069 0.12 0.103 0.189 0.103 0.086 0 0.155-0.034 0.206-0.103s0.103-0.172 0.138-0.292c0.034-0.138 0.052-0.275 0.052-0.447 0.017-0.172 0-0.327-0.034-0.447z"></path>
<path fill="#fff" d="M23.732 10.353c-0.034 0.052-0.052 0.086-0.086 0.138-0.585 0.378-1.204 0.705-1.823 0.894-2.304 0.722-4.454 2.236-5.675 3.216-0.034-0.034-0.069-0.086-0.103-0.12 0.138-0.138 0.275-0.258 0.413-0.396 0.482-0.447 0.997-0.877 1.531-1.273 1.066-0.791 2.201-1.496 3.439-2.064 0.791-0.361 1.565-0.722 2.287-1.118 0.138 0.103 0.224 0.396 0.017 0.722z"></path>
<path fill="#fff" d="M29.321 4.334c0 0.086-0.017 0.138-0.017 0.189v0.017c-0.155-0.172-0.361-0.172-0.482 0.034-0.017 0.034-0.052 0.086-0.069 0.138-0.034 0.12-0.172 0.361-0.361 0.671-0.103 0.155-0.206 0.344-0.344 0.533-0.877 1.307-2.511 3.319-4.42 4.574-0.585 0.378-1.204 0.705-1.823 0.894-2.304 0.722-4.454 2.236-5.675 3.216-0.034-0.034-0.069-0.086-0.103-0.12 0.138-0.138 0.275-0.258 0.413-0.396 0.482-0.447 0.997-0.877 1.531-1.273 1.066-0.791 2.201-1.496 3.439-2.064 0.791-0.361 1.565-0.722 2.287-1.118 0.361-0.189 0.705-0.396 1.032-0.619 1.032-0.653 1.857-1.462 2.528-2.511 0.189-0.275 0.361-0.567 0.533-0.877 0.155-0.258 0.31-0.516 0.447-0.774 0.086-0.138 0.172-0.275 0.241-0.43 0.034-0.086 0.069-0.155 0.138-0.258l0.034-0.052c0.017-0.017 0.017-0.034 0.086-0.086 0.017 0 0.017-0.017 0.069-0.034 0.017-0.017 0.069-0.034 0.172-0.034 0.069-0.017 0.206 0.069 0.241 0.103 0.052 0.052 0.069 0.103 0.069 0.12 0.052 0.12 0.034 0.138 0.034 0.155z"></path>
<path fill="#fff" d="M43.010 23.158c-0.121-0.242-0.303-0.404-0.525-0.525s-0.485-0.182-0.767-0.182c-0.262 0-0.505 0.061-0.727 0.182-0.121 0.061-0.222 0.141-0.323 0.222-0.081 0.081-0.141 0.162-0.202 0.262-0.121 0.202-0.182 0.424-0.182 0.686h0.384c0-0.162 0.040-0.283 0.121-0.404s0.182-0.202 0.323-0.283c0.141-0.061 0.303-0.101 0.464-0.101 0.182 0 0.363 0.040 0.505 0.101s0.263 0.182 0.343 0.323c0.081 0.141 0.121 0.343 0.121 0.565v1.514c0 0.101 0.040 0.162 0.081 0.222 0.061 0.061 0.141 0.081 0.222 0.081s0.162-0.020 0.222-0.081c0.061-0.061 0.081-0.141 0.081-0.222v-1.514c0.040-0.323-0.020-0.626-0.141-0.848zM40.587 22.552c-0.061-0.061-0.121-0.081-0.222-0.081-0.081 0-0.162 0.020-0.222 0.081s-0.081 0.141-0.081 0.222v2.746c0 0.101 0.020 0.162 0.081 0.222s0.141 0.081 0.222 0.081c0.101 0 0.162-0.020 0.222-0.081s0.081-0.141 0.081-0.222v-2.746c0-0.081-0.020-0.162-0.081-0.222z"></path>
<path fill="#fff" d="M47.23 23.279c-0.141-0.262-0.343-0.464-0.606-0.606s-0.545-0.222-0.868-0.222-0.626 0.081-0.888 0.222c-0.262 0.141-0.444 0.343-0.606 0.606-0.141 0.262-0.222 0.545-0.222 0.888 0 0.323 0.081 0.626 0.222 0.888s0.343 0.464 0.606 0.606 0.545 0.222 0.888 0.222c0.323 0 0.626-0.081 0.888-0.222s0.464-0.343 0.606-0.606c0.141-0.262 0.222-0.545 0.222-0.888-0.020-0.343-0.101-0.646-0.242-0.888zM46.705 24.753c-0.101 0.182-0.222 0.303-0.384 0.404s-0.363 0.141-0.565 0.141c-0.222 0-0.404-0.040-0.565-0.141s-0.303-0.222-0.384-0.404c-0.101-0.182-0.141-0.363-0.141-0.606 0-0.222 0.040-0.424 0.141-0.606s0.222-0.303 0.384-0.404c0.162-0.101 0.343-0.141 0.565-0.141s0.404 0.061 0.565 0.141c0.162 0.101 0.283 0.242 0.384 0.404 0.101 0.182 0.141 0.363 0.141 0.606s-0.040 0.444-0.141 0.606z"></path>
<path fill="#fff" d="M50.601 22.552c-0.040-0.061-0.121-0.081-0.202-0.081-0.040 0-0.081 0-0.121 0.020s-0.081 0.040-0.101 0.081l-0.909 1.211-0.081 0.121 0.424 0.363 0.040-0.061 0.929-1.211c0.061-0.081 0.081-0.141 0.081-0.222 0.020-0.101-0.020-0.162-0.061-0.222zM48.965 24.046l-0.101 0.121-0.949 1.191c-0.061 0.081-0.081 0.141-0.081 0.222s0.020 0.141 0.081 0.182c0.040 0.061 0.121 0.081 0.202 0.081s0.162-0.040 0.222-0.101l0.929-1.171 0.040-0.061-0.343-0.464zM50.621 25.359l-0.969-1.171-0.182-0.222-0.162-0.141-0.040-0.061-1.010-1.211c-0.061-0.061-0.141-0.101-0.242-0.101-0.081 0-0.162 0.020-0.202 0.081s-0.061 0.121-0.061 0.202c0 0.081 0.040 0.141 0.081 0.222l1.009 1.191 0.283 0.283 0.101 0.121 0.969 1.171c0.040 0.040 0.061 0.061 0.101 0.081s0.081 0.020 0.121 0.020 0.141-0.020 0.202-0.081c0.061-0.061 0.081-0.101 0.081-0.182 0.020-0.061 0-0.121-0.081-0.202z"></path>
<path fill="#fff" d="M54.194 23.279c-0.141-0.262-0.343-0.464-0.606-0.606s-0.545-0.222-0.868-0.222c-0.323 0-0.626 0.081-0.888 0.222s-0.464 0.343-0.606 0.606c-0.141 0.262-0.222 0.545-0.222 0.888 0 0.323 0.081 0.626 0.222 0.888s0.343 0.464 0.606 0.606c0.263 0.141 0.545 0.222 0.888 0.222 0.323 0 0.626-0.081 0.889-0.222s0.464-0.343 0.606-0.606c0.141-0.262 0.222-0.545 0.222-0.888-0.020-0.343-0.101-0.646-0.242-0.888zM53.669 24.753c-0.101 0.182-0.222 0.303-0.383 0.404s-0.364 0.141-0.566 0.141c-0.222 0-0.404-0.040-0.565-0.141s-0.303-0.222-0.384-0.404c-0.101-0.182-0.141-0.363-0.141-0.606 0-0.222 0.040-0.424 0.141-0.606s0.222-0.303 0.384-0.404c0.162-0.101 0.343-0.141 0.565-0.141s0.404 0.061 0.566 0.141c0.162 0.101 0.283 0.242 0.383 0.404 0.101 0.182 0.142 0.363 0.142 0.606s-0.040 0.444-0.142 0.606z"></path>
<path fill="#fff" d="M58.515 23.279c-0.142-0.262-0.344-0.464-0.606-0.606s-0.545-0.222-0.868-0.222c-0.323 0-0.606 0.081-0.868 0.222-0.262 0.162-0.464 0.363-0.606 0.606-0.141 0.262-0.222 0.545-0.222 0.868v2.806c0 0.081 0.040 0.162 0.081 0.222 0.060 0.061 0.141 0.081 0.222 0.081 0.101 0 0.162-0.020 0.222-0.081s0.081-0.141 0.081-0.222v-1.656c0.141 0.182 0.323 0.303 0.525 0.404s0.424 0.162 0.666 0.162c0.303 0 0.566-0.081 0.808-0.222s0.424-0.343 0.566-0.606c0.141-0.262 0.201-0.545 0.201-0.868 0.020-0.323-0.060-0.626-0.201-0.888zM57.99 24.753c-0.101 0.182-0.222 0.303-0.383 0.404s-0.344 0.141-0.566 0.141c-0.202 0-0.383-0.040-0.566-0.141-0.162-0.101-0.303-0.242-0.383-0.404-0.101-0.182-0.141-0.363-0.141-0.585s0.040-0.424 0.141-0.586c0.101-0.182 0.222-0.303 0.383-0.404s0.344-0.162 0.566-0.162c0.202 0 0.404 0.061 0.566 0.162s0.303 0.242 0.383 0.404c0.101 0.182 0.141 0.363 0.141 0.586 0 0.202-0.040 0.404-0.141 0.585z"></path>
<path fill="#fff" d="M62.673 23.279c-0.141-0.262-0.343-0.464-0.605-0.606s-0.546-0.222-0.868-0.222c-0.323 0-0.626 0.081-0.889 0.222s-0.464 0.343-0.605 0.606c-0.142 0.262-0.222 0.545-0.222 0.888 0 0.323 0.081 0.626 0.222 0.888s0.343 0.464 0.605 0.606c0.262 0.141 0.545 0.222 0.889 0.222 0.323 0 0.626-0.081 0.888-0.222s0.464-0.343 0.606-0.606c0.141-0.262 0.222-0.545 0.222-0.888-0.040-0.343-0.101-0.646-0.242-0.888zM62.148 24.753c-0.101 0.182-0.222 0.303-0.383 0.404s-0.364 0.141-0.565 0.141c-0.222 0-0.404-0.040-0.566-0.141s-0.303-0.222-0.383-0.404c-0.101-0.182-0.142-0.363-0.142-0.606 0-0.222 0.040-0.424 0.142-0.606s0.222-0.303 0.383-0.404c0.162-0.101 0.364-0.141 0.566-0.141s0.403 0.061 0.565 0.141c0.162 0.101 0.283 0.242 0.383 0.404 0.101 0.182 0.142 0.363 0.142 0.606s-0.061 0.444-0.142 0.606z"></path>
<path fill="#fff" d="M66.873 22.552c-0.061-0.061-0.121-0.081-0.222-0.081s-0.161 0.020-0.222 0.081c-0.060 0.061-0.081 0.141-0.081 0.222v2.726c0 0.101 0.020 0.162 0.081 0.222s0.141 0.081 0.222 0.081c0.101 0 0.162-0.020 0.222-0.081s0.081-0.141 0.081-0.222v-2.726c0-0.081-0.040-0.162-0.081-0.222zM64.349 23.804v0.545h2.16v-0.545h-2.16zM64.349 22.552c-0.061-0.061-0.142-0.081-0.222-0.081s-0.161 0.020-0.222 0.081c-0.060 0.061-0.081 0.141-0.081 0.222v2.726c0 0.101 0.020 0.162 0.081 0.222s0.121 0.081 0.222 0.081c0.101 0 0.182-0.020 0.222-0.081 0.060-0.061 0.081-0.141 0.081-0.222v-2.726c0-0.081-0.020-0.162-0.081-0.222z"></path>
<path fill="#fff" d="M71.112 22.552c-0.060-0.061-0.121-0.081-0.222-0.081s-0.162 0.020-0.222 0.081c-0.061 0.061-0.081 0.141-0.081 0.222v2.726c0 0.101 0.020 0.162 0.081 0.222s0.141 0.081 0.222 0.081c0.101 0 0.162-0.020 0.222-0.081s0.081-0.141 0.081-0.222v-2.726c0-0.081-0.040-0.162-0.081-0.222zM68.588 23.804v0.545h2.161v-0.545h-2.161zM68.588 22.552c-0.060-0.061-0.141-0.081-0.222-0.081-0.101 0-0.162 0.020-0.222 0.081s-0.081 0.141-0.081 0.222v2.726c0 0.101 0.020 0.162 0.081 0.222s0.121 0.081 0.222 0.081 0.162-0.020 0.222-0.081c0.061-0.061 0.081-0.141 0.081-0.222v-2.726c0-0.081-0.020-0.162-0.081-0.222z"></path>
<path fill="#fff" d="M75.291 22.552c-0.061-0.061-0.142-0.081-0.222-0.081s-0.162 0.020-0.222 0.081c-0.061 0.061-0.101 0.141-0.101 0.222v2.746c0 0.101 0.020 0.162 0.101 0.222 0.060 0.061 0.141 0.081 0.222 0.081 0.101 0 0.162-0.020 0.222-0.081s0.081-0.141 0.081-0.222v-2.746c0-0.081-0.020-0.162-0.081-0.222zM74.746 24.511c0 0.141-0.040 0.283-0.121 0.404s-0.182 0.222-0.323 0.283c-0.142 0.061-0.303 0.101-0.464 0.101-0.182 0-0.344-0.040-0.505-0.101-0.141-0.061-0.262-0.182-0.343-0.323s-0.121-0.343-0.121-0.565v-1.534c0-0.101-0.020-0.162-0.081-0.222s-0.141-0.081-0.222-0.081c-0.101 0-0.162 0.020-0.222 0.081s-0.081 0.141-0.081 0.222v1.514c0 0.343 0.061 0.626 0.202 0.868 0.121 0.242 0.303 0.404 0.525 0.525s0.485 0.182 0.767 0.182c0.282 0 0.525-0.061 0.727-0.182 0.121-0.061 0.222-0.141 0.303-0.222s0.142-0.162 0.202-0.262c0.121-0.202 0.182-0.444 0.182-0.686h-0.424z"></path>
<path fill="#fff" d="M79.49 22.552c-0.060-0.061-0.141-0.081-0.222-0.081-0.101 0-0.162 0.020-0.222 0.081s-0.081 0.141-0.081 0.222v2.746c0 0.101 0.020 0.162 0.081 0.222s0.141 0.081 0.222 0.081c0.101 0 0.162-0.020 0.222-0.081s0.081-0.141 0.081-0.222v-2.746c0-0.081-0.020-0.162-0.081-0.222zM79.066 20.998c-0.060-0.061-0.121-0.081-0.202-0.081s-0.141 0.020-0.202 0.081c-0.060 0.061-0.081 0.121-0.081 0.222s-0.060 0.182-0.162 0.262c-0.101 0.081-0.242 0.101-0.403 0.101s-0.283-0.040-0.404-0.101c-0.101-0.081-0.162-0.162-0.162-0.262 0-0.081-0.020-0.162-0.081-0.222s-0.121-0.081-0.202-0.081-0.141 0.020-0.202 0.081c-0.060 0.061-0.081 0.121-0.081 0.222 0 0.162 0.061 0.303 0.142 0.424 0.101 0.121 0.222 0.222 0.404 0.303 0.161 0.081 0.363 0.101 0.565 0.101 0.222 0 0.404-0.040 0.566-0.101 0.162-0.081 0.303-0.162 0.404-0.303 0.101-0.121 0.141-0.262 0.141-0.424 0.040-0.101 0-0.162-0.040-0.222zM78.945 24.511c0 0.141-0.040 0.283-0.121 0.404s-0.202 0.222-0.323 0.283c-0.141 0.061-0.303 0.101-0.464 0.101-0.181 0-0.343-0.040-0.505-0.101-0.141-0.061-0.262-0.182-0.343-0.323s-0.121-0.343-0.121-0.565v-1.534c0-0.101-0.020-0.162-0.081-0.222s-0.142-0.081-0.222-0.081-0.161 0.020-0.222 0.081c-0.060 0.061-0.081 0.141-0.081 0.222v1.514c0 0.343 0.061 0.626 0.202 0.868 0.121 0.242 0.303 0.404 0.525 0.525s0.484 0.182 0.767 0.182 0.525-0.061 0.727-0.182c0.121-0.061 0.222-0.141 0.303-0.222s0.141-0.162 0.202-0.262c0.121-0.202 0.181-0.444 0.181-0.686h-0.424z"></path>
<path fill="#fff" d="M85.305 24.026l-0.202 0.545v0.868c0 0.262-0.040 0.485-0.142 0.686-0.101 0.182-0.222 0.323-0.403 0.424-0.162 0.101-0.344 0.141-0.546 0.141s-0.403-0.040-0.565-0.121c-0.162-0.081-0.303-0.182-0.424-0.323-0.061-0.061-0.121-0.101-0.202-0.121s-0.162 0-0.222 0.061c-0.060 0.040-0.101 0.101-0.121 0.182s0 0.141 0.061 0.222c0.181 0.222 0.383 0.384 0.646 0.505s0.525 0.182 0.828 0.182c0.344 0 0.626-0.081 0.889-0.242s0.464-0.363 0.606-0.626c0.141-0.262 0.222-0.565 0.222-0.888v-1.332l-0.424-0.162zM85.486 23.279c-0.141-0.262-0.343-0.464-0.606-0.606s-0.545-0.222-0.868-0.222c-0.323 0-0.626 0.081-0.868 0.222-0.263 0.141-0.465 0.343-0.606 0.606s-0.222 0.545-0.222 0.888c0 0.323 0.060 0.626 0.201 0.888s0.323 0.464 0.566 0.606c0.242 0.141 0.505 0.222 0.808 0.222 0.282 0 0.525-0.081 0.747-0.222 0.181-0.121 0.343-0.283 0.464-0.505 0.020-0.040 0.040-0.061 0.060-0.101 0.121-0.262 0.182-0.545 0.182-0.888h0.363c-0.020-0.343-0.081-0.646-0.222-0.888zM84.961 24.753c-0.101 0.182-0.222 0.303-0.383 0.404s-0.343 0.141-0.566 0.141c-0.201 0-0.403-0.040-0.565-0.141s-0.303-0.222-0.383-0.404c-0.101-0.182-0.142-0.363-0.142-0.606 0-0.222 0.040-0.424 0.142-0.606s0.222-0.303 0.383-0.404c0.162-0.101 0.364-0.141 0.565-0.141 0.222 0 0.404 0.061 0.566 0.141 0.162 0.101 0.303 0.242 0.383 0.404 0.081 0.182 0.142 0.363 0.142 0.606s-0.061 0.444-0.142 0.606z"></path>
<path fill="#fff" d="M87.243 22.552c-0.061-0.061-0.142-0.081-0.222-0.081s-0.161 0.020-0.222 0.081c-0.060 0.061-0.081 0.141-0.081 0.222v2.726c0 0.101 0.040 0.162 0.081 0.222 0.061 0.061 0.141 0.081 0.222 0.081 0.101 0 0.182-0.020 0.222-0.081 0.060-0.061 0.081-0.141 0.081-0.222v-2.726c0-0.081-0.040-0.162-0.081-0.222zM87.283 21.24c-0.081-0.081-0.182-0.121-0.283-0.121s-0.202 0.040-0.283 0.121c-0.081 0.081-0.121 0.182-0.121 0.283s0.040 0.202 0.121 0.283c0.081 0.081 0.182 0.121 0.283 0.121s0.202-0.040 0.283-0.121c0.081-0.081 0.121-0.182 0.121-0.283s-0.040-0.202-0.121-0.283z"></path>
<path fill="#fff" d="M92.229 22.552c-0.061-0.061-0.142-0.081-0.222-0.081-0.121 0-0.242 0.061-0.323 0.182l-1.272 1.837-1.272-1.837c-0.081-0.121-0.202-0.182-0.323-0.182-0.101 0-0.161 0.020-0.222 0.081s-0.081 0.141-0.081 0.222v2.726c0 0.101 0.020 0.162 0.081 0.222s0.141 0.081 0.222 0.081c0.101 0 0.162-0.020 0.222-0.081s0.081-0.141 0.081-0.222v-1.958l0.949 1.373c0.101 0.141 0.202 0.202 0.323 0.202s0.222-0.061 0.323-0.202l0.969-1.373v1.958c0 0.101 0.020 0.162 0.081 0.222s0.141 0.081 0.222 0.081c0.101 0 0.162-0.020 0.222-0.081s0.081-0.141 0.081-0.222v-2.726c0.040-0.081 0-0.162-0.060-0.222z"></path>
<path fill="#fff" d="M47.108 10.722c-0.202-0.485-0.464-0.929-0.828-1.272-0.363-0.363-0.787-0.646-1.272-0.828-0.484-0.202-1.030-0.303-1.615-0.303s-1.131 0.101-1.635 0.303c-0.485 0.202-0.908 0.485-1.272 0.828-0.363 0.363-0.626 0.787-0.828 1.272s-0.303 1.030-0.303 1.635c0 0.606 0.101 1.131 0.303 1.635 0.202 0.485 0.464 0.929 0.828 1.292s0.767 0.646 1.272 0.848c0.484 0.202 1.030 0.303 1.635 0.303 0.586 0 1.131-0.101 1.615-0.303s0.908-0.485 1.272-0.848 0.626-0.787 0.828-1.292c0.202-0.505 0.303-1.050 0.303-1.635s-0.101-1.151-0.303-1.635zM43.393 15.446c-0.444 0-0.848-0.081-1.211-0.242s-0.686-0.384-0.949-0.666-0.464-0.606-0.626-0.989c-0.141-0.384-0.222-0.787-0.222-1.231s0.081-0.848 0.222-1.231 0.363-0.707 0.626-0.989c0.262-0.283 0.585-0.505 0.949-0.646 0.363-0.162 0.767-0.222 1.211-0.222s0.848 0.081 1.211 0.222c0.363 0.162 0.686 0.363 0.949 0.646s0.484 0.606 0.626 0.989 0.222 0.787 0.222 1.231c0 0.444-0.081 0.848-0.222 1.231s-0.343 0.707-0.626 0.989c-0.262 0.283-0.585 0.505-0.949 0.666s-0.767 0.242-1.211 0.242z"></path>
<path fill="#fff" d="M46.26 11.085c-0.141-0.384-0.363-0.727-0.646-1.030-0.283-0.283-0.606-0.525-0.989-0.666-0.384-0.161-0.808-0.242-1.252-0.242s-0.868 0.081-1.252 0.242c-0.384 0.162-0.707 0.384-0.989 0.666s-0.484 0.626-0.646 1.030c-0.162 0.384-0.222 0.807-0.222 1.252s0.081 0.868 0.222 1.252c0.162 0.384 0.363 0.727 0.646 1.030 0.283 0.283 0.606 0.525 0.989 0.686s0.787 0.242 1.252 0.242c0.444 0 0.868-0.081 1.252-0.242s0.707-0.384 0.989-0.686c0.283-0.283 0.484-0.626 0.646-1.030 0.141-0.384 0.222-0.808 0.222-1.252s-0.061-0.868-0.222-1.252zM43.393 15.345c-0.424 0-0.808-0.081-1.171-0.222-0.363-0.161-0.666-0.363-0.908-0.626-0.262-0.262-0.464-0.585-0.606-0.949s-0.222-0.767-0.222-1.191c0-0.424 0.081-0.828 0.222-1.191s0.343-0.686 0.606-0.949c0.262-0.262 0.565-0.485 0.908-0.626 0.363-0.141 0.747-0.222 1.171-0.222s0.807 0.081 1.171 0.222 0.666 0.363 0.929 0.626c0.262 0.262 0.464 0.585 0.606 0.949s0.202 0.767 0.202 1.191c0 0.424-0.081 0.828-0.202 1.191-0.141 0.363-0.343 0.686-0.606 0.949s-0.565 0.485-0.929 0.626c-0.363 0.141-0.747 0.222-1.171 0.222zM46.26 11.085c-0.141-0.384-0.363-0.727-0.646-1.030-0.283-0.283-0.606-0.525-0.989-0.666-0.384-0.161-0.808-0.242-1.252-0.242s-0.868 0.081-1.252 0.242c-0.384 0.162-0.707 0.384-0.989 0.666s-0.484 0.626-0.646 1.030c-0.162 0.384-0.222 0.807-0.222 1.252s0.081 0.868 0.222 1.252c0.162 0.384 0.363 0.727 0.646 1.030 0.283 0.283 0.606 0.525 0.989 0.686s0.787 0.242 1.252 0.242c0.444 0 0.868-0.081 1.252-0.242s0.707-0.384 0.989-0.686c0.283-0.283 0.484-0.626 0.646-1.030 0.141-0.384 0.222-0.808 0.222-1.252s-0.061-0.868-0.222-1.252zM43.393 15.345c-0.424 0-0.808-0.081-1.171-0.222-0.363-0.161-0.666-0.363-0.908-0.626-0.262-0.262-0.464-0.585-0.606-0.949s-0.222-0.767-0.222-1.191c0-0.424 0.081-0.828 0.222-1.191s0.343-0.686 0.606-0.949c0.262-0.262 0.565-0.485 0.908-0.626 0.363-0.141 0.747-0.222 1.171-0.222s0.807 0.081 1.171 0.222 0.666 0.363 0.929 0.626c0.262 0.262 0.464 0.585 0.606 0.949s0.202 0.767 0.202 1.191c0 0.424-0.081 0.828-0.202 1.191-0.141 0.363-0.343 0.686-0.606 0.949s-0.565 0.485-0.929 0.626c-0.363 0.141-0.747 0.222-1.171 0.222zM46.26 11.085c-0.141-0.384-0.363-0.727-0.646-1.030-0.283-0.283-0.606-0.525-0.989-0.666-0.384-0.161-0.808-0.242-1.252-0.242s-0.868 0.081-1.252 0.242c-0.384 0.162-0.707 0.384-0.989 0.666s-0.484 0.626-0.646 1.030c-0.162 0.384-0.222 0.807-0.222 1.252s0.081 0.868 0.222 1.252c0.162 0.384 0.363 0.727 0.646 1.030 0.283 0.283 0.606 0.525 0.989 0.686s0.787 0.242 1.252 0.242c0.444 0 0.868-0.081 1.252-0.242s0.707-0.384 0.989-0.686c0.283-0.283 0.484-0.626 0.646-1.030 0.141-0.384 0.222-0.808 0.222-1.252s-0.061-0.868-0.222-1.252zM43.393 15.345c-0.424 0-0.808-0.081-1.171-0.222-0.363-0.161-0.666-0.363-0.908-0.626-0.262-0.262-0.464-0.585-0.606-0.949s-0.222-0.767-0.222-1.191c0-0.424 0.081-0.828 0.222-1.191s0.343-0.686 0.606-0.949c0.262-0.262 0.565-0.485 0.908-0.626 0.363-0.141 0.747-0.222 1.171-0.222s0.807 0.081 1.171 0.222 0.666 0.363 0.929 0.626c0.262 0.262 0.464 0.585 0.606 0.949s0.202 0.767 0.202 1.191c0 0.424-0.081 0.828-0.202 1.191-0.141 0.363-0.343 0.686-0.606 0.949s-0.565 0.485-0.929 0.626c-0.363 0.141-0.747 0.222-1.171 0.222zM46.26 11.085c-0.141-0.384-0.363-0.727-0.646-1.030-0.283-0.283-0.606-0.525-0.989-0.666-0.384-0.161-0.808-0.242-1.252-0.242s-0.868 0.081-1.252 0.242c-0.384 0.162-0.707 0.384-0.989 0.666s-0.484 0.626-0.646 1.030c-0.162 0.384-0.222 0.807-0.222 1.252s0.081 0.868 0.222 1.252c0.162 0.384 0.363 0.727 0.646 1.030 0.283 0.283 0.606 0.525 0.989 0.686s0.787 0.242 1.252 0.242c0.444 0 0.868-0.081 1.252-0.242s0.707-0.384 0.989-0.686c0.283-0.283 0.484-0.626 0.646-1.030 0.141-0.384 0.222-0.808 0.222-1.252s-0.061-0.868-0.222-1.252zM43.393 15.345c-0.424 0-0.808-0.081-1.171-0.222-0.363-0.161-0.666-0.363-0.908-0.626-0.262-0.262-0.464-0.585-0.606-0.949s-0.222-0.767-0.222-1.191c0-0.424 0.081-0.828 0.222-1.191s0.343-0.686 0.606-0.949c0.262-0.262 0.565-0.485 0.908-0.626 0.363-0.141 0.747-0.222 1.171-0.222s0.807 0.081 1.171 0.222 0.666 0.363 0.929 0.626c0.262 0.262 0.464 0.585 0.606 0.949s0.202 0.767 0.202 1.191c0 0.424-0.081 0.828-0.202 1.191-0.141 0.363-0.343 0.686-0.606 0.949s-0.565 0.485-0.929 0.626c-0.363 0.141-0.747 0.222-1.171 0.222zM46.26 11.085c-0.141-0.384-0.363-0.727-0.646-1.030-0.283-0.283-0.606-0.525-0.989-0.666-0.384-0.161-0.808-0.242-1.252-0.242s-0.868 0.081-1.252 0.242c-0.384 0.162-0.707 0.384-0.989 0.666s-0.484 0.626-0.646 1.030c-0.162 0.384-0.222 0.807-0.222 1.252s0.081 0.868 0.222 1.252c0.162 0.384 0.363 0.727 0.646 1.030 0.283 0.283 0.606 0.525 0.989 0.686s0.787 0.242 1.252 0.242c0.444 0 0.868-0.081 1.252-0.242s0.707-0.384 0.989-0.686c0.283-0.283 0.484-0.626 0.646-1.030 0.141-0.384 0.222-0.808 0.222-1.252s-0.061-0.868-0.222-1.252zM43.393 15.345c-0.424 0-0.808-0.081-1.171-0.222-0.363-0.161-0.666-0.363-0.908-0.626-0.262-0.262-0.464-0.585-0.606-0.949s-0.222-0.767-0.222-1.191c0-0.424 0.081-0.828 0.222-1.191s0.343-0.686 0.606-0.949c0.262-0.262 0.565-0.485 0.908-0.626 0.363-0.141 0.747-0.222 1.171-0.222s0.807 0.081 1.171 0.222 0.666 0.363 0.929 0.626c0.262 0.262 0.464 0.585 0.606 0.949s0.202 0.767 0.202 1.191c0 0.424-0.081 0.828-0.202 1.191-0.141 0.363-0.343 0.686-0.606 0.949s-0.565 0.485-0.929 0.626c-0.363 0.141-0.747 0.222-1.171 0.222zM46.26 11.085c-0.141-0.384-0.363-0.727-0.646-1.030-0.283-0.283-0.606-0.525-0.989-0.666-0.384-0.161-0.808-0.242-1.252-0.242s-0.868 0.081-1.252 0.242c-0.384 0.162-0.707 0.384-0.989 0.666s-0.484 0.626-0.646 1.030c-0.162 0.384-0.222 0.807-0.222 1.252s0.081 0.868 0.222 1.252c0.162 0.384 0.363 0.727 0.646 1.030 0.283 0.283 0.606 0.525 0.989 0.686s0.787 0.242 1.252 0.242c0.444 0 0.868-0.081 1.252-0.242s0.707-0.384 0.989-0.686c0.283-0.283 0.484-0.626 0.646-1.030 0.141-0.384 0.222-0.808 0.222-1.252s-0.061-0.868-0.222-1.252zM43.393 15.345c-0.424 0-0.808-0.081-1.171-0.222-0.363-0.161-0.666-0.363-0.908-0.626-0.262-0.262-0.464-0.585-0.606-0.949s-0.222-0.767-0.222-1.191c0-0.424 0.081-0.828 0.222-1.191s0.343-0.686 0.606-0.949c0.262-0.262 0.565-0.485 0.908-0.626 0.363-0.141 0.747-0.222 1.171-0.222s0.807 0.081 1.171 0.222 0.666 0.363 0.929 0.626c0.262 0.262 0.464 0.585 0.606 0.949s0.202 0.767 0.202 1.191c0 0.424-0.081 0.828-0.202 1.191-0.141 0.363-0.343 0.686-0.606 0.949s-0.565 0.485-0.929 0.626c-0.363 0.141-0.747 0.222-1.171 0.222zM46.26 11.085c-0.141-0.384-0.363-0.727-0.646-1.030-0.283-0.283-0.606-0.525-0.989-0.666-0.384-0.161-0.808-0.242-1.252-0.242s-0.868 0.081-1.252 0.242c-0.384 0.162-0.707 0.384-0.989 0.666s-0.484 0.626-0.646 1.030c-0.162 0.384-0.222 0.807-0.222 1.252s0.081 0.868 0.222 1.252c0.162 0.384 0.363 0.727 0.646 1.030 0.283 0.283 0.606 0.525 0.989 0.686s0.787 0.242 1.252 0.242c0.444 0 0.868-0.081 1.252-0.242s0.707-0.384 0.989-0.686c0.283-0.283 0.484-0.626 0.646-1.030 0.141-0.384 0.222-0.808 0.222-1.252s-0.061-0.868-0.222-1.252zM43.393 15.345c-0.424 0-0.808-0.081-1.171-0.222-0.363-0.161-0.666-0.363-0.908-0.626-0.262-0.262-0.464-0.585-0.606-0.949s-0.222-0.767-0.222-1.191c0-0.424 0.081-0.828 0.222-1.191s0.343-0.686 0.606-0.949c0.262-0.262 0.565-0.485 0.908-0.626 0.363-0.141 0.747-0.222 1.171-0.222s0.807 0.081 1.171 0.222 0.666 0.363 0.929 0.626c0.262 0.262 0.464 0.585 0.606 0.949s0.202 0.767 0.202 1.191c0 0.424-0.081 0.828-0.202 1.191-0.141 0.363-0.343 0.686-0.606 0.949s-0.565 0.485-0.929 0.626c-0.363 0.141-0.747 0.222-1.171 0.222zM46.26 11.085c-0.141-0.384-0.363-0.727-0.646-1.030-0.283-0.283-0.606-0.525-0.989-0.666-0.384-0.161-0.808-0.242-1.252-0.242s-0.868 0.081-1.252 0.242c-0.384 0.162-0.707 0.384-0.989 0.666s-0.484 0.626-0.646 1.030c-0.162 0.384-0.222 0.807-0.222 1.252s0.081 0.868 0.222 1.252c0.162 0.384 0.363 0.727 0.646 1.030 0.283 0.283 0.606 0.525 0.989 0.686s0.787 0.242 1.252 0.242c0.444 0 0.868-0.081 1.252-0.242s0.707-0.384 0.989-0.686c0.283-0.283 0.484-0.626 0.646-1.030 0.141-0.384 0.222-0.808 0.222-1.252s-0.061-0.868-0.222-1.252zM43.393 15.345c-0.424 0-0.808-0.081-1.171-0.222-0.363-0.161-0.666-0.363-0.908-0.626-0.262-0.262-0.464-0.585-0.606-0.949s-0.222-0.767-0.222-1.191c0-0.424 0.081-0.828 0.222-1.191s0.343-0.686 0.606-0.949c0.262-0.262 0.565-0.485 0.908-0.626 0.363-0.141 0.747-0.222 1.171-0.222s0.807 0.081 1.171 0.222 0.666 0.363 0.929 0.626c0.262 0.262 0.464 0.585 0.606 0.949s0.202 0.767 0.202 1.191c0 0.424-0.081 0.828-0.202 1.191-0.141 0.363-0.343 0.686-0.606 0.949s-0.565 0.485-0.929 0.626c-0.363 0.141-0.747 0.222-1.171 0.222zM46.26 11.085c-0.141-0.384-0.363-0.727-0.646-1.030-0.283-0.283-0.606-0.525-0.989-0.666-0.384-0.161-0.808-0.242-1.252-0.242s-0.868 0.081-1.252 0.242c-0.384 0.162-0.707 0.384-0.989 0.666s-0.484 0.626-0.646 1.030c-0.162 0.384-0.222 0.807-0.222 1.252s0.081 0.868 0.222 1.252c0.162 0.384 0.363 0.727 0.646 1.030 0.283 0.283 0.606 0.525 0.989 0.686s0.787 0.242 1.252 0.242c0.444 0 0.868-0.081 1.252-0.242s0.707-0.384 0.989-0.686c0.283-0.283 0.484-0.626 0.646-1.030 0.141-0.384 0.222-0.808 0.222-1.252s-0.061-0.868-0.222-1.252zM43.393 15.345c-0.424 0-0.808-0.081-1.171-0.222-0.363-0.161-0.666-0.363-0.908-0.626-0.262-0.262-0.464-0.585-0.606-0.949s-0.222-0.767-0.222-1.191c0-0.424 0.081-0.828 0.222-1.191s0.343-0.686 0.606-0.949c0.262-0.262 0.565-0.485 0.908-0.626 0.363-0.141 0.747-0.222 1.171-0.222s0.807 0.081 1.171 0.222 0.666 0.363 0.929 0.626c0.262 0.262 0.464 0.585 0.606 0.949s0.202 0.767 0.202 1.191c0 0.424-0.081 0.828-0.202 1.191-0.141 0.363-0.343 0.686-0.606 0.949s-0.565 0.485-0.929 0.626c-0.363 0.141-0.747 0.222-1.171 0.222zM46.26 11.085c-0.141-0.384-0.363-0.727-0.646-1.030-0.283-0.283-0.606-0.525-0.989-0.666-0.384-0.161-0.808-0.242-1.252-0.242s-0.868 0.081-1.252 0.242c-0.384 0.162-0.707 0.384-0.989 0.666s-0.484 0.626-0.646 1.030c-0.162 0.384-0.222 0.807-0.222 1.252s0.081 0.868 0.222 1.252c0.162 0.384 0.363 0.727 0.646 1.030 0.283 0.283 0.606 0.525 0.989 0.686s0.787 0.242 1.252 0.242c0.444 0 0.868-0.081 1.252-0.242s0.707-0.384 0.989-0.686c0.283-0.283 0.484-0.626 0.646-1.030 0.141-0.384 0.222-0.808 0.222-1.252s-0.061-0.868-0.222-1.252zM43.393 15.345c-0.424 0-0.808-0.081-1.171-0.222-0.363-0.161-0.666-0.363-0.908-0.626-0.262-0.262-0.464-0.585-0.606-0.949s-0.222-0.767-0.222-1.191c0-0.424 0.081-0.828 0.222-1.191s0.343-0.686 0.606-0.949c0.262-0.262 0.565-0.485 0.908-0.626 0.363-0.141 0.747-0.222 1.171-0.222s0.807 0.081 1.171 0.222 0.666 0.363 0.929 0.626c0.262 0.262 0.464 0.585 0.606 0.949s0.202 0.767 0.202 1.191c0 0.424-0.081 0.828-0.202 1.191-0.141 0.363-0.343 0.686-0.606 0.949s-0.565 0.485-0.929 0.626c-0.363 0.141-0.747 0.222-1.171 0.222zM46.26 11.085c-0.141-0.384-0.363-0.727-0.646-1.030-0.283-0.283-0.606-0.525-0.989-0.666-0.384-0.161-0.808-0.242-1.252-0.242s-0.868 0.081-1.252 0.242c-0.384 0.162-0.707 0.384-0.989 0.666s-0.484 0.626-0.646 1.030c-0.162 0.384-0.222 0.807-0.222 1.252s0.081 0.868 0.222 1.252c0.162 0.384 0.363 0.727 0.646 1.030 0.283 0.283 0.606 0.525 0.989 0.686s0.787 0.242 1.252 0.242c0.444 0 0.868-0.081 1.252-0.242s0.707-0.384 0.989-0.686c0.283-0.283 0.484-0.626 0.646-1.030 0.141-0.384 0.222-0.808 0.222-1.252s-0.061-0.868-0.222-1.252zM43.393 15.345c-0.424 0-0.808-0.081-1.171-0.222-0.363-0.161-0.666-0.363-0.908-0.626-0.262-0.262-0.464-0.585-0.606-0.949s-0.222-0.767-0.222-1.191c0-0.424 0.081-0.828 0.222-1.191s0.343-0.686 0.606-0.949c0.262-0.262 0.565-0.485 0.908-0.626 0.363-0.141 0.747-0.222 1.171-0.222s0.807 0.081 1.171 0.222 0.666 0.363 0.929 0.626c0.262 0.262 0.464 0.585 0.606 0.949s0.202 0.767 0.202 1.191c0 0.424-0.081 0.828-0.202 1.191-0.141 0.363-0.343 0.686-0.606 0.949s-0.565 0.485-0.929 0.626c-0.363 0.141-0.747 0.222-1.171 0.222zM46.26 11.085c-0.141-0.384-0.363-0.727-0.646-1.030-0.283-0.283-0.606-0.525-0.989-0.666-0.384-0.161-0.808-0.242-1.252-0.242s-0.868 0.081-1.252 0.242c-0.384 0.162-0.707 0.384-0.989 0.666s-0.484 0.626-0.646 1.030c-0.162 0.384-0.222 0.807-0.222 1.252s0.081 0.868 0.222 1.252c0.162 0.384 0.363 0.727 0.646 1.030 0.283 0.283 0.606 0.525 0.989 0.686s0.787 0.242 1.252 0.242c0.444 0 0.868-0.081 1.252-0.242s0.707-0.384 0.989-0.686c0.283-0.283 0.484-0.626 0.646-1.030 0.141-0.384 0.222-0.808 0.222-1.252s-0.061-0.868-0.222-1.252zM43.393 15.345c-0.424 0-0.808-0.081-1.171-0.222-0.363-0.161-0.666-0.363-0.908-0.626-0.262-0.262-0.464-0.585-0.606-0.949s-0.222-0.767-0.222-1.191c0-0.424 0.081-0.828 0.222-1.191s0.343-0.686 0.606-0.949c0.262-0.262 0.565-0.485 0.908-0.626 0.363-0.141 0.747-0.222 1.171-0.222s0.807 0.081 1.171 0.222 0.666 0.363 0.929 0.626c0.262 0.262 0.464 0.585 0.606 0.949s0.202 0.767 0.202 1.191c0 0.424-0.081 0.828-0.202 1.191-0.141 0.363-0.343 0.686-0.606 0.949s-0.565 0.485-0.929 0.626c-0.363 0.141-0.747 0.222-1.171 0.222zM46.26 11.085c-0.141-0.384-0.363-0.727-0.646-1.030-0.283-0.283-0.606-0.525-0.989-0.666-0.384-0.161-0.808-0.242-1.252-0.242s-0.868 0.081-1.252 0.242c-0.384 0.162-0.707 0.384-0.989 0.666s-0.484 0.626-0.646 1.030c-0.162 0.384-0.222 0.807-0.222 1.252s0.081 0.868 0.222 1.252c0.162 0.384 0.363 0.727 0.646 1.030 0.283 0.283 0.606 0.525 0.989 0.686s0.787 0.242 1.252 0.242c0.444 0 0.868-0.081 1.252-0.242s0.707-0.384 0.989-0.686c0.283-0.283 0.484-0.626 0.646-1.030 0.141-0.384 0.222-0.808 0.222-1.252s-0.061-0.868-0.222-1.252zM43.393 15.345c-0.424 0-0.808-0.081-1.171-0.222-0.363-0.161-0.666-0.363-0.908-0.626-0.262-0.262-0.464-0.585-0.606-0.949s-0.222-0.767-0.222-1.191c0-0.424 0.081-0.828 0.222-1.191s0.343-0.686 0.606-0.949c0.262-0.262 0.565-0.485 0.908-0.626 0.363-0.141 0.747-0.222 1.171-0.222s0.807 0.081 1.171 0.222 0.666 0.363 0.929 0.626c0.262 0.262 0.464 0.585 0.606 0.949s0.202 0.767 0.202 1.191c0 0.424-0.081 0.828-0.202 1.191-0.141 0.363-0.343 0.686-0.606 0.949s-0.565 0.485-0.929 0.626c-0.363 0.141-0.747 0.222-1.171 0.222zM46.26 11.085c-0.141-0.384-0.363-0.727-0.646-1.030-0.283-0.283-0.606-0.525-0.989-0.666-0.384-0.161-0.808-0.242-1.252-0.242s-0.868 0.081-1.252 0.242c-0.384 0.162-0.707 0.384-0.989 0.666s-0.484 0.626-0.646 1.030c-0.162 0.384-0.222 0.807-0.222 1.252s0.081 0.868 0.222 1.252c0.162 0.384 0.363 0.727 0.646 1.030 0.283 0.283 0.606 0.525 0.989 0.686s0.787 0.242 1.252 0.242c0.444 0 0.868-0.081 1.252-0.242s0.707-0.384 0.989-0.686c0.283-0.283 0.484-0.626 0.646-1.030 0.141-0.384 0.222-0.808 0.222-1.252s-0.061-0.868-0.222-1.252zM43.393 15.345c-0.424 0-0.808-0.081-1.171-0.222-0.363-0.161-0.666-0.363-0.908-0.626-0.262-0.262-0.464-0.585-0.606-0.949s-0.222-0.767-0.222-1.191c0-0.424 0.081-0.828 0.222-1.191s0.343-0.686 0.606-0.949c0.262-0.262 0.565-0.485 0.908-0.626 0.363-0.141 0.747-0.222 1.171-0.222s0.807 0.081 1.171 0.222 0.666 0.363 0.929 0.626c0.262 0.262 0.464 0.585 0.606 0.949s0.202 0.767 0.202 1.191c0 0.424-0.081 0.828-0.202 1.191-0.141 0.363-0.343 0.686-0.606 0.949s-0.565 0.485-0.929 0.626c-0.363 0.141-0.747 0.222-1.171 0.222zM47.209 10.681c-0.202-0.505-0.484-0.949-0.848-1.312s-0.808-0.666-1.312-0.868c-0.505-0.202-1.050-0.303-1.655-0.303s-1.171 0.101-1.676 0.303c-0.505 0.202-0.949 0.485-1.312 0.868-0.363 0.363-0.646 0.808-0.848 1.312s-0.303 1.070-0.303 1.676c0 0.606 0.101 1.171 0.303 1.676s0.484 0.949 0.848 1.312c0.363 0.363 0.808 0.666 1.312 0.868s1.070 0.303 1.676 0.303c0.606 0 1.171-0.101 1.655-0.303 0.505-0.202 0.929-0.485 1.312-0.868 0.363-0.363 0.646-0.808 0.848-1.312s0.303-1.070 0.303-1.676c0-0.626-0.101-1.171-0.303-1.676zM43.393 16.294c-0.586 0-1.11-0.101-1.595-0.283-0.484-0.202-0.888-0.464-1.231-0.807s-0.606-0.767-0.807-1.252c-0.182-0.505-0.283-1.030-0.283-1.615s0.101-1.11 0.283-1.595c0.182-0.485 0.464-0.888 0.807-1.252 0.343-0.343 0.767-0.626 1.231-0.807 0.484-0.202 1.009-0.283 1.595-0.283s1.11 0.101 1.575 0.283c0.484 0.182 0.888 0.464 1.231 0.807s0.626 0.767 0.808 1.252c0.182 0.485 0.283 1.009 0.283 1.595s-0.101 1.11-0.283 1.595c-0.182 0.485-0.464 0.909-0.808 1.252s-0.767 0.626-1.231 0.808c-0.464 0.202-1.009 0.303-1.575 0.303zM46.502 12.337c0-0.444-0.081-0.868-0.222-1.252s-0.363-0.727-0.646-1.030c-0.283-0.283-0.606-0.525-0.989-0.666-0.384-0.161-0.808-0.242-1.252-0.242s-0.868 0.081-1.252 0.242c-0.384 0.162-0.707 0.384-0.989 0.666s-0.484 0.626-0.646 1.030c-0.162 0.384-0.222 0.807-0.222 1.252s0.081 0.868 0.222 1.252c0.161 0.384 0.363 0.727 0.646 1.030 0.283 0.283 0.606 0.525 0.989 0.686s0.787 0.242 1.252 0.242c0.444 0 0.868-0.081 1.252-0.242s0.707-0.384 0.989-0.686c0.283-0.283 0.484-0.626 0.646-1.030 0.141-0.384 0.222-0.808 0.222-1.252zM43.393 15.345c-0.424 0-0.808-0.081-1.171-0.222-0.363-0.161-0.666-0.363-0.908-0.626-0.262-0.262-0.464-0.585-0.606-0.949s-0.222-0.767-0.222-1.191c0-0.424 0.081-0.828 0.222-1.191s0.343-0.686 0.606-0.949c0.262-0.262 0.565-0.485 0.908-0.626 0.363-0.141 0.747-0.222 1.171-0.222s0.807 0.081 1.171 0.222 0.666 0.363 0.929 0.626c0.262 0.262 0.464 0.585 0.606 0.949s0.202 0.767 0.202 1.191c0 0.424-0.081 0.828-0.202 1.191-0.141 0.363-0.343 0.686-0.606 0.949s-0.565 0.485-0.929 0.626c-0.363 0.141-0.747 0.222-1.171 0.222zM46.26 11.085c-0.141-0.384-0.363-0.727-0.646-1.030-0.283-0.283-0.606-0.525-0.989-0.666-0.384-0.161-0.808-0.242-1.252-0.242s-0.868 0.081-1.252 0.242c-0.384 0.162-0.707 0.384-0.989 0.666s-0.484 0.626-0.646 1.030c-0.162 0.384-0.222 0.807-0.222 1.252s0.081 0.868 0.222 1.252c0.162 0.384 0.363 0.727 0.646 1.030 0.283 0.283 0.606 0.525 0.989 0.686s0.787 0.242 1.252 0.242c0.444 0 0.868-0.081 1.252-0.242s0.707-0.384 0.989-0.686c0.283-0.283 0.484-0.626 0.646-1.030 0.141-0.384 0.222-0.808 0.222-1.252s-0.061-0.868-0.222-1.252zM43.393 15.345c-0.424 0-0.808-0.081-1.171-0.222-0.363-0.161-0.666-0.363-0.908-0.626-0.262-0.262-0.464-0.585-0.606-0.949s-0.222-0.767-0.222-1.191c0-0.424 0.081-0.828 0.222-1.191s0.343-0.686 0.606-0.949c0.262-0.262 0.565-0.485 0.908-0.626 0.363-0.141 0.747-0.222 1.171-0.222s0.807 0.081 1.171 0.222 0.666 0.363 0.929 0.626c0.262 0.262 0.464 0.585 0.606 0.949s0.202 0.767 0.202 1.191c0 0.424-0.081 0.828-0.202 1.191-0.141 0.363-0.343 0.686-0.606 0.949s-0.565 0.485-0.929 0.626c-0.363 0.141-0.747 0.222-1.171 0.222zM46.26 11.085c-0.141-0.384-0.363-0.727-0.646-1.030-0.283-0.283-0.606-0.525-0.989-0.666-0.384-0.161-0.808-0.242-1.252-0.242s-0.868 0.081-1.252 0.242c-0.384 0.162-0.707 0.384-0.989 0.666s-0.484 0.626-0.646 1.030c-0.162 0.384-0.222 0.807-0.222 1.252s0.081 0.868 0.222 1.252c0.162 0.384 0.363 0.727 0.646 1.030 0.283 0.283 0.606 0.525 0.989 0.686s0.787 0.242 1.252 0.242c0.444 0 0.868-0.081 1.252-0.242s0.707-0.384 0.989-0.686c0.283-0.283 0.484-0.626 0.646-1.030 0.141-0.384 0.222-0.808 0.222-1.252s-0.061-0.868-0.222-1.252zM43.393 15.345c-0.424 0-0.808-0.081-1.171-0.222-0.363-0.161-0.666-0.363-0.908-0.626-0.262-0.262-0.464-0.585-0.606-0.949s-0.222-0.767-0.222-1.191c0-0.424 0.081-0.828 0.222-1.191s0.343-0.686 0.606-0.949c0.262-0.262 0.565-0.485 0.908-0.626 0.363-0.141 0.747-0.222 1.171-0.222s0.807 0.081 1.171 0.222 0.666 0.363 0.929 0.626c0.262 0.262 0.464 0.585 0.606 0.949s0.202 0.767 0.202 1.191c0 0.424-0.081 0.828-0.202 1.191-0.141 0.363-0.343 0.686-0.606 0.949s-0.565 0.485-0.929 0.626c-0.363 0.141-0.747 0.222-1.171 0.222zM46.26 11.085c-0.141-0.384-0.363-0.727-0.646-1.030-0.283-0.283-0.606-0.525-0.989-0.666-0.384-0.161-0.808-0.242-1.252-0.242s-0.868 0.081-1.252 0.242c-0.384 0.162-0.707 0.384-0.989 0.666s-0.484 0.626-0.646 1.030c-0.162 0.384-0.222 0.807-0.222 1.252s0.081 0.868 0.222 1.252c0.162 0.384 0.363 0.727 0.646 1.030 0.283 0.283 0.606 0.525 0.989 0.686s0.787 0.242 1.252 0.242c0.444 0 0.868-0.081 1.252-0.242s0.707-0.384 0.989-0.686c0.283-0.283 0.484-0.626 0.646-1.030 0.141-0.384 0.222-0.808 0.222-1.252s-0.061-0.868-0.222-1.252zM43.393 15.345c-0.424 0-0.808-0.081-1.171-0.222-0.363-0.161-0.666-0.363-0.908-0.626-0.262-0.262-0.464-0.585-0.606-0.949s-0.222-0.767-0.222-1.191c0-0.424 0.081-0.828 0.222-1.191s0.343-0.686 0.606-0.949c0.262-0.262 0.565-0.485 0.908-0.626 0.363-0.141 0.747-0.222 1.171-0.222s0.807 0.081 1.171 0.222 0.666 0.363 0.929 0.626c0.262 0.262 0.464 0.585 0.606 0.949s0.202 0.767 0.202 1.191c0 0.424-0.081 0.828-0.202 1.191-0.141 0.363-0.343 0.686-0.606 0.949s-0.565 0.485-0.929 0.626c-0.363 0.141-0.747 0.222-1.171 0.222zM46.26 11.085c-0.141-0.384-0.363-0.727-0.646-1.030-0.283-0.283-0.606-0.525-0.989-0.666-0.384-0.161-0.808-0.242-1.252-0.242s-0.868 0.081-1.252 0.242c-0.384 0.162-0.707 0.384-0.989 0.666s-0.484 0.626-0.646 1.030c-0.162 0.384-0.222 0.807-0.222 1.252s0.081 0.868 0.222 1.252c0.162 0.384 0.363 0.727 0.646 1.030 0.283 0.283 0.606 0.525 0.989 0.686s0.787 0.242 1.252 0.242c0.444 0 0.868-0.081 1.252-0.242s0.707-0.384 0.989-0.686c0.283-0.283 0.484-0.626 0.646-1.030 0.141-0.384 0.222-0.808 0.222-1.252s-0.061-0.868-0.222-1.252zM43.393 15.345c-0.424 0-0.808-0.081-1.171-0.222-0.363-0.161-0.666-0.363-0.908-0.626-0.262-0.262-0.464-0.585-0.606-0.949s-0.222-0.767-0.222-1.191c0-0.424 0.081-0.828 0.222-1.191s0.343-0.686 0.606-0.949c0.262-0.262 0.565-0.485 0.908-0.626 0.363-0.141 0.747-0.222 1.171-0.222s0.807 0.081 1.171 0.222 0.666 0.363 0.929 0.626c0.262 0.262 0.464 0.585 0.606 0.949s0.202 0.767 0.202 1.191c0 0.424-0.081 0.828-0.202 1.191-0.141 0.363-0.343 0.686-0.606 0.949s-0.565 0.485-0.929 0.626c-0.363 0.141-0.747 0.222-1.171 0.222zM46.26 11.085c-0.141-0.384-0.363-0.727-0.646-1.030-0.283-0.283-0.606-0.525-0.989-0.666-0.384-0.161-0.808-0.242-1.252-0.242s-0.868 0.081-1.252 0.242c-0.384 0.162-0.707 0.384-0.989 0.666s-0.484 0.626-0.646 1.030c-0.162 0.384-0.222 0.807-0.222 1.252s0.081 0.868 0.222 1.252c0.162 0.384 0.363 0.727 0.646 1.030 0.283 0.283 0.606 0.525 0.989 0.686s0.787 0.242 1.252 0.242c0.444 0 0.868-0.081 1.252-0.242s0.707-0.384 0.989-0.686c0.283-0.283 0.484-0.626 0.646-1.030 0.141-0.384 0.222-0.808 0.222-1.252s-0.061-0.868-0.222-1.252zM43.393 15.345c-0.424 0-0.808-0.081-1.171-0.222-0.363-0.161-0.666-0.363-0.908-0.626-0.262-0.262-0.464-0.585-0.606-0.949s-0.222-0.767-0.222-1.191c0-0.424 0.081-0.828 0.222-1.191s0.343-0.686 0.606-0.949c0.262-0.262 0.565-0.485 0.908-0.626 0.363-0.141 0.747-0.222 1.171-0.222s0.807 0.081 1.171 0.222 0.666 0.363 0.929 0.626c0.262 0.262 0.464 0.585 0.606 0.949s0.202 0.767 0.202 1.191c0 0.424-0.081 0.828-0.202 1.191-0.141 0.363-0.343 0.686-0.606 0.949s-0.565 0.485-0.929 0.626c-0.363 0.141-0.747 0.222-1.171 0.222zM46.26 11.085c-0.141-0.384-0.363-0.727-0.646-1.030-0.283-0.283-0.606-0.525-0.989-0.666-0.384-0.161-0.808-0.242-1.252-0.242s-0.868 0.081-1.252 0.242c-0.384 0.162-0.707 0.384-0.989 0.666s-0.484 0.626-0.646 1.030c-0.162 0.384-0.222 0.807-0.222 1.252s0.081 0.868 0.222 1.252c0.162 0.384 0.363 0.727 0.646 1.030 0.283 0.283 0.606 0.525 0.989 0.686s0.787 0.242 1.252 0.242c0.444 0 0.868-0.081 1.252-0.242s0.707-0.384 0.989-0.686c0.283-0.283 0.484-0.626 0.646-1.030 0.141-0.384 0.222-0.808 0.222-1.252s-0.061-0.868-0.222-1.252zM43.393 15.345c-0.424 0-0.808-0.081-1.171-0.222-0.363-0.161-0.666-0.363-0.908-0.626-0.262-0.262-0.464-0.585-0.606-0.949s-0.222-0.767-0.222-1.191c0-0.424 0.081-0.828 0.222-1.191s0.343-0.686 0.606-0.949c0.262-0.262 0.565-0.485 0.908-0.626 0.363-0.141 0.747-0.222 1.171-0.222s0.807 0.081 1.171 0.222 0.666 0.363 0.929 0.626c0.262 0.262 0.464 0.585 0.606 0.949s0.202 0.767 0.202 1.191c0 0.424-0.081 0.828-0.202 1.191-0.141 0.363-0.343 0.686-0.606 0.949s-0.565 0.485-0.929 0.626c-0.363 0.141-0.747 0.222-1.171 0.222zM46.26 11.085c-0.141-0.384-0.363-0.727-0.646-1.030-0.283-0.283-0.606-0.525-0.989-0.666-0.384-0.161-0.808-0.242-1.252-0.242s-0.868 0.081-1.252 0.242c-0.384 0.162-0.707 0.384-0.989 0.666s-0.484 0.626-0.646 1.030c-0.162 0.384-0.222 0.807-0.222 1.252s0.081 0.868 0.222 1.252c0.162 0.384 0.363 0.727 0.646 1.030 0.283 0.283 0.606 0.525 0.989 0.686s0.787 0.242 1.252 0.242c0.444 0 0.868-0.081 1.252-0.242s0.707-0.384 0.989-0.686c0.283-0.283 0.484-0.626 0.646-1.030 0.141-0.384 0.222-0.808 0.222-1.252s-0.061-0.868-0.222-1.252zM43.393 15.345c-0.424 0-0.808-0.081-1.171-0.222-0.363-0.161-0.666-0.363-0.908-0.626-0.262-0.262-0.464-0.585-0.606-0.949s-0.222-0.767-0.222-1.191c0-0.424 0.081-0.828 0.222-1.191s0.343-0.686 0.606-0.949c0.262-0.262 0.565-0.485 0.908-0.626 0.363-0.141 0.747-0.222 1.171-0.222s0.807 0.081 1.171 0.222 0.666 0.363 0.929 0.626c0.262 0.262 0.464 0.585 0.606 0.949s0.202 0.767 0.202 1.191c0 0.424-0.081 0.828-0.202 1.191-0.141 0.363-0.343 0.686-0.606 0.949s-0.565 0.485-0.929 0.626c-0.363 0.141-0.747 0.222-1.171 0.222zM46.26 11.085c-0.141-0.384-0.363-0.727-0.646-1.030-0.283-0.283-0.606-0.525-0.989-0.666-0.384-0.161-0.808-0.242-1.252-0.242s-0.868 0.081-1.252 0.242c-0.384 0.162-0.707 0.384-0.989 0.666s-0.484 0.626-0.646 1.030c-0.162 0.384-0.222 0.807-0.222 1.252s0.081 0.868 0.222 1.252c0.162 0.384 0.363 0.727 0.646 1.030 0.283 0.283 0.606 0.525 0.989 0.686s0.787 0.242 1.252 0.242c0.444 0 0.868-0.081 1.252-0.242s0.707-0.384 0.989-0.686c0.283-0.283 0.484-0.626 0.646-1.030 0.141-0.384 0.222-0.808 0.222-1.252s-0.061-0.868-0.222-1.252zM43.393 15.345c-0.424 0-0.808-0.081-1.171-0.222-0.363-0.161-0.666-0.363-0.908-0.626-0.262-0.262-0.464-0.585-0.606-0.949s-0.222-0.767-0.222-1.191c0-0.424 0.081-0.828 0.222-1.191s0.343-0.686 0.606-0.949c0.262-0.262 0.565-0.485 0.908-0.626 0.363-0.141 0.747-0.222 1.171-0.222s0.807 0.081 1.171 0.222 0.666 0.363 0.929 0.626c0.262 0.262 0.464 0.585 0.606 0.949s0.202 0.767 0.202 1.191c0 0.424-0.081 0.828-0.202 1.191-0.141 0.363-0.343 0.686-0.606 0.949s-0.565 0.485-0.929 0.626c-0.363 0.141-0.747 0.222-1.171 0.222zM46.26 11.085c-0.141-0.384-0.363-0.727-0.646-1.030-0.283-0.283-0.606-0.525-0.989-0.666-0.384-0.161-0.808-0.242-1.252-0.242s-0.868 0.081-1.252 0.242c-0.384 0.162-0.707 0.384-0.989 0.666s-0.484 0.626-0.646 1.030c-0.162 0.384-0.222 0.807-0.222 1.252s0.081 0.868 0.222 1.252c0.162 0.384 0.363 0.727 0.646 1.030 0.283 0.283 0.606 0.525 0.989 0.686s0.787 0.242 1.252 0.242c0.444 0 0.868-0.081 1.252-0.242s0.707-0.384 0.989-0.686c0.283-0.283 0.484-0.626 0.646-1.030 0.141-0.384 0.222-0.808 0.222-1.252s-0.061-0.868-0.222-1.252zM43.393 15.345c-0.424 0-0.808-0.081-1.171-0.222-0.363-0.161-0.666-0.363-0.908-0.626-0.262-0.262-0.464-0.585-0.606-0.949s-0.222-0.767-0.222-1.191c0-0.424 0.081-0.828 0.222-1.191s0.343-0.686 0.606-0.949c0.262-0.262 0.565-0.485 0.908-0.626 0.363-0.141 0.747-0.222 1.171-0.222s0.807 0.081 1.171 0.222 0.666 0.363 0.929 0.626c0.262 0.262 0.464 0.585 0.606 0.949s0.202 0.767 0.202 1.191c0 0.424-0.081 0.828-0.202 1.191-0.141 0.363-0.343 0.686-0.606 0.949s-0.565 0.485-0.929 0.626c-0.363 0.141-0.747 0.222-1.171 0.222zM46.26 11.085c-0.141-0.384-0.363-0.727-0.646-1.030-0.283-0.283-0.606-0.525-0.989-0.666-0.384-0.161-0.808-0.242-1.252-0.242s-0.868 0.081-1.252 0.242c-0.384 0.162-0.707 0.384-0.989 0.666s-0.484 0.626-0.646 1.030c-0.162 0.384-0.222 0.807-0.222 1.252s0.081 0.868 0.222 1.252c0.162 0.384 0.363 0.727 0.646 1.030 0.283 0.283 0.606 0.525 0.989 0.686s0.787 0.242 1.252 0.242c0.444 0 0.868-0.081 1.252-0.242s0.707-0.384 0.989-0.686c0.283-0.283 0.484-0.626 0.646-1.030 0.141-0.384 0.222-0.808 0.222-1.252s-0.061-0.868-0.222-1.252zM43.393 15.345c-0.424 0-0.808-0.081-1.171-0.222-0.363-0.161-0.666-0.363-0.908-0.626-0.262-0.262-0.464-0.585-0.606-0.949s-0.222-0.767-0.222-1.191c0-0.424 0.081-0.828 0.222-1.191s0.343-0.686 0.606-0.949c0.262-0.262 0.565-0.485 0.908-0.626 0.363-0.141 0.747-0.222 1.171-0.222s0.807 0.081 1.171 0.222 0.666 0.363 0.929 0.626c0.262 0.262 0.464 0.585 0.606 0.949s0.202 0.767 0.202 1.191c0 0.424-0.081 0.828-0.202 1.191-0.141 0.363-0.343 0.686-0.606 0.949s-0.565 0.485-0.929 0.626c-0.363 0.141-0.747 0.222-1.171 0.222zM46.26 11.085c-0.141-0.384-0.363-0.727-0.646-1.030-0.283-0.283-0.606-0.525-0.989-0.666-0.384-0.161-0.808-0.242-1.252-0.242s-0.868 0.081-1.252 0.242c-0.384 0.162-0.707 0.384-0.989 0.666s-0.484 0.626-0.646 1.030c-0.162 0.384-0.222 0.807-0.222 1.252s0.081 0.868 0.222 1.252c0.162 0.384 0.363 0.727 0.646 1.030 0.283 0.283 0.606 0.525 0.989 0.686s0.787 0.242 1.252 0.242c0.444 0 0.868-0.081 1.252-0.242s0.707-0.384 0.989-0.686c0.283-0.283 0.484-0.626 0.646-1.030 0.141-0.384 0.222-0.808 0.222-1.252s-0.061-0.868-0.222-1.252zM43.393 15.345c-0.424 0-0.808-0.081-1.171-0.222-0.363-0.161-0.666-0.363-0.908-0.626-0.262-0.262-0.464-0.585-0.606-0.949s-0.222-0.767-0.222-1.191c0-0.424 0.081-0.828 0.222-1.191s0.343-0.686 0.606-0.949c0.262-0.262 0.565-0.485 0.908-0.626 0.363-0.141 0.747-0.222 1.171-0.222s0.807 0.081 1.171 0.222 0.666 0.363 0.929 0.626c0.262 0.262 0.464 0.585 0.606 0.949s0.202 0.767 0.202 1.191c0 0.424-0.081 0.828-0.202 1.191-0.141 0.363-0.343 0.686-0.606 0.949s-0.565 0.485-0.929 0.626c-0.363 0.141-0.747 0.222-1.171 0.222zM46.26 11.085c-0.141-0.384-0.363-0.727-0.646-1.030-0.283-0.283-0.606-0.525-0.989-0.666-0.384-0.161-0.808-0.242-1.252-0.242s-0.868 0.081-1.252 0.242c-0.384 0.162-0.707 0.384-0.989 0.666s-0.484 0.626-0.646 1.030c-0.162 0.384-0.222 0.807-0.222 1.252s0.081 0.868 0.222 1.252c0.162 0.384 0.363 0.727 0.646 1.030 0.283 0.283 0.606 0.525 0.989 0.686s0.787 0.242 1.252 0.242c0.444 0 0.868-0.081 1.252-0.242s0.707-0.384 0.989-0.686c0.283-0.283 0.484-0.626 0.646-1.030 0.141-0.384 0.222-0.808 0.222-1.252s-0.061-0.868-0.222-1.252zM43.393 15.345c-0.424 0-0.808-0.081-1.171-0.222-0.363-0.161-0.666-0.363-0.908-0.626-0.262-0.262-0.464-0.585-0.606-0.949s-0.222-0.767-0.222-1.191c0-0.424 0.081-0.828 0.222-1.191s0.343-0.686 0.606-0.949c0.262-0.262 0.565-0.485 0.908-0.626 0.363-0.141 0.747-0.222 1.171-0.222s0.807 0.081 1.171 0.222 0.666 0.363 0.929 0.626c0.262 0.262 0.464 0.585 0.606 0.949s0.202 0.767 0.202 1.191c0 0.424-0.081 0.828-0.202 1.191-0.141 0.363-0.343 0.686-0.606 0.949s-0.565 0.485-0.929 0.626c-0.363 0.141-0.747 0.222-1.171 0.222z"></path>
<path fill="#fff" d="M56.798 8.541c-0.101-0.101-0.222-0.141-0.364-0.141-0.201 0-0.363 0.101-0.464 0.283l-2.927 6.016-3.008-6.016c-0.101-0.182-0.262-0.283-0.464-0.283-0.141 0-0.262 0.040-0.363 0.141s-0.161 0.222-0.161 0.384v6.844c0 0.141 0.061 0.283 0.161 0.384s0.222 0.162 0.363 0.162c0.141 0 0.283-0.061 0.384-0.162s0.162-0.222 0.162-0.384v-4.926l2.423 4.845c0.101 0.202 0.262 0.323 0.485 0.323 0.181 0 0.343-0.081 0.464-0.262l2.443-4.986v5.027c0 0.141 0.061 0.283 0.162 0.384s0.222 0.161 0.383 0.161c0.142 0 0.263-0.061 0.364-0.161s0.162-0.222 0.162-0.384v-6.844c-0.040-0.182-0.101-0.303-0.202-0.404z"></path>
<path fill="#fff" d="M56.879 8.481c-0.121-0.121-0.262-0.182-0.444-0.182-0.242 0-0.424 0.121-0.565 0.343l-2.827 5.834-2.907-5.834c-0.121-0.222-0.303-0.343-0.545-0.343-0.182 0-0.323 0.061-0.444 0.182s-0.182 0.262-0.182 0.444v6.844c0 0.182 0.061 0.323 0.182 0.444s0.262 0.182 0.444 0.182c0.182 0 0.323-0.061 0.444-0.182s0.182-0.262 0.182-0.444v-4.502l2.221 4.462c0.121 0.242 0.323 0.363 0.586 0.363 0.222 0 0.403-0.101 0.545-0.323l2.261-4.603v4.603c0 0.182 0.060 0.323 0.181 0.444s0.262 0.182 0.444 0.182c0.162 0 0.323-0.061 0.444-0.182s0.182-0.262 0.182-0.444v-6.844c-0.020-0.182-0.081-0.343-0.202-0.444zM56.859 15.769c0 0.121-0.040 0.222-0.121 0.303s-0.182 0.121-0.303 0.121c-0.121 0-0.222-0.040-0.303-0.121s-0.121-0.182-0.121-0.303v-5.007l0.283-0.585-0.485 0.121v0.424l-2.423 4.946c-0.101 0.141-0.222 0.222-0.363 0.222-0.182 0-0.303-0.081-0.384-0.262l-2.402-4.825v-0.565l-0.444 0.121 0.242 0.505v4.906c0 0.121-0.040 0.222-0.121 0.303s-0.182 0.121-0.303 0.121-0.222-0.040-0.303-0.121c-0.081-0.081-0.121-0.182-0.121-0.303v-6.844c0-0.121 0.040-0.222 0.121-0.303s0.182-0.121 0.303-0.121c0.162 0 0.283 0.081 0.384 0.222l2.988 5.976-0.202 0.424h0.646l-0.222-0.424 2.907-5.956c0.081-0.162 0.201-0.242 0.383-0.242 0.121 0 0.222 0.040 0.303 0.121s0.121 0.182 0.121 0.303v6.844h-0.060z"></path>
<path fill="#fff" d="M64.066 15.325h-4.038v-2.524h2.907c0.162 0 0.283-0.040 0.383-0.141 0.101-0.081 0.142-0.202 0.142-0.343s-0.040-0.262-0.142-0.343c-0.101-0.101-0.222-0.141-0.383-0.141h-2.907v-2.463h4.038c0.162 0 0.283-0.040 0.364-0.121 0.101-0.081 0.141-0.202 0.141-0.343s-0.040-0.262-0.141-0.363c-0.101-0.101-0.222-0.141-0.364-0.141h-4.562c-0.142 0-0.263 0.040-0.364 0.141s-0.162 0.222-0.162 0.384v6.844c0 0.141 0.061 0.283 0.162 0.384s0.222 0.162 0.364 0.162h4.562c0.162 0 0.283-0.040 0.364-0.141 0.101-0.101 0.141-0.202 0.141-0.363 0-0.141-0.040-0.262-0.141-0.343-0.081-0.101-0.202-0.141-0.364-0.141z"></path>
<path fill="#fff" d="M64.066 15.224h-3.937v-2.322h2.806c0.181 0 0.323-0.061 0.444-0.161 0.121-0.121 0.182-0.262 0.182-0.424s-0.061-0.303-0.182-0.424c-0.121-0.101-0.262-0.161-0.444-0.161h-2.806v-2.261h3.937c0.181 0 0.323-0.061 0.444-0.162s0.181-0.242 0.181-0.424c0-0.182-0.061-0.323-0.181-0.424-0.121-0.121-0.263-0.162-0.444-0.162h-4.562c-0.182 0-0.323 0.061-0.444 0.182s-0.181 0.262-0.181 0.444v6.844c0 0.182 0.060 0.323 0.181 0.444s0.262 0.182 0.444 0.182h4.562c0.181 0 0.323-0.061 0.444-0.161 0.121-0.121 0.181-0.262 0.181-0.424s-0.061-0.303-0.181-0.424c-0.101-0.101-0.263-0.161-0.444-0.161zM64.066 16.193h-4.562c-0.121 0-0.222-0.040-0.303-0.121s-0.121-0.182-0.121-0.303v-6.844c0-0.121 0.040-0.222 0.121-0.303s0.182-0.121 0.303-0.121h4.562c0.121 0 0.222 0.040 0.303 0.101s0.101 0.161 0.101 0.283-0.040 0.202-0.101 0.262c-0.081 0.061-0.181 0.101-0.303 0.101h-4.139v2.665h3.008c0.121 0 0.222 0.040 0.303 0.101 0.081 0.081 0.121 0.162 0.121 0.283s-0.040 0.202-0.121 0.283c-0.081 0.081-0.181 0.101-0.303 0.101h-3.008v2.725h4.139c0.121 0 0.222 0.040 0.303 0.101s0.101 0.162 0.101 0.262c0 0.121-0.040 0.222-0.101 0.283-0.060 0.101-0.162 0.141-0.303 0.141z"></path>
<path fill="#fff" d="M71.132 8.541c-0.101-0.101-0.222-0.141-0.383-0.141h-4.179c-0.141 0-0.283 0.040-0.383 0.141s-0.162 0.222-0.162 0.384v6.844c0 0.141 0.060 0.283 0.162 0.384s0.222 0.162 0.383 0.162c0.141 0 0.262-0.061 0.364-0.162s0.162-0.222 0.162-0.384v-6.4h3.654c0.162 0 0.283-0.040 0.383-0.121s0.142-0.202 0.142-0.343c0-0.162-0.040-0.283-0.142-0.363z"></path>
<path fill="#fff" d="M71.193 8.461c-0.121-0.121-0.262-0.162-0.444-0.162h-4.179c-0.181 0-0.323 0.061-0.444 0.182s-0.181 0.262-0.181 0.444v6.844c0 0.182 0.061 0.323 0.181 0.444s0.263 0.182 0.444 0.182 0.323-0.061 0.444-0.182c0.121-0.121 0.181-0.262 0.181-0.444v-6.299h3.553c0.182 0 0.323-0.061 0.444-0.162s0.181-0.242 0.181-0.424c0-0.161-0.060-0.323-0.181-0.424zM70.748 9.268h-3.755v6.501c0 0.121-0.040 0.222-0.121 0.303s-0.181 0.121-0.303 0.121c-0.121 0-0.222-0.040-0.303-0.121s-0.121-0.182-0.121-0.303v-6.844c0-0.121 0.040-0.222 0.121-0.303s0.181-0.121 0.303-0.121h4.179c0.121 0 0.222 0.040 0.303 0.101s0.101 0.161 0.101 0.283-0.040 0.202-0.101 0.262c-0.060 0.081-0.161 0.121-0.303 0.121z"></path>
<path fill="#fff" d="M76.987 13.689h-3.957l-0.404 0.868h4.764l-0.403-0.868zM78.299 15.547l-2.846-6.803c-0.081-0.242-0.262-0.363-0.485-0.363s-0.403 0.121-0.505 0.363l-2.846 6.803c-0.081 0.182-0.060 0.363 0.040 0.505s0.242 0.242 0.444 0.242c0.101 0 0.181-0.020 0.282-0.081s0.162-0.141 0.202-0.242l0.585-1.413 0.364-0.868 1.474-3.594 1.454 3.594 0.343 0.868 0.566 1.413c0.040 0.101 0.101 0.182 0.202 0.242 0.081 0.061 0.181 0.081 0.283 0.081 0.201 0 0.343-0.081 0.444-0.222 0.061-0.162 0.061-0.323 0-0.525z"></path>
<path fill="#fff" d="M78.38 15.527l-2.846-6.803c-0.101-0.283-0.303-0.424-0.585-0.424-0.262 0-0.464 0.141-0.585 0.424l-2.846 6.783c-0.101 0.222-0.081 0.424 0.040 0.606 0.121 0.202 0.303 0.283 0.525 0.283 0.121 0 0.222-0.040 0.323-0.101s0.202-0.162 0.242-0.283l0.545-1.353h3.492l0.546 1.353c0.040 0.121 0.121 0.222 0.242 0.283 0.101 0.061 0.222 0.101 0.344 0.101 0.242 0 0.403-0.101 0.525-0.283 0.121-0.162 0.141-0.363 0.040-0.585zM77.815 16.193c-0.081 0-0.162-0.020-0.242-0.081-0.081-0.040-0.121-0.101-0.162-0.182l-0.505-1.272h0.626l-0.505-1.070h-0.566l-1.413-3.493 0.182-0.444h-0.585l0.181 0.444-1.433 3.493h-0.485l-0.505 1.070h0.545l-0.525 1.272c-0.040 0.081-0.101 0.162-0.162 0.202-0.080 0.040-0.141 0.061-0.222 0.061-0.162 0-0.262-0.061-0.343-0.202s-0.081-0.262-0.020-0.424l2.847-6.783c0.081-0.202 0.222-0.283 0.403-0.283 0.202 0 0.323 0.081 0.404 0.283l2.846 6.803c0.061 0.162 0.061 0.303-0.020 0.424-0.061 0.121-0.182 0.182-0.343 0.182zM73.292 14.457l0.283-0.666h2.786l0.262 0.666h-3.331zM72.767 14.457l0.303-0.666h0.262l-0.283 0.666h-0.282zM73.635 13.588l1.313-3.23 1.292 3.23h-2.605zM76.906 13.79l0.303 0.666h-0.383l-0.262-0.666h0.343z"></path>
<path fill="#fff" d="M82.599 13.165c-0.101-0.101-0.222-0.141-0.364-0.141h-2.261c-0.141 0-0.283 0.040-0.363 0.141-0.101 0.101-0.142 0.222-0.142 0.384 0 0.141 0.061 0.262 0.142 0.363 0.101 0.101 0.222 0.141 0.363 0.141h2.261c0.141 0 0.262-0.040 0.364-0.141s0.141-0.222 0.141-0.363c0-0.162-0.060-0.303-0.141-0.384z"></path>
<path fill="#fff" d="M82.66 13.084c-0.121-0.121-0.262-0.162-0.424-0.162h-2.261c-0.181 0-0.323 0.061-0.444 0.162-0.121 0.121-0.182 0.262-0.182 0.444s0.061 0.323 0.182 0.444c0.121 0.121 0.262 0.162 0.444 0.162h2.261c0.181 0 0.323-0.061 0.424-0.162 0.121-0.121 0.182-0.262 0.182-0.444s-0.061-0.323-0.182-0.444zM82.236 13.932h-2.261c-0.121 0-0.222-0.040-0.303-0.121s-0.121-0.162-0.121-0.283 0.040-0.222 0.121-0.303c0.081-0.081 0.181-0.121 0.303-0.121h2.261c0.121 0 0.222 0.040 0.283 0.121 0.081 0.081 0.121 0.182 0.121 0.303s-0.040 0.222-0.121 0.283c-0.081 0.101-0.162 0.121-0.283 0.121z"></path>
<path fill="#fff" d="M89.463 9.652c-0.222-0.404-0.525-0.707-0.909-0.929s-0.848-0.343-1.352-0.343h-2.019c-0.141 0-0.262 0.040-0.363 0.141s-0.162 0.222-0.162 0.384v6.844c0 0.141 0.060 0.283 0.162 0.384s0.222 0.162 0.363 0.162c0.162 0 0.283-0.061 0.383-0.162s0.142-0.222 0.142-0.384v-2.221h1.494c0.505 0 0.948-0.101 1.352-0.323 0.383-0.222 0.686-0.525 0.909-0.909s0.323-0.828 0.323-1.312c0.020-0.485-0.101-0.929-0.323-1.332zM88.029 12.377c-0.242 0.141-0.505 0.202-0.827 0.202h-1.494v-3.21h1.494c0.303 0 0.585 0.081 0.827 0.222s0.424 0.343 0.566 0.585 0.202 0.525 0.202 0.848c0 0.303-0.061 0.565-0.202 0.808-0.141 0.222-0.323 0.404-0.566 0.545z"></path>
<path fill="#fff" d="M88.676 10.116c-0.141-0.262-0.343-0.464-0.585-0.626-0.242-0.141-0.545-0.222-0.868-0.222h-1.595v3.412h1.595c0.323 0 0.626-0.081 0.868-0.222s0.444-0.343 0.585-0.585c0.141-0.242 0.222-0.545 0.222-0.868s-0.081-0.626-0.222-0.888zM87.202 12.478h-1.393v-3.008h1.393c0.282 0 0.545 0.061 0.767 0.202 0.222 0.121 0.404 0.323 0.525 0.545s0.181 0.505 0.181 0.807c0 0.283-0.061 0.545-0.181 0.767s-0.303 0.384-0.525 0.525c-0.202 0.101-0.464 0.162-0.767 0.162zM88.676 10.116c-0.141-0.262-0.343-0.464-0.585-0.626-0.242-0.141-0.545-0.222-0.868-0.222h-1.595v3.412h1.595c0.323 0 0.626-0.081 0.868-0.222s0.444-0.343 0.585-0.585c0.141-0.242 0.222-0.545 0.222-0.868s-0.081-0.626-0.222-0.888zM87.202 12.478h-1.393v-3.008h1.393c0.282 0 0.545 0.061 0.767 0.202 0.222 0.121 0.404 0.323 0.525 0.545s0.181 0.505 0.181 0.807c0 0.283-0.061 0.545-0.181 0.767s-0.303 0.384-0.525 0.525c-0.202 0.101-0.464 0.162-0.767 0.162zM88.676 10.116c-0.141-0.262-0.343-0.464-0.585-0.626-0.242-0.141-0.545-0.222-0.868-0.222h-1.595v3.412h1.595c0.323 0 0.626-0.081 0.868-0.222s0.444-0.343 0.585-0.585c0.141-0.242 0.222-0.545 0.222-0.868s-0.081-0.626-0.222-0.888zM87.202 12.478h-1.393v-3.008h1.393c0.282 0 0.545 0.061 0.767 0.202 0.222 0.121 0.404 0.323 0.525 0.545s0.181 0.505 0.181 0.807c0 0.283-0.061 0.545-0.181 0.767s-0.303 0.384-0.525 0.525c-0.202 0.101-0.464 0.162-0.767 0.162zM88.676 10.116c-0.141-0.262-0.343-0.464-0.585-0.626-0.242-0.141-0.545-0.222-0.868-0.222h-1.595v3.412h1.595c0.323 0 0.626-0.081 0.868-0.222s0.444-0.343 0.585-0.585c0.141-0.242 0.222-0.545 0.222-0.868s-0.081-0.626-0.222-0.888zM87.202 12.478h-1.393v-3.008h1.393c0.282 0 0.545 0.061 0.767 0.202 0.222 0.121 0.404 0.323 0.525 0.545s0.181 0.505 0.181 0.807c0 0.283-0.061 0.545-0.181 0.767s-0.303 0.384-0.525 0.525c-0.202 0.101-0.464 0.162-0.767 0.162zM88.676 10.116c-0.141-0.262-0.343-0.464-0.585-0.626-0.242-0.141-0.545-0.222-0.868-0.222h-1.595v3.412h1.595c0.323 0 0.626-0.081 0.868-0.222s0.444-0.343 0.585-0.585c0.141-0.242 0.222-0.545 0.222-0.868s-0.081-0.626-0.222-0.888zM87.202 12.478h-1.393v-3.008h1.393c0.282 0 0.545 0.061 0.767 0.202 0.222 0.121 0.404 0.323 0.525 0.545s0.181 0.505 0.181 0.807c0 0.283-0.061 0.545-0.181 0.767s-0.303 0.384-0.525 0.525c-0.202 0.101-0.464 0.162-0.767 0.162zM88.676 10.116c-0.141-0.262-0.343-0.464-0.585-0.626-0.242-0.141-0.545-0.222-0.868-0.222h-1.595v3.412h1.595c0.323 0 0.626-0.081 0.868-0.222s0.444-0.343 0.585-0.585c0.141-0.242 0.222-0.545 0.222-0.868s-0.081-0.626-0.222-0.888zM87.202 12.478h-1.393v-3.008h1.393c0.282 0 0.545 0.061 0.767 0.202 0.222 0.121 0.404 0.323 0.525 0.545s0.181 0.505 0.181 0.807c0 0.283-0.061 0.545-0.181 0.767s-0.303 0.384-0.525 0.525c-0.202 0.101-0.464 0.162-0.767 0.162zM88.676 10.116c-0.141-0.262-0.343-0.464-0.585-0.626-0.242-0.141-0.545-0.222-0.868-0.222h-1.595v3.412h1.595c0.323 0 0.626-0.081 0.868-0.222s0.444-0.343 0.585-0.585c0.141-0.242 0.222-0.545 0.222-0.868s-0.081-0.626-0.222-0.888zM87.202 12.478h-1.393v-3.008h1.393c0.282 0 0.545 0.061 0.767 0.202 0.222 0.121 0.404 0.323 0.525 0.545s0.181 0.505 0.181 0.807c0 0.283-0.061 0.545-0.181 0.767s-0.303 0.384-0.525 0.525c-0.202 0.101-0.464 0.162-0.767 0.162zM88.676 10.116c-0.141-0.262-0.343-0.464-0.585-0.626-0.242-0.141-0.545-0.222-0.868-0.222h-1.595v3.412h1.595c0.323 0 0.626-0.081 0.868-0.222s0.444-0.343 0.585-0.585c0.141-0.242 0.222-0.545 0.222-0.868s-0.081-0.626-0.222-0.888zM87.202 12.478h-1.393v-3.008h1.393c0.282 0 0.545 0.061 0.767 0.202 0.222 0.121 0.404 0.323 0.525 0.545s0.181 0.505 0.181 0.807c0 0.283-0.061 0.545-0.181 0.767s-0.303 0.384-0.525 0.525c-0.202 0.101-0.464 0.162-0.767 0.162zM88.676 10.116c-0.141-0.262-0.343-0.464-0.585-0.626-0.242-0.141-0.545-0.222-0.868-0.222h-1.595v3.412h1.595c0.323 0 0.626-0.081 0.868-0.222s0.444-0.343 0.585-0.585c0.141-0.242 0.222-0.545 0.222-0.868s-0.081-0.626-0.222-0.888zM87.202 12.478h-1.393v-3.008h1.393c0.282 0 0.545 0.061 0.767 0.202 0.222 0.121 0.404 0.323 0.525 0.545s0.181 0.505 0.181 0.807c0 0.283-0.061 0.545-0.181 0.767s-0.303 0.384-0.525 0.525c-0.202 0.101-0.464 0.162-0.767 0.162zM88.676 10.116c-0.141-0.262-0.343-0.464-0.585-0.626-0.242-0.141-0.545-0.222-0.868-0.222h-1.595v3.412h1.595c0.323 0 0.626-0.081 0.868-0.222s0.444-0.343 0.585-0.585c0.141-0.242 0.222-0.545 0.222-0.868s-0.081-0.626-0.222-0.888zM87.202 12.478h-1.393v-3.008h1.393c0.282 0 0.545 0.061 0.767 0.202 0.222 0.121 0.404 0.323 0.525 0.545s0.181 0.505 0.181 0.807c0 0.283-0.061 0.545-0.181 0.767s-0.303 0.384-0.525 0.525c-0.202 0.101-0.464 0.162-0.767 0.162zM88.676 10.116c-0.141-0.262-0.343-0.464-0.585-0.626-0.242-0.141-0.545-0.222-0.868-0.222h-1.595v3.412h1.595c0.323 0 0.626-0.081 0.868-0.222s0.444-0.343 0.585-0.585c0.141-0.242 0.222-0.545 0.222-0.868s-0.081-0.626-0.222-0.888zM87.202 12.478h-1.393v-3.008h1.393c0.282 0 0.545 0.061 0.767 0.202 0.222 0.121 0.404 0.323 0.525 0.545s0.181 0.505 0.181 0.807c0 0.283-0.061 0.545-0.181 0.767s-0.303 0.384-0.525 0.525c-0.202 0.101-0.464 0.162-0.767 0.162zM88.676 10.116c-0.141-0.262-0.343-0.464-0.585-0.626-0.242-0.141-0.545-0.222-0.868-0.222h-1.595v3.412h1.595c0.323 0 0.626-0.081 0.868-0.222s0.444-0.343 0.585-0.585c0.141-0.242 0.222-0.545 0.222-0.868s-0.081-0.626-0.222-0.888zM87.202 12.478h-1.393v-3.008h1.393c0.282 0 0.545 0.061 0.767 0.202 0.222 0.121 0.404 0.323 0.525 0.545s0.181 0.505 0.181 0.807c0 0.283-0.061 0.545-0.181 0.767s-0.303 0.384-0.525 0.525c-0.202 0.101-0.464 0.162-0.767 0.162zM88.676 10.116c-0.141-0.262-0.343-0.464-0.585-0.626-0.242-0.141-0.545-0.222-0.868-0.222h-1.595v3.412h1.595c0.323 0 0.626-0.081 0.868-0.222s0.444-0.343 0.585-0.585c0.141-0.242 0.222-0.545 0.222-0.868s-0.081-0.626-0.222-0.888zM87.202 12.478h-1.393v-3.008h1.393c0.282 0 0.545 0.061 0.767 0.202 0.222 0.121 0.404 0.323 0.525 0.545s0.181 0.505 0.181 0.807c0 0.283-0.061 0.545-0.181 0.767s-0.303 0.384-0.525 0.525c-0.202 0.101-0.464 0.162-0.767 0.162zM88.676 10.116c-0.141-0.262-0.343-0.464-0.585-0.626-0.242-0.141-0.545-0.222-0.868-0.222h-1.595v3.412h1.595c0.323 0 0.626-0.081 0.868-0.222s0.444-0.343 0.585-0.585c0.141-0.242 0.222-0.545 0.222-0.868s-0.081-0.626-0.222-0.888zM87.202 12.478h-1.393v-3.008h1.393c0.282 0 0.545 0.061 0.767 0.202 0.222 0.121 0.404 0.323 0.525 0.545s0.181 0.505 0.181 0.807c0 0.283-0.061 0.545-0.181 0.767s-0.303 0.384-0.525 0.525c-0.202 0.101-0.464 0.162-0.767 0.162zM89.564 9.611c-0.222-0.404-0.545-0.727-0.949-0.969-0.403-0.222-0.868-0.343-1.393-0.343h-2.019c-0.182 0-0.323 0.061-0.444 0.182s-0.181 0.262-0.181 0.444v6.844c0 0.182 0.060 0.323 0.181 0.444s0.262 0.182 0.444 0.182c0.181 0 0.343-0.061 0.444-0.182 0.121-0.121 0.182-0.262 0.182-0.444v-2.12h1.393c0.525 0 0.989-0.121 1.393-0.343s0.727-0.545 0.949-0.929c0.222-0.404 0.343-0.868 0.343-1.373 0-0.525-0.121-0.989-0.343-1.393zM87.202 13.447h-1.595v2.322c0 0.121-0.040 0.222-0.121 0.303s-0.181 0.121-0.303 0.121-0.222-0.040-0.303-0.121c-0.081-0.081-0.121-0.182-0.121-0.303v-6.844c0-0.121 0.040-0.222 0.121-0.303s0.181-0.121 0.303-0.121h2.019c0.484 0 0.929 0.101 1.292 0.323s0.666 0.505 0.868 0.888c0.202 0.384 0.323 0.807 0.323 1.312 0 0.464-0.101 0.888-0.323 1.272-0.201 0.363-0.505 0.666-0.868 0.868-0.364 0.182-0.808 0.283-1.292 0.283zM88.090 9.49c-0.242-0.141-0.545-0.222-0.868-0.222h-1.595v3.412h1.595c0.323 0 0.626-0.081 0.868-0.222s0.444-0.343 0.585-0.585c0.141-0.242 0.222-0.545 0.222-0.868 0-0.343-0.081-0.646-0.222-0.908-0.141-0.242-0.343-0.444-0.585-0.606zM87.202 12.478h-1.393v-3.008h1.393c0.282 0 0.545 0.061 0.767 0.202 0.222 0.121 0.404 0.323 0.525 0.545s0.181 0.505 0.181 0.807c0 0.283-0.061 0.545-0.181 0.767s-0.303 0.384-0.525 0.525c-0.202 0.101-0.464 0.162-0.767 0.162zM88.676 10.116c-0.141-0.262-0.343-0.464-0.585-0.626-0.242-0.141-0.545-0.222-0.868-0.222h-1.595v3.412h1.595c0.323 0 0.626-0.081 0.868-0.222s0.444-0.343 0.585-0.585c0.141-0.242 0.222-0.545 0.222-0.868s-0.081-0.626-0.222-0.888zM87.202 12.478h-1.393v-3.008h1.393c0.282 0 0.545 0.061 0.767 0.202 0.222 0.121 0.404 0.323 0.525 0.545s0.181 0.505 0.181 0.807c0 0.283-0.061 0.545-0.181 0.767s-0.303 0.384-0.525 0.525c-0.202 0.101-0.464 0.162-0.767 0.162zM88.676 10.116c-0.141-0.262-0.343-0.464-0.585-0.626-0.242-0.141-0.545-0.222-0.868-0.222h-1.595v3.412h1.595c0.323 0 0.626-0.081 0.868-0.222s0.444-0.343 0.585-0.585c0.141-0.242 0.222-0.545 0.222-0.868s-0.081-0.626-0.222-0.888zM87.202 12.478h-1.393v-3.008h1.393c0.282 0 0.545 0.061 0.767 0.202 0.222 0.121 0.404 0.323 0.525 0.545s0.181 0.505 0.181 0.807c0 0.283-0.061 0.545-0.181 0.767s-0.303 0.384-0.525 0.525c-0.202 0.101-0.464 0.162-0.767 0.162zM88.676 10.116c-0.141-0.262-0.343-0.464-0.585-0.626-0.242-0.141-0.545-0.222-0.868-0.222h-1.595v3.412h1.595c0.323 0 0.626-0.081 0.868-0.222s0.444-0.343 0.585-0.585c0.141-0.242 0.222-0.545 0.222-0.868s-0.081-0.626-0.222-0.888zM87.202 12.478h-1.393v-3.008h1.393c0.282 0 0.545 0.061 0.767 0.202 0.222 0.121 0.404 0.323 0.525 0.545s0.181 0.505 0.181 0.807c0 0.283-0.061 0.545-0.181 0.767s-0.303 0.384-0.525 0.525c-0.202 0.101-0.464 0.162-0.767 0.162zM88.676 10.116c-0.141-0.262-0.343-0.464-0.585-0.626-0.242-0.141-0.545-0.222-0.868-0.222h-1.595v3.412h1.595c0.323 0 0.626-0.081 0.868-0.222s0.444-0.343 0.585-0.585c0.141-0.242 0.222-0.545 0.222-0.868s-0.081-0.626-0.222-0.888zM87.202 12.478h-1.393v-3.008h1.393c0.282 0 0.545 0.061 0.767 0.202 0.222 0.121 0.404 0.323 0.525 0.545s0.181 0.505 0.181 0.807c0 0.283-0.061 0.545-0.181 0.767s-0.303 0.384-0.525 0.525c-0.202 0.101-0.464 0.162-0.767 0.162zM88.676 10.116c-0.141-0.262-0.343-0.464-0.585-0.626-0.242-0.141-0.545-0.222-0.868-0.222h-1.595v3.412h1.595c0.323 0 0.626-0.081 0.868-0.222s0.444-0.343 0.585-0.585c0.141-0.242 0.222-0.545 0.222-0.868s-0.081-0.626-0.222-0.888zM87.202 12.478h-1.393v-3.008h1.393c0.282 0 0.545 0.061 0.767 0.202 0.222 0.121 0.404 0.323 0.525 0.545s0.181 0.505 0.181 0.807c0 0.283-0.061 0.545-0.181 0.767s-0.303 0.384-0.525 0.525c-0.202 0.101-0.464 0.162-0.767 0.162zM88.676 10.116c-0.141-0.262-0.343-0.464-0.585-0.626-0.242-0.141-0.545-0.222-0.868-0.222h-1.595v3.412h1.595c0.323 0 0.626-0.081 0.868-0.222s0.444-0.343 0.585-0.585c0.141-0.242 0.222-0.545 0.222-0.868s-0.081-0.626-0.222-0.888zM87.202 12.478h-1.393v-3.008h1.393c0.282 0 0.545 0.061 0.767 0.202 0.222 0.121 0.404 0.323 0.525 0.545s0.181 0.505 0.181 0.807c0 0.283-0.061 0.545-0.181 0.767s-0.303 0.384-0.525 0.525c-0.202 0.101-0.464 0.162-0.767 0.162zM88.676 10.116c-0.141-0.262-0.343-0.464-0.585-0.626-0.242-0.141-0.545-0.222-0.868-0.222h-1.595v3.412h1.595c0.323 0 0.626-0.081 0.868-0.222s0.444-0.343 0.585-0.585c0.141-0.242 0.222-0.545 0.222-0.868s-0.081-0.626-0.222-0.888zM87.202 12.478h-1.393v-3.008h1.393c0.282 0 0.545 0.061 0.767 0.202 0.222 0.121 0.404 0.323 0.525 0.545s0.181 0.505 0.181 0.807c0 0.283-0.061 0.545-0.181 0.767s-0.303 0.384-0.525 0.525c-0.202 0.101-0.464 0.162-0.767 0.162zM88.676 10.116c-0.141-0.262-0.343-0.464-0.585-0.626-0.242-0.141-0.545-0.222-0.868-0.222h-1.595v3.412h1.595c0.323 0 0.626-0.081 0.868-0.222s0.444-0.343 0.585-0.585c0.141-0.242 0.222-0.545 0.222-0.868s-0.081-0.626-0.222-0.888zM87.202 12.478h-1.393v-3.008h1.393c0.282 0 0.545 0.061 0.767 0.202 0.222 0.121 0.404 0.323 0.525 0.545s0.181 0.505 0.181 0.807c0 0.283-0.061 0.545-0.181 0.767s-0.303 0.384-0.525 0.525c-0.202 0.101-0.464 0.162-0.767 0.162zM88.676 10.116c-0.141-0.262-0.343-0.464-0.585-0.626-0.242-0.141-0.545-0.222-0.868-0.222h-1.595v3.412h1.595c0.323 0 0.626-0.081 0.868-0.222s0.444-0.343 0.585-0.585c0.141-0.242 0.222-0.545 0.222-0.868s-0.081-0.626-0.222-0.888zM87.202 12.478h-1.393v-3.008h1.393c0.282 0 0.545 0.061 0.767 0.202 0.222 0.121 0.404 0.323 0.525 0.545s0.181 0.505 0.181 0.807c0 0.283-0.061 0.545-0.181 0.767s-0.303 0.384-0.525 0.525c-0.202 0.101-0.464 0.162-0.767 0.162zM88.676 10.116c-0.141-0.262-0.343-0.464-0.585-0.626-0.242-0.141-0.545-0.222-0.868-0.222h-1.595v3.412h1.595c0.323 0 0.626-0.081 0.868-0.222s0.444-0.343 0.585-0.585c0.141-0.242 0.222-0.545 0.222-0.868s-0.081-0.626-0.222-0.888zM87.202 12.478h-1.393v-3.008h1.393c0.282 0 0.545 0.061 0.767 0.202 0.222 0.121 0.404 0.323 0.525 0.545s0.181 0.505 0.181 0.807c0 0.283-0.061 0.545-0.181 0.767s-0.303 0.384-0.525 0.525c-0.202 0.101-0.464 0.162-0.767 0.162zM88.676 10.116c-0.141-0.262-0.343-0.464-0.585-0.626-0.242-0.141-0.545-0.222-0.868-0.222h-1.595v3.412h1.595c0.323 0 0.626-0.081 0.868-0.222s0.444-0.343 0.585-0.585c0.141-0.242 0.222-0.545 0.222-0.868s-0.081-0.626-0.222-0.888zM87.202 12.478h-1.393v-3.008h1.393c0.282 0 0.545 0.061 0.767 0.202 0.222 0.121 0.404 0.323 0.525 0.545s0.181 0.505 0.181 0.807c0 0.283-0.061 0.545-0.181 0.767s-0.303 0.384-0.525 0.525c-0.202 0.101-0.464 0.162-0.767 0.162zM88.676 10.116c-0.141-0.262-0.343-0.464-0.585-0.626-0.242-0.141-0.545-0.222-0.868-0.222h-1.595v3.412h1.595c0.323 0 0.626-0.081 0.868-0.222s0.444-0.343 0.585-0.585c0.141-0.242 0.222-0.545 0.222-0.868s-0.081-0.626-0.222-0.888zM87.202 12.478h-1.393v-3.008h1.393c0.282 0 0.545 0.061 0.767 0.202 0.222 0.121 0.404 0.323 0.525 0.545s0.181 0.505 0.181 0.807c0 0.283-0.061 0.545-0.181 0.767s-0.303 0.384-0.525 0.525c-0.202 0.101-0.464 0.162-0.767 0.162z"></path>
<path fill="#fff" d="M97.639 8.542c-0.101-0.101-0.222-0.141-0.384-0.141s-0.303 0.061-0.403 0.182l-4.845 6.077v-5.733c0-0.162-0.040-0.283-0.142-0.384s-0.222-0.141-0.363-0.141c-0.142 0-0.283 0.040-0.384 0.141s-0.162 0.222-0.162 0.384v6.844c0 0.141 0.061 0.283 0.162 0.384s0.242 0.162 0.384 0.162c0.080 0 0.141-0.020 0.222-0.061s0.141-0.081 0.181-0.141l4.825-6.056v5.733c0 0.141 0.060 0.283 0.162 0.384s0.222 0.162 0.383 0.162 0.283-0.061 0.383-0.162c0.101-0.101 0.141-0.222 0.141-0.384v-6.844c0-0.182-0.060-0.303-0.161-0.404z"></path>
<path fill="#fff" d="M97.72 8.481c-0.121-0.121-0.263-0.182-0.444-0.182-0.202 0-0.364 0.081-0.485 0.222l-4.663 5.834v-5.451c0-0.182-0.061-0.323-0.162-0.444s-0.263-0.182-0.444-0.182-0.323 0.061-0.444 0.182c-0.121 0.121-0.201 0.262-0.201 0.444v6.844c0 0.182 0.060 0.323 0.201 0.444 0.182 0.182 0.465 0.242 0.727 0.121 0.081-0.040 0.162-0.101 0.222-0.162l4.643-5.834v5.431c0 0.182 0.061 0.323 0.182 0.444s0.262 0.182 0.444 0.182c0.182 0 0.323-0.061 0.444-0.182s0.181-0.262 0.181-0.444v-6.844c-0.020-0.161-0.081-0.323-0.201-0.424zM97.7 15.769c0 0.121-0.040 0.222-0.121 0.303s-0.181 0.121-0.303 0.121c-0.121 0-0.222-0.040-0.303-0.121s-0.121-0.182-0.121-0.303v-6.016l-5.007 6.278c-0.040 0.040-0.081 0.081-0.142 0.101-0.181 0.081-0.363 0.040-0.505-0.081-0.081-0.081-0.121-0.182-0.121-0.303v-6.844c0-0.121 0.040-0.222 0.121-0.303 0.101-0.081 0.202-0.121 0.323-0.121s0.222 0.040 0.303 0.121c0.081 0.081 0.101 0.182 0.101 0.303v6.036l5.027-6.299c0.081-0.101 0.202-0.161 0.323-0.161s0.222 0.040 0.303 0.121c0.081 0.081 0.121 0.182 0.121 0.303v6.864z"></path>
<path fill="#fff" d="M101.637 8.4v7.369c0 0.141 0.060 0.283 0.161 0.384s0.222 0.162 0.384 0.162c0.141 0 0.282-0.061 0.383-0.162s0.162-0.222 0.162-0.384v-7.369h-1.090zM105.21 8.541c-0.101-0.101-0.202-0.141-0.343-0.141h-5.431c-0.142 0-0.262 0.040-0.343 0.141-0.101 0.081-0.142 0.202-0.142 0.343s0.040 0.262 0.142 0.343c0.081 0.081 0.201 0.141 0.343 0.141h5.41c0.142 0 0.263-0.040 0.344-0.141 0.081-0.081 0.141-0.202 0.141-0.343s-0.040-0.262-0.121-0.343z"></path>
<path fill="#fff" d="M105.271 8.461c-0.101-0.101-0.263-0.162-0.424-0.162h-5.41c-0.162 0-0.303 0.061-0.424 0.162-0.101 0.121-0.162 0.262-0.162 0.424s0.060 0.303 0.162 0.424c0.101 0.101 0.262 0.162 0.424 0.162h2.079v6.299c0 0.182 0.060 0.323 0.181 0.444s0.262 0.182 0.444 0.182c0.181 0 0.323-0.061 0.444-0.182s0.182-0.262 0.182-0.444v-6.299h2.079c0.162 0 0.303-0.061 0.424-0.162 0.101-0.101 0.161-0.242 0.161-0.424 0-0.161-0.040-0.303-0.161-0.424zM104.846 9.268h-2.079v-0.767h2.079c0.121 0 0.202 0.040 0.283 0.101 0.081 0.081 0.101 0.161 0.101 0.283s-0.040 0.202-0.101 0.283c-0.060 0.061-0.162 0.101-0.283 0.101zM102.585 15.769c0 0.121-0.040 0.222-0.121 0.303s-0.181 0.121-0.303 0.121c-0.121 0-0.222-0.040-0.303-0.121s-0.121-0.182-0.121-0.303v-6.299h0.848v6.299zM99.436 8.501h2.079v0.767h-2.079c-0.121 0-0.202-0.040-0.283-0.101-0.081-0.081-0.101-0.162-0.101-0.283s0.040-0.202 0.101-0.283c0.081-0.061 0.181-0.101 0.283-0.101zM102.585 9.268h-0.848v-0.767h0.848v0.767z"></path>
<path fill="#fff" d="M112.579 8.461c-0.283-0.121-0.505-0.040-0.666 0.262l-2.221 4.583-0.444 0.909-0.101 0.222c-0.142 0.303-0.323 0.545-0.505 0.727s-0.384 0.262-0.566 0.262c-0.040 0-0.101 0-0.162-0.020s-0.121-0.040-0.162-0.061c-0.141-0.081-0.283-0.101-0.424-0.081s-0.242 0.101-0.323 0.222c-0.081 0.121-0.101 0.242-0.060 0.363s0.101 0.222 0.242 0.303c0.282 0.182 0.585 0.283 0.888 0.283 0.383 0 0.747-0.141 1.090-0.404 0.323-0.283 0.626-0.666 0.868-1.151l2.786-5.713c0.121-0.363 0.040-0.585-0.242-0.707zM109.692 13.286l-2.645-4.623c-0.162-0.283-0.383-0.343-0.666-0.182s-0.363 0.384-0.202 0.666l3.069 5.047 0.303 0.485 0.666-0.505-0.525-0.888z"></path>
<path fill="#fff" d="M112.942 8.663c-0.040-0.121-0.162-0.242-0.323-0.303-0.343-0.141-0.626-0.040-0.787 0.303l-2.14 4.401-2.564-4.462c-0.202-0.323-0.484-0.404-0.807-0.222-0.181 0.101-0.283 0.222-0.323 0.363s0 0.283 0.081 0.444l3.048 5.007-0.081 0.162c-0.141 0.303-0.303 0.525-0.484 0.686s-0.344 0.222-0.505 0.222c-0.040 0-0.081 0-0.142-0.020s-0.101-0.040-0.141-0.061c-0.162-0.101-0.323-0.121-0.485-0.101s-0.283 0.121-0.383 0.262c-0.081 0.141-0.121 0.283-0.081 0.444s0.121 0.283 0.283 0.384c0.303 0.202 0.626 0.283 0.949 0.283 0.424 0 0.807-0.141 1.15-0.444 0.343-0.283 0.646-0.686 0.888-1.191l2.786-5.713c0.081-0.141 0.101-0.303 0.061-0.444zM108.077 16.274c-0.283 0-0.566-0.081-0.828-0.262-0.101-0.061-0.162-0.141-0.202-0.262-0.020-0.101 0-0.202 0.061-0.283 0.060-0.101 0.141-0.161 0.242-0.182 0.020 0 0.060 0 0.081 0 0.080 0 0.181 0.020 0.282 0.081 0.061 0.020 0.121 0.061 0.182 0.081s0.121 0.020 0.181 0.020c0.202 0 0.424-0.101 0.626-0.283s0.383-0.424 0.525-0.747l0.020-0.040 0.262 0.424 0.585-0.464-0.201 0.384c-0.242 0.485-0.505 0.848-0.828 1.131-0.283 0.283-0.626 0.404-0.989 0.404zM106.401 8.582c0.081-0.040 0.162-0.081 0.242-0.081 0.121 0 0.222 0.081 0.303 0.222l2.625 4.563-0.343 0.707-2.988-4.886c-0.060-0.101-0.081-0.202-0.060-0.283 0.040-0.101 0.101-0.182 0.222-0.242zM110.075 14.154l-0.505 0.384-0.222-0.343 0.344-0.686 0.383 0.646zM112.7 9.066l-2.443 5.007-0.464-0.787 2.201-4.522c0.121-0.242 0.283-0.303 0.525-0.202 0.121 0.061 0.182 0.121 0.222 0.182 0.040 0.081 0.020 0.182-0.040 0.323z"></path>
<path fill="#fff" d="M118.797 13.689h-3.957l-0.404 0.868h4.764l-0.403-0.868zM120.109 15.547l-2.846-6.803c-0.081-0.242-0.262-0.363-0.505-0.363-0.222 0-0.404 0.121-0.505 0.363l-2.826 6.803c-0.081 0.182-0.081 0.363 0.020 0.505s0.242 0.242 0.424 0.242c0.101 0 0.181-0.020 0.282-0.081 0.081-0.061 0.162-0.141 0.202-0.242l0.585-1.413 0.364-0.868 1.474-3.594 1.454 3.594 0.343 0.868 0.566 1.413c0.040 0.101 0.101 0.182 0.202 0.242s0.181 0.081 0.283 0.081c0.201 0 0.343-0.081 0.444-0.222 0.101-0.162 0.121-0.323 0.040-0.525z"></path>
<path fill="#fff" d="M120.21 15.527l-2.847-6.803c-0.101-0.283-0.303-0.424-0.585-0.424-0.262 0-0.464 0.141-0.585 0.424l-2.846 6.783c-0.101 0.222-0.081 0.424 0.040 0.606 0.121 0.202 0.303 0.283 0.525 0.283 0.121 0 0.222-0.040 0.323-0.101s0.202-0.162 0.242-0.283l0.545-1.353h3.493l0.545 1.353c0.040 0.121 0.121 0.222 0.242 0.283 0.101 0.061 0.222 0.101 0.343 0.101 0.222 0 0.404-0.101 0.525-0.283 0.101-0.162 0.121-0.363 0.040-0.585zM119.644 16.193c-0.081 0-0.162-0.020-0.242-0.081-0.081-0.040-0.121-0.101-0.162-0.182l-0.505-1.272h0.626l-0.505-1.070h-0.565l-1.413-3.493 0.181-0.444h-0.585l0.181 0.444-1.433 3.493h-0.485l-0.505 1.070h0.545l-0.525 1.272c-0.040 0.081-0.101 0.162-0.162 0.202-0.081 0.040-0.141 0.061-0.222 0.061-0.162 0-0.263-0.061-0.344-0.202s-0.101-0.262-0.020-0.424l2.846-6.783c0.081-0.202 0.222-0.283 0.404-0.283 0.202 0 0.323 0.081 0.404 0.283l2.846 6.803c0.060 0.162 0.060 0.303-0.020 0.424s-0.202 0.182-0.343 0.182zM115.102 14.457l0.283-0.666h2.786l0.262 0.666h-3.331zM114.577 14.457l0.303-0.666h0.262l-0.262 0.666h-0.303zM115.465 13.588l1.312-3.23 1.292 3.23h-2.604zM118.736 13.79l0.303 0.666h-0.404l-0.262-0.666h0.363z"></path>
<path fill="#fff" d="M127.841 15.547l-2.847-6.803c-0.081-0.242-0.262-0.363-0.505-0.363-0.222 0-0.403 0.121-0.505 0.363l-2.826 6.803c-0.081 0.182-0.060 0.363 0.040 0.505s0.242 0.242 0.424 0.242c0.101 0 0.181-0.020 0.282-0.081 0.081-0.061 0.162-0.141 0.202-0.242l2.423-5.834 2.362 5.834c0.040 0.101 0.101 0.182 0.202 0.242s0.181 0.081 0.282 0.081c0.202 0 0.344-0.081 0.424-0.222s0.121-0.323 0.040-0.525z"></path>
<path fill="#fff" d="M127.942 15.527l-2.846-6.803c-0.101-0.283-0.303-0.424-0.585-0.424-0.263 0-0.465 0.141-0.585 0.424l-2.847 6.783c-0.101 0.222-0.081 0.424 0.040 0.606 0.121 0.202 0.303 0.283 0.525 0.283 0.121 0 0.222-0.040 0.323-0.101s0.201-0.162 0.242-0.283l2.322-5.612 2.281 5.612c0.040 0.121 0.121 0.222 0.242 0.283 0.101 0.061 0.222 0.101 0.343 0.101 0.222 0 0.403-0.101 0.525-0.283 0.101-0.162 0.101-0.363 0.020-0.585zM127.397 16.193c-0.081 0-0.162-0.020-0.242-0.081-0.081-0.040-0.121-0.101-0.162-0.182l-2.362-5.794 0.201-0.485h-0.626l0.202 0.485-2.402 5.794c-0.040 0.081-0.101 0.162-0.162 0.202-0.081 0.040-0.142 0.061-0.222 0.061-0.161 0-0.262-0.061-0.343-0.202s-0.081-0.262-0.020-0.424l2.846-6.783c0.081-0.202 0.222-0.283 0.404-0.283 0.201 0 0.323 0.081 0.403 0.283l2.847 6.803c0.060 0.162 0.060 0.303-0.020 0.424s-0.181 0.182-0.343 0.182zM124.53 9.874l-0.020-0.020h0.020v0.020z"></path>
</svg>
