<svg aria-hidden="true" style="position: absolute; width: 0; height: 0; overflow: hidden;" version="1.1" xmlns="http://www.w3.org/2000/svg" xmlns:xlink="http://www.w3.org/1999/xlink">
<defs>
<symbol id="logo" viewBox="0 0 32 32">
<path d="M0 16v16h32.135v-32h-32.135v16zM19.038 0.486c3.065 0.554 5.86 2.012 8.25 4.334l1.013 0.986 0.459-0.81c0.351-0.635 0.527-0.81 0.743-0.783 0.351 0.054 0.446 0.513 0.108 0.513-0.149 0-0.419 0.311-0.716 0.837-1.431 2.498-4.348 5.279-6.319 5.995-2.12 0.77-3.727 1.62-5.266 2.781-1.121 0.837-1.134 0.527-0.014-0.432 1.35-1.161 3.105-2.268 4.942-3.119 1.013-0.473 1.485-0.756 1.404-0.837s-0.108-0.392-0.054-0.702c0.054-0.459 0.027-0.581-0.176-0.662-0.122-0.054-0.297-0.027-0.378 0.054-0.27 0.27-0.351 0.122-0.351-0.608 0-0.756-0.162-0.932-0.513-0.581-0.122 0.122-0.162 0.067-0.162-0.27 0-0.864-0.567-1.809-0.945-1.58-0.067 0.040-0.284 0.608-0.486 1.256-0.189 0.635-0.527 1.512-0.743 1.944-0.513 1.026-2.187 3.213-3.267 4.267l-0.864 0.851-0.932-0.959c-2.268-2.376-3.929-3.159-4.847-2.295-0.608 0.567-0.743 0.972-0.743 2.268 0 0.662 0.040 1.242 0.081 1.283 0.054 0.054 0.338-0.040 0.621-0.203 0.486-0.284 0.554-0.284 0.891-0.095 0.216 0.122 0.446 0.419 0.554 0.756 0.176 0.486 0.176 0.689 0.014 1.485-0.378 1.836-0.149 3.916 0.621 5.684 0.702 1.607 1.688 2.322 3.673 2.66 1.445 0.257 2.214 0.459 2.471 0.648 0.108 0.095 0.405 0.459 0.662 0.824 0.999 1.472 2.255 2.336 3.578 2.471 1.013 0.108 1.634-0.135 1.958-0.77 0.284-0.567 0.864-1.080 1.202-1.080 0.311 0 1.053-0.486 1.229-0.797 0.108-0.216 0.095-0.459-0.067-0.999-0.176-0.621-0.176-0.797-0.014-1.337 0.095-0.351 0.311-0.797 0.473-0.999 0.149-0.203 0.284-0.473 0.284-0.608 0-0.351-0.702-0.338-2.309 0.014-2.66 0.594-3.943 0.486-4.537-0.392-0.176-0.257-0.311-0.5-0.311-0.54 0-0.054 0.891-0.095 1.998-0.108 3.821-0.014 5.711-0.905 6.778-3.173 0.446-0.945 0.5-1.296 0.203-1.391-0.108-0.041-0.311-0.108-0.432-0.149-0.176-0.054-0.014-0.149 0.486-0.324 0.392-0.135 0.905-0.419 1.134-0.648 0.513-0.513 0.419-0.837-0.243-0.837-0.648 0-0.594-0.149 0.176-0.459 0.351-0.149 0.797-0.365 0.986-0.513 0.473-0.324 0.5-0.243 0.608 1.701 0.581 10.14-8.358 18.228-18.376 16.635-1.215-0.203-1.215-0.203-1.877-0.918-0.351-0.392-0.945-1.107-1.31-1.58l-0.648-0.851 0.419-0.621c1.026-1.499 1.31-3.024 0.783-4.186l-0.27-0.594-0.513 0.405c-0.945 0.756-1.539 2.282-1.242 3.254 0.257 0.905 0.014 0.567-0.864-1.202l-0.891-1.769 0.743-0.729c1.202-1.175 1.674-2.538 1.269-3.7-0.176-0.5-0.189-0.5-0.797-0.135-1.094 0.662-1.485 1.269-1.607 2.484l-0.081 0.81-0.432-1.553c-0.689-2.457-0.689-2.201 0.013-2.619 1.377-0.81 2.106-1.89 2.106-3.119 0-0.878-0.108-0.918-1.148-0.419-0.864 0.405-1.256 0.837-1.566 1.728-0.135 0.392-0.257 0.594-0.257 0.446-0.013-0.149-0.067-0.716-0.122-1.256l-0.095-0.986 0.783-0.351c1.202-0.54 1.998-1.593 1.998-2.66 0-0.216-0.081-0.243-0.608-0.189-0.824 0.095-1.485 0.581-1.89 1.377l-0.338 0.675v-0.608c0-0.419 0.108-0.756 0.351-1.107 0.864-1.283 0.945-2.835 0.189-3.767l-0.257-0.311-0.473 0.459c-0.905 0.878-1.080 2.133-0.486 3.43 0.176 0.405 0.27 0.945 0.297 1.89 0.027 0.716 0.027 1.31 0.013 1.31s-0.162-0.284-0.311-0.648c-0.446-0.999-1.512-1.944-2.525-2.255-0.297-0.081-0.311-0.054-0.311 0.702 0.014 1.364 0.473 2.201 1.62 2.984 0.338 0.23 0.864 0.486 1.188 0.581 0.513 0.149 0.567 0.203 0.567 0.581 0 0.23 0.149 1.107 0.311 1.931 0.176 0.837 0.297 1.526 0.297 1.526-0.013 0-0.216-0.311-0.459-0.675-0.554-0.851-1.472-1.566-2.349-1.823-0.378-0.108-0.729-0.203-0.797-0.203-0.216 0-0.095 1.040 0.216 1.688 0.567 1.242 1.796 2.12 3.213 2.309 0.567 0.081 0.648 0.122 0.729 0.5 0.054 0.243 0.324 0.999 0.621 1.715 0.284 0.702 0.567 1.377 0.608 1.485s-0.149-0.027-0.419-0.311c-0.743-0.743-1.391-1.134-2.309-1.377-1.499-0.378-1.661-0.27-1.148 0.864 0.419 0.905 0.986 1.539 1.782 1.971 0.608 0.338 0.878 0.392 1.769 0.405l1.040 0.027 0.689 1.148c0.378 0.621 1.080 1.607 1.566 2.187 0.945 1.148 0.945 1.148-0.567 0.527-1.782-0.743-3.889-2.214-5.279-3.7-2.781-2.97-4.253-6.697-4.253-10.775 0-3.551 1.013-6.643 3.065-9.411 3.632-4.928 9.586-7.264 15.716-6.184z"></path>
<path d="M12.314 2.862c-0.203 0.203-0.216 0.783-0.027 0.783 0.081 0 0.189-0.108 0.23-0.243 0.108-0.297 0.311-0.419 0.54-0.338 0.311 0.122 0.189 0.5-0.365 1.175-0.297 0.351-0.54 0.702-0.54 0.77s0.338 0.122 0.756 0.122c0.513 0 0.729-0.054 0.702-0.162-0.027-0.081-0.203-0.176-0.378-0.203s-0.338-0.067-0.365-0.095c-0.027-0.013 0.135-0.27 0.365-0.554 0.216-0.284 0.405-0.608 0.405-0.743 0-0.527-0.945-0.891-1.323-0.513z"></path>
<path d="M14.393 2.997c-0.122 0.162-0.216 0.581-0.216 0.918 0 0.729 0.297 1.215 0.743 1.215s0.743-0.486 0.743-1.215c0-0.729-0.297-1.215-0.743-1.215-0.176 0-0.419 0.135-0.527 0.297zM15.257 3.322c0.203 0.527 0.162 0.932-0.135 1.283-0.27 0.324-0.27 0.324-0.473 0.067-0.378-0.5-0.189-1.701 0.284-1.701 0.108 0 0.257 0.162 0.324 0.351z"></path>
<path d="M16.419 2.997c-0.122 0.162-0.216 0.581-0.216 0.918 0 0.729 0.297 1.215 0.743 1.215s0.743-0.486 0.743-1.215c0-0.729-0.297-1.215-0.743-1.215-0.176 0-0.419 0.135-0.527 0.297zM17.323 3.416c0.162 0.5 0.014 1.256-0.284 1.377-0.297 0.108-0.567-0.27-0.567-0.851 0-0.932 0.581-1.31 0.851-0.527z"></path>
<path d="M18.39 3.268c0.041 0.554 0.067 0.581 0.513 0.648 0.392 0.054 0.473 0.122 0.473 0.405 0 0.446-0.594 0.567-0.702 0.149-0.081-0.324-0.446-0.392-0.446-0.081s0.5 0.743 0.851 0.743c0.675 0 1.026-0.945 0.527-1.391-0.135-0.135-0.378-0.23-0.54-0.23-0.176 0-0.297-0.081-0.297-0.203 0-0.135 0.149-0.203 0.473-0.203s0.473-0.067 0.473-0.203c0-0.149-0.162-0.203-0.689-0.203h-0.675l0.041 0.567z"></path>
</symbol>
</defs>
</svg>
