<?xml version="1.0" standalone="no"?>
<!DOCTYPE svg PUBLIC "-//W3C//DTD SVG 20010904//EN"
 "http://www.w3.org/TR/2001/REC-SVG-20010904/DTD/svg10.dtd">
<svg version="1.0" xmlns="http://www.w3.org/2000/svg"
 width="238.000000pt" height="237.000000pt" viewBox="0 0 238.000000 237.000000"
 preserveAspectRatio="xMidYMid meet">

<g transform="translate(0.000000,237.000000) scale(0.100000,-0.100000)"
fill="#000000" stroke="none">
<path d="M0 1185 l0 -1185 1190 0 1190 0 0 1185 0 1185 -1190 0 -1190 0 0
-1185z m1410 1149 c227 -41 434 -149 611 -321 l75 -73 34 60 c26 47 39 60 55
58 26 -4 33 -38 8 -38 -11 0 -31 -23 -53 -62 -106 -185 -322 -391 -468 -444
-157 -57 -276 -120 -390 -206 -83 -62 -84 -39 -1 32 100 86 230 168 366 231
75 35 110 56 104 62 -6 6 -8 29 -4 52 4 34 2 43 -13 49 -9 4 -22 2 -28 -4 -20
-20 -26 -9 -26 45 0 56 -12 69 -38 43 -9 -9 -12 -5 -12 20 0 64 -42 134 -70
117 -5 -3 -21 -45 -36 -93 -14 -47 -39 -112 -55 -144 -38 -76 -162 -238 -242
-316 l-64 -63 -69 71 c-168 176 -291 234 -359 170 -45 -42 -55 -72 -55 -168 0
-49 3 -92 6 -95 4 -4 25 3 46 15 36 21 41 21 66 7 16 -9 33 -31 41 -56 13 -36
13 -51 1 -110 -28 -136 -11 -290 46 -421 52 -119 125 -172 272 -197 107 -19
164 -34 183 -48 8 -7 30 -34 49 -61 74 -109 167 -173 265 -183 75 -8 121 10
145 57 21 42 64 80 89 80 23 0 78 36 91 59 8 16 7 34 -5 74 -13 46 -13 59 -1
99 7 26 23 59 35 74 11 15 21 35 21 45 0 26 -52 25 -171 -1 -197 -44 -292 -36
-336 29 -13 19 -23 37 -23 40 0 4 66 7 148 8 283 1 423 67 502 235 33 70 37
96 15 103 -8 3 -23 8 -32 11 -13 4 -1 11 36 24 29 10 67 31 84 48 38 38 31 62
-18 62 -48 0 -44 11 13 34 26 11 59 27 73 38 35 24 37 18 45 -126 43 -751
-619 -1350 -1361 -1232 -90 15 -90 15 -139 68 -26 29 -70 82 -97 117 l-48 63
31 46 c76 111 97 224 58 310 l-20 44 -38 -30 c-70 -56 -114 -169 -92 -241 19
-67 1 -42 -64 89 l-66 131 55 54 c89 87 124 188 94 274 -13 37 -14 37 -59 10
-81 -49 -110 -94 -119 -184 l-6 -60 -32 115 c-51 182 -51 163 1 194 102 60
156 140 156 231 0 65 -8 68 -85 31 -64 -30 -93 -62 -116 -128 -10 -29 -19 -44
-19 -33 -1 11 -5 53 -9 93 l-7 73 58 26 c89 40 148 118 148 197 0 16 -6 18
-45 14 -61 -7 -110 -43 -140 -102 l-25 -50 0 45 c0 31 8 56 26 82 64 95 70
210 14 279 l-19 23 -35 -34 c-67 -65 -80 -158 -36 -254 13 -30 20 -70 22 -140
2 -53 2 -97 1 -97 -1 0 -12 21 -23 48 -33 74 -112 144 -187 167 -22 6 -23 4
-23 -52 1 -101 35 -163 120 -221 25 -17 64 -36 88 -43 38 -11 42 -15 42 -43 0
-17 11 -82 23 -143 13 -62 22 -113 22 -113 -1 0 -16 23 -34 50 -41 63 -109
116 -174 135 -28 8 -54 15 -59 15 -16 0 -7 -77 16 -125 42 -92 133 -157 238
-171 42 -6 48 -9 54 -37 4 -18 24 -74 46 -127 21 -52 42 -102 45 -110 3 -8
-11 2 -31 23 -55 55 -103 84 -171 102 -111 28 -123 20 -85 -64 31 -67 73 -114
132 -146 45 -25 65 -29 131 -30 l77 -2 51 -85 c28 -46 80 -119 116 -162 70
-85 70 -85 -42 -39 -132 55 -288 164 -391 274 -206 220 -315 496 -315 798 0
263 75 492 227 697 269 365 710 538 1164 458z"/>
<path d="M912 2158 c-15 -15 -16 -58 -2 -58 6 0 14 8 17 18 8 22 23 31 40 25
23 -9 14 -37 -27 -87 -22 -26 -40 -52 -40 -57 0 -5 25 -9 56 -9 38 0 54 4 52
12 -2 6 -15 13 -28 15 -13 2 -25 5 -27 7 -2 1 10 20 27 41 16 21 30 45 30 55
0 39 -70 66 -98 38z"/>
<path d="M1066 2148 c-9 -12 -16 -43 -16 -68 0 -54 22 -90 55 -90 33 0 55 36
55 90 0 54 -22 90 -55 90 -13 0 -31 -10 -39 -22z m64 -24 c15 -39 12 -69 -10
-95 -20 -24 -20 -24 -35 -5 -28 37 -14 126 21 126 8 0 19 -12 24 -26z"/>
<path d="M1216 2148 c-9 -12 -16 -43 -16 -68 0 -54 22 -90 55 -90 33 0 55 36
55 90 0 54 -22 90 -55 90 -13 0 -31 -10 -39 -22z m67 -31 c12 -37 1 -93 -21
-102 -22 -8 -42 20 -42 63 0 69 43 97 63 39z"/>
<path d="M1362 2128 c3 -41 5 -43 38 -48 29 -4 35 -9 35 -30 0 -33 -44 -42
-52 -11 -6 24 -33 29 -33 6 0 -23 37 -55 63 -55 50 0 76 70 39 103 -10 10 -28
17 -40 17 -13 0 -22 6 -22 15 0 10 11 15 35 15 24 0 35 5 35 15 0 11 -12 15
-51 15 l-50 0 3 -42z"/>
</g>
</svg>
