<svg width="100" height="100" viewBox="0 0 192 192" fill="none" xmlns="http://www.w3.org/2000/svg">
<g clip-path="url(#clip0_55_144)">
<path d="M90.8941 19.8581C90.7597 19.2059 90.4661 18.5971 90.0394 18.0862C89.9296 17.9146 89.7867 17.7668 89.6189 17.6513C89.4512 17.5359 89.2621 17.4552 89.0627 17.4141C88.8195 17.4158 88.5805 17.4782 88.3674 17.5956C88.1542 17.7129 87.9736 17.8815 87.8419 18.0862C87.437 18.6109 87.1459 19.2144 86.9873 19.8581C86.7864 20.7402 86.6841 21.6419 86.682 22.5465C86.6488 23.4731 86.7516 24.3995 86.9873 25.2961C87.0927 25.9577 87.3898 26.5739 87.8419 27.068C87.9678 27.2643 88.1388 27.4277 88.3405 27.5446C88.5422 27.6615 88.7689 27.7285 89.0017 27.7401C89.2449 27.7384 89.4839 27.676 89.6971 27.5586C89.9102 27.4413 90.0908 27.2727 90.2226 27.068C90.6151 26.5357 90.905 25.9348 91.0772 25.2961C91.1805 24.3825 91.1805 23.4601 91.0772 22.5465C91.24 21.6578 91.24 20.7468 91.0772 19.8581H90.8941ZM90.8941 19.8581C90.7597 19.2059 90.4661 18.5971 90.0394 18.0862C89.9296 17.9146 89.7867 17.7668 89.6189 17.6513C89.4512 17.5359 89.2621 17.4552 89.0627 17.4141C88.8195 17.4158 88.5805 17.4782 88.3674 17.5956C88.1542 17.7129 87.9736 17.8815 87.8419 18.0862C87.437 18.6109 87.1459 19.2144 86.9873 19.8581C86.7864 20.7402 86.6841 21.6419 86.682 22.5465C86.6488 23.4731 86.7516 24.3995 86.9873 25.2961C87.0927 25.9577 87.3898 26.5739 87.8419 27.068C87.9678 27.2643 88.1388 27.4277 88.3405 27.5446C88.5422 27.6615 88.7689 27.7285 89.0017 27.7401C89.2449 27.7384 89.4839 27.676 89.6971 27.5586C89.9102 27.4413 90.0908 27.2727 90.2226 27.068C90.6151 26.5357 90.905 25.9348 91.0772 25.2961C91.1805 24.3825 91.1805 23.4601 91.0772 22.5465C91.24 21.6578 91.24 20.7468 91.0772 19.8581H90.8941ZM90.8941 19.8581C90.7597 19.2059 90.4661 18.5971 90.0394 18.0862C89.9296 17.9146 89.7867 17.7668 89.6189 17.6513C89.4512 17.5359 89.2621 17.4552 89.0627 17.4141C88.8195 17.4158 88.5805 17.4782 88.3674 17.5956C88.1542 17.7129 87.9736 17.8815 87.8419 18.0862C87.437 18.6109 87.1459 19.2144 86.9873 19.8581C86.7864 20.7402 86.6841 21.6419 86.682 22.5465C86.6488 23.4731 86.7516 24.3995 86.9873 25.2961C87.0927 25.9577 87.3898 26.5739 87.8419 27.068C87.9678 27.2643 88.1388 27.4277 88.3405 27.5446C88.5422 27.6615 88.7689 27.7285 89.0017 27.7401C89.2449 27.7384 89.4839 27.676 89.6971 27.5586C89.9102 27.4413 90.0908 27.2727 90.2226 27.068C90.6151 26.5357 90.905 25.9348 91.0772 25.2961C91.1805 24.3825 91.1805 23.4601 91.0772 22.5465C91.24 21.6578 91.24 20.7468 91.0772 19.8581H90.8941ZM103.103 19.8581C102.997 19.1965 102.7 18.5803 102.248 18.0862C102.116 17.8815 101.936 17.7129 101.723 17.5956C101.51 17.4782 101.271 17.4158 101.027 17.4141C100.775 17.4112 100.525 17.4711 100.302 17.5884C100.078 17.7057 99.8868 17.8767 99.7454 18.0862C99.3667 18.6267 99.0781 19.2251 98.8908 19.8581C98.6899 20.7402 98.5875 21.6419 98.5855 22.5465C98.583 23.4717 98.6854 24.3941 98.8908 25.2961C99.0251 25.9483 99.3187 26.5571 99.7454 27.068C99.8713 27.2643 100.042 27.4277 100.244 27.5446C100.446 27.6615 100.672 27.7285 100.905 27.7401C101.148 27.7384 101.387 27.676 101.601 27.5586C101.814 27.4413 101.994 27.2727 102.126 27.068C102.543 26.5507 102.835 25.9445 102.981 25.2961C103.216 24.3995 103.319 23.4731 103.286 22.5465C103.388 21.6533 103.388 20.7514 103.286 19.8581H103.103ZM90.8941 19.8581C90.7597 19.2059 90.4661 18.5971 90.0394 18.0862C89.9296 17.9146 89.7867 17.7668 89.6189 17.6513C89.4512 17.5359 89.2621 17.4552 89.0627 17.4141C88.8195 17.4158 88.5805 17.4782 88.3674 17.5956C88.1542 17.7129 87.9736 17.8815 87.8419 18.0862C87.437 18.6109 87.1459 19.2144 86.9873 19.8581C86.7864 20.7402 86.6841 21.6419 86.682 22.5465C86.6488 23.4731 86.7516 24.3995 86.9873 25.2961C87.0927 25.9577 87.3898 26.5739 87.8419 27.068C87.9678 27.2643 88.1388 27.4277 88.3405 27.5446C88.5422 27.6615 88.7689 27.7285 89.0017 27.7401C89.2449 27.7384 89.4839 27.676 89.6971 27.5586C89.9102 27.4413 90.0908 27.2727 90.2226 27.068C90.6151 26.5357 90.905 25.9348 91.0772 25.2961C91.1805 24.3825 91.1805 23.4601 91.0772 22.5465C91.24 21.6578 91.24 20.7468 91.0772 19.8581H90.8941ZM103.103 19.8581C102.997 19.1965 102.7 18.5803 102.248 18.0862C102.116 17.8815 101.936 17.7129 101.723 17.5956C101.51 17.4782 101.271 17.4158 101.027 17.4141C100.775 17.4112 100.525 17.4711 100.302 17.5884C100.078 17.7057 99.8868 17.8767 99.7454 18.0862C99.3667 18.6267 99.0781 19.2251 98.8908 19.8581C98.6899 20.7402 98.5875 21.6419 98.5855 22.5465C98.583 23.4717 98.6854 24.3941 98.8908 25.2961C99.0251 25.9483 99.3187 26.5571 99.7454 27.068C99.8713 27.2643 100.042 27.4277 100.244 27.5446C100.446 27.6615 100.672 27.7285 100.905 27.7401C101.148 27.7384 101.387 27.676 101.601 27.5586C101.814 27.4413 101.994 27.2727 102.126 27.068C102.543 26.5507 102.835 25.9445 102.981 25.2961C103.216 24.3995 103.319 23.4731 103.286 22.5465C103.388 21.6533 103.388 20.7514 103.286 19.8581H103.103ZM90.8941 19.8581C90.7597 19.2059 90.4661 18.5971 90.0394 18.0862C89.9296 17.9146 89.7867 17.7668 89.6189 17.6513C89.4512 17.5359 89.2621 17.4552 89.0627 17.4141C88.8195 17.4158 88.5805 17.4782 88.3674 17.5956C88.1542 17.7129 87.9736 17.8815 87.8419 18.0862C87.437 18.6109 87.1459 19.2144 86.9873 19.8581C86.7864 20.7402 86.6841 21.6419 86.682 22.5465C86.6488 23.4731 86.7516 24.3995 86.9873 25.2961C87.0927 25.9577 87.3898 26.5739 87.8419 27.068C87.9678 27.2643 88.1388 27.4277 88.3405 27.5446C88.5422 27.6615 88.7689 27.7285 89.0017 27.7401C89.2449 27.7384 89.4839 27.676 89.6971 27.5586C89.9102 27.4413 90.0908 27.2727 90.2226 27.068C90.6151 26.5357 90.905 25.9348 91.0772 25.2961C91.1805 24.3825 91.1805 23.4601 91.0772 22.5465C91.24 21.6578 91.24 20.7468 91.0772 19.8581H90.8941ZM103.103 19.8581C102.997 19.1965 102.7 18.5803 102.248 18.0862C102.116 17.8815 101.936 17.7129 101.723 17.5956C101.51 17.4782 101.271 17.4158 101.027 17.4141C100.775 17.4112 100.525 17.4711 100.302 17.5884C100.078 17.7057 99.8868 17.8767 99.7454 18.0862C99.3667 18.6267 99.0781 19.2251 98.8908 19.8581C98.6899 20.7402 98.5875 21.6419 98.5855 22.5465C98.583 23.4717 98.6854 24.3941 98.8908 25.2961C99.0251 25.9483 99.3187 26.5571 99.7454 27.068C99.8713 27.2643 100.042 27.4277 100.244 27.5446C100.446 27.6615 100.672 27.7285 100.905 27.7401C101.148 27.7384 101.387 27.676 101.601 27.5586C101.814 27.4413 101.994 27.2727 102.126 27.068C102.543 26.5507 102.835 25.9445 102.981 25.2961C103.216 24.3995 103.319 23.4731 103.286 22.5465C103.388 21.6533 103.388 20.7514 103.286 19.8581H103.103ZM90.8941 19.8581C90.7597 19.2059 90.4661 18.5971 90.0394 18.0862C89.9296 17.9146 89.7867 17.7668 89.6189 17.6513C89.4512 17.5359 89.2621 17.4552 89.0627 17.4141C88.8195 17.4158 88.5805 17.4782 88.3674 17.5956C88.1542 17.7129 87.9736 17.8815 87.8419 18.0862C87.437 18.6109 87.1459 19.2144 86.9873 19.8581C86.7864 20.7402 86.6841 21.6419 86.682 22.5465C86.6488 23.4731 86.7516 24.3995 86.9873 25.2961C87.0927 25.9577 87.3898 26.5739 87.8419 27.068C87.9678 27.2643 88.1388 27.4277 88.3405 27.5446C88.5422 27.6615 88.7689 27.7285 89.0017 27.7401C89.2449 27.7384 89.4839 27.676 89.6971 27.5586C89.9102 27.4413 90.0908 27.2727 90.2226 27.068C90.6151 26.5357 90.905 25.9348 91.0772 25.2961C91.1805 24.3825 91.1805 23.4601 91.0772 22.5465C91.24 21.6578 91.24 20.7468 91.0772 19.8581H90.8941ZM103.103 19.8581C102.997 19.1965 102.7 18.5803 102.248 18.0862C102.116 17.8815 101.936 17.7129 101.723 17.5956C101.51 17.4782 101.271 17.4158 101.027 17.4141C100.775 17.4112 100.525 17.4711 100.302 17.5884C100.078 17.7057 99.8868 17.8767 99.7454 18.0862C99.3667 18.6267 99.0781 19.2251 98.8908 19.8581C98.6899 20.7402 98.5875 21.6419 98.5855 22.5465C98.583 23.4717 98.6854 24.3941 98.8908 25.2961C99.0251 25.9483 99.3187 26.5571 99.7454 27.068C99.8713 27.2643 100.042 27.4277 100.244 27.5446C100.446 27.6615 100.672 27.7285 100.905 27.7401C101.148 27.7384 101.387 27.676 101.601 27.5586C101.814 27.4413 101.994 27.2727 102.126 27.068C102.543 26.5507 102.835 25.9445 102.981 25.2961C103.216 24.3995 103.319 23.4731 103.286 22.5465C103.388 21.6533 103.388 20.7514 103.286 19.8581H103.103ZM90.8941 19.8581C90.7597 19.2059 90.4661 18.5971 90.0394 18.0862C89.9296 17.9146 89.7867 17.7668 89.6189 17.6513C89.4512 17.5359 89.2621 17.4552 89.0627 17.4141C88.8195 17.4158 88.5805 17.4782 88.3674 17.5956C88.1542 17.7129 87.9736 17.8815 87.8419 18.0862C87.437 18.6109 87.1459 19.2144 86.9873 19.8581C86.7864 20.7402 86.6841 21.6419 86.682 22.5465C86.6488 23.4731 86.7516 24.3995 86.9873 25.2961C87.0927 25.9577 87.3898 26.5739 87.8419 27.068C87.9678 27.2643 88.1388 27.4277 88.3405 27.5446C88.5422 27.6615 88.7689 27.7285 89.0017 27.7401C89.2449 27.7384 89.4839 27.676 89.6971 27.5586C89.9102 27.4413 90.0908 27.2727 90.2226 27.068C90.6151 26.5357 90.905 25.9348 91.0772 25.2961C91.1805 24.3825 91.1805 23.4601 91.0772 22.5465C91.24 21.6578 91.24 20.7468 91.0772 19.8581H90.8941ZM103.103 19.8581C102.997 19.1965 102.7 18.5803 102.248 18.0862C102.116 17.8815 101.936 17.7129 101.723 17.5956C101.51 17.4782 101.271 17.4158 101.027 17.4141C100.775 17.4112 100.525 17.4711 100.302 17.5884C100.078 17.7057 99.8868 17.8767 99.7454 18.0862C99.3667 18.6267 99.0781 19.2251 98.8908 19.8581C98.6899 20.7402 98.5875 21.6419 98.5855 22.5465C98.583 23.4717 98.6854 24.3941 98.8908 25.2961C99.0251 25.9483 99.3187 26.5571 99.7454 27.068C99.8713 27.2643 100.042 27.4277 100.244 27.5446C100.446 27.6615 100.672 27.7285 100.905 27.7401C101.148 27.7384 101.387 27.676 101.601 27.5586C101.814 27.4413 101.994 27.2727 102.126 27.068C102.543 26.5507 102.835 25.9445 102.981 25.2961C103.216 24.3995 103.319 23.4731 103.286 22.5465C103.388 21.6533 103.388 20.7514 103.286 19.8581H103.103ZM90.8941 19.8581C90.7597 19.2059 90.4661 18.5971 90.0394 18.0862C89.9296 17.9146 89.7867 17.7668 89.6189 17.6513C89.4512 17.5359 89.2621 17.4552 89.0627 17.4141C88.8195 17.4158 88.5805 17.4782 88.3674 17.5956C88.1542 17.7129 87.9736 17.8815 87.8419 18.0862C87.437 18.6109 87.1459 19.2144 86.9873 19.8581C86.7864 20.7402 86.6841 21.6419 86.682 22.5465C86.6488 23.4731 86.7516 24.3995 86.9873 25.2961C87.0927 25.9577 87.3898 26.5739 87.8419 27.068C87.9678 27.2643 88.1388 27.4277 88.3405 27.5446C88.5422 27.6615 88.7689 27.7285 89.0017 27.7401C89.2449 27.7384 89.4839 27.676 89.6971 27.5586C89.9102 27.4413 90.0908 27.2727 90.2226 27.068C90.6151 26.5357 90.905 25.9348 91.0772 25.2961C91.1805 24.3825 91.1805 23.4601 91.0772 22.5465C91.24 21.6578 91.24 20.7468 91.0772 19.8581H90.8941ZM103.103 19.8581C102.997 19.1965 102.7 18.5803 102.248 18.0862C102.116 17.8815 101.936 17.7129 101.723 17.5956C101.51 17.4782 101.271 17.4158 101.027 17.4141C100.775 17.4112 100.525 17.4711 100.302 17.5884C100.078 17.7057 99.8868 17.8767 99.7454 18.0862C99.3667 18.6267 99.0781 19.2251 98.8908 19.8581C98.6899 20.7402 98.5875 21.6419 98.5855 22.5465C98.583 23.4717 98.6854 24.3941 98.8908 25.2961C99.0251 25.9483 99.3187 26.5571 99.7454 27.068C99.8713 27.2643 100.042 27.4277 100.244 27.5446C100.446 27.6615 100.672 27.7285 100.905 27.7401C101.148 27.7384 101.387 27.676 101.601 27.5586C101.814 27.4413 101.994 27.2727 102.126 27.068C102.543 26.5507 102.835 25.9445 102.981 25.2961C103.216 24.3995 103.319 23.4731 103.286 22.5465C103.388 21.6533 103.388 20.7514 103.286 19.8581H103.103ZM90.8941 19.8581C90.7597 19.2059 90.4661 18.5971 90.0394 18.0862C89.9296 17.9146 89.7867 17.7668 89.6189 17.6513C89.4512 17.5359 89.2621 17.4552 89.0627 17.4141C88.8195 17.4158 88.5805 17.4782 88.3674 17.5956C88.1542 17.7129 87.9736 17.8815 87.8419 18.0862C87.437 18.6109 87.1459 19.2144 86.9873 19.8581C86.7864 20.7402 86.6841 21.6419 86.682 22.5465C86.6488 23.4731 86.7516 24.3995 86.9873 25.2961C87.0927 25.9577 87.3898 26.5739 87.8419 27.068C87.9678 27.2643 88.1388 27.4277 88.3405 27.5446C88.5422 27.6615 88.7689 27.7285 89.0017 27.7401C89.2449 27.7384 89.4839 27.676 89.6971 27.5586C89.9102 27.4413 90.0908 27.2727 90.2226 27.068C90.6151 26.5357 90.905 25.9348 91.0772 25.2961C91.1805 24.3825 91.1805 23.4601 91.0772 22.5465C91.24 21.6578 91.24 20.7468 91.0772 19.8581H90.8941ZM103.103 19.8581C102.997 19.1965 102.7 18.5803 102.248 18.0862C102.116 17.8815 101.936 17.7129 101.723 17.5956C101.51 17.4782 101.271 17.4158 101.027 17.4141C100.775 17.4112 100.525 17.4711 100.302 17.5884C100.078 17.7057 99.8868 17.8767 99.7454 18.0862C99.3667 18.6267 99.0781 19.2251 98.8908 19.8581C98.6899 20.7402 98.5875 21.6419 98.5855 22.5465C98.583 23.4717 98.6854 24.3941 98.8908 25.2961C99.0251 25.9483 99.3187 26.5571 99.7454 27.068C99.8713 27.2643 100.042 27.4277 100.244 27.5446C100.446 27.6615 100.672 27.7285 100.905 27.7401C101.148 27.7384 101.387 27.676 101.601 27.5586C101.814 27.4413 101.994 27.2727 102.126 27.068C102.543 26.5507 102.835 25.9445 102.981 25.2961C103.216 24.3995 103.319 23.4731 103.286 22.5465C103.388 21.6533 103.388 20.7514 103.286 19.8581H103.103ZM90.8941 19.8581C90.7597 19.2059 90.4661 18.5971 90.0394 18.0862C89.9296 17.9146 89.7867 17.7668 89.6189 17.6513C89.4512 17.5359 89.2621 17.4552 89.0627 17.4141C88.8195 17.4158 88.5805 17.4782 88.3674 17.5956C88.1542 17.7129 87.9736 17.8815 87.8419 18.0862C87.437 18.6109 87.1459 19.2144 86.9873 19.8581C86.7864 20.7402 86.6841 21.6419 86.682 22.5465C86.6488 23.4731 86.7516 24.3995 86.9873 25.2961C87.0927 25.9577 87.3898 26.5739 87.8419 27.068C87.9678 27.2643 88.1388 27.4277 88.3405 27.5446C88.5422 27.6615 88.7689 27.7285 89.0017 27.7401C89.2449 27.7384 89.4839 27.676 89.6971 27.5586C89.9102 27.4413 90.0908 27.2727 90.2226 27.068C90.6151 26.5357 90.905 25.9348 91.0772 25.2961C91.1805 24.3825 91.1805 23.4601 91.0772 22.5465C91.24 21.6578 91.24 20.7468 91.0772 19.8581H90.8941ZM103.103 19.8581C102.997 19.1965 102.7 18.5803 102.248 18.0862C102.116 17.8815 101.936 17.7129 101.723 17.5956C101.51 17.4782 101.271 17.4158 101.027 17.4141C100.775 17.4112 100.525 17.4711 100.302 17.5884C100.078 17.7057 99.8868 17.8767 99.7454 18.0862C99.3667 18.6267 99.0781 19.2251 98.8908 19.8581C98.6899 20.7402 98.5875 21.6419 98.5855 22.5465C98.583 23.4717 98.6854 24.3941 98.8908 25.2961C99.0251 25.9483 99.3187 26.5571 99.7454 27.068C99.8713 27.2643 100.042 27.4277 100.244 27.5446C100.446 27.6615 100.672 27.7285 100.905 27.7401C101.148 27.7384 101.387 27.676 101.601 27.5586C101.814 27.4413 101.994 27.2727 102.126 27.068C102.543 26.5507 102.835 25.9445 102.981 25.2961C103.216 24.3995 103.319 23.4731 103.286 22.5465C103.388 21.6533 103.388 20.7514 103.286 19.8581H103.103ZM90.8941 19.8581C90.7597 19.2059 90.4661 18.5971 90.0394 18.0862C89.9296 17.9146 89.7867 17.7668 89.6189 17.6513C89.4512 17.5359 89.2621 17.4552 89.0627 17.4141C88.8195 17.4158 88.5805 17.4782 88.3674 17.5956C88.1542 17.7129 87.9736 17.8815 87.8419 18.0862C87.437 18.6109 87.1459 19.2144 86.9873 19.8581C86.7864 20.7402 86.6841 21.6419 86.682 22.5465C86.6488 23.4731 86.7516 24.3995 86.9873 25.2961C87.0927 25.9577 87.3898 26.5739 87.8419 27.068C87.9678 27.2643 88.1388 27.4277 88.3405 27.5446C88.5422 27.6615 88.7689 27.7285 89.0017 27.7401C89.2449 27.7384 89.4839 27.676 89.6971 27.5586C89.9102 27.4413 90.0908 27.2727 90.2226 27.068C90.6151 26.5357 90.905 25.9348 91.0772 25.2961C91.1805 24.3825 91.1805 23.4601 91.0772 22.5465C91.24 21.6578 91.24 20.7468 91.0772 19.8581H90.8941ZM103.103 19.8581C102.997 19.1965 102.7 18.5803 102.248 18.0862C102.116 17.8815 101.936 17.7129 101.723 17.5956C101.51 17.4782 101.271 17.4158 101.027 17.4141C100.775 17.4112 100.525 17.4711 100.302 17.5884C100.078 17.7057 99.8868 17.8767 99.7454 18.0862C99.3667 18.6267 99.0781 19.2251 98.8908 19.8581C98.6899 20.7402 98.5875 21.6419 98.5855 22.5465C98.583 23.4717 98.6854 24.3941 98.8908 25.2961C99.0251 25.9483 99.3187 26.5571 99.7454 27.068C99.8713 27.2643 100.042 27.4277 100.244 27.5446C100.446 27.6615 100.672 27.7285 100.905 27.7401C101.148 27.7384 101.387 27.676 101.601 27.5586C101.814 27.4413 101.994 27.2727 102.126 27.068C102.543 26.5507 102.835 25.9445 102.981 25.2961C103.216 24.3995 103.319 23.4731 103.286 22.5465C103.388 21.6533 103.388 20.7514 103.286 19.8581H103.103ZM90.8941 19.8581C90.7597 19.2059 90.4661 18.5971 90.0394 18.0862C89.9296 17.9146 89.7867 17.7668 89.6189 17.6513C89.4512 17.5359 89.2621 17.4552 89.0627 17.4141C88.8195 17.4158 88.5805 17.4782 88.3674 17.5956C88.1542 17.7129 87.9736 17.8815 87.8419 18.0862C87.437 18.6109 87.1459 19.2144 86.9873 19.8581C86.7864 20.7402 86.6841 21.6419 86.682 22.5465C86.6488 23.4731 86.7516 24.3995 86.9873 25.2961C87.0927 25.9577 87.3898 26.5739 87.8419 27.068C87.9678 27.2643 88.1388 27.4277 88.3405 27.5446C88.5422 27.6615 88.7689 27.7285 89.0017 27.7401C89.2449 27.7384 89.4839 27.676 89.6971 27.5586C89.9102 27.4413 90.0908 27.2727 90.2226 27.068C90.6151 26.5357 90.905 25.9348 91.0772 25.2961C91.1805 24.3825 91.1805 23.4601 91.0772 22.5465C91.24 21.6578 91.24 20.7468 91.0772 19.8581H90.8941ZM103.103 19.8581C102.997 19.1965 102.7 18.5803 102.248 18.0862C102.116 17.8815 101.936 17.7129 101.723 17.5956C101.51 17.4782 101.271 17.4158 101.027 17.4141C100.775 17.4112 100.525 17.4711 100.302 17.5884C100.078 17.7057 99.8868 17.8767 99.7454 18.0862C99.3667 18.6267 99.0781 19.2251 98.8908 19.8581C98.6899 20.7402 98.5875 21.6419 98.5855 22.5465C98.583 23.4717 98.6854 24.3941 98.8908 25.2961C99.0251 25.9483 99.3187 26.5571 99.7454 27.068C99.8713 27.2643 100.042 27.4277 100.244 27.5446C100.446 27.6615 100.672 27.7285 100.905 27.7401C101.148 27.7384 101.387 27.676 101.601 27.5586C101.814 27.4413 101.994 27.2727 102.126 27.068C102.543 26.5507 102.835 25.9445 102.981 25.2961C103.216 24.3995 103.319 23.4731 103.286 22.5465C103.388 21.6533 103.388 20.7514 103.286 19.8581H103.103ZM190.456 78.2706C189.487 79.1593 188.422 79.938 187.282 80.5924C181.727 83.8308 177.088 84.3807 178.37 85.2972C179.651 86.2137 183.619 84.4418 184.474 86.0304C185.329 87.619 185.512 89.6354 180.262 93.057C176.294 95.6843 170.922 95.3788 172.082 96.662C173.242 97.9451 177.881 96.0509 176.599 100.634C175.114 106.13 172.212 111.14 168.184 115.161C164.155 119.183 159.143 122.074 153.647 123.546C142.924 125.883 131.887 126.42 120.989 125.135C121.599 126.357 122.209 127.762 122.881 128.984C130.145 144.443 175.989 118.047 162.315 136.378C160.685 138.403 159.66 140.849 159.357 143.432C159.055 146.016 159.488 148.633 160.606 150.981C162.498 154.769 160.179 158.74 152.731 160.635C151.09 161.072 149.586 161.917 148.358 163.092C147.131 164.267 146.22 165.734 145.711 167.356C143.392 174.749 122.942 175.543 111.466 155.136C104.568 142.915 79.9673 156.052 70.4445 129.901C61.8373 106.438 68.6742 96.9064 68.3079 91.835C67.8196 82.9143 61.7152 81.3256 59.9449 82.9143C58.1747 84.5029 56.7707 85.3583 55.5498 85.4805C55.3552 85.4966 55.1597 85.4659 54.9794 85.3907C54.7992 85.3156 54.6396 85.1983 54.5141 85.0487C54.3885 84.899 54.3006 84.7214 54.2578 84.5308C54.215 84.3401 54.2184 84.142 54.2679 83.953C54.6629 82.7723 54.8488 81.5316 54.8173 80.2869C54.7086 78.1176 54.4845 75.9556 54.1458 73.8102C54.0588 70.9269 54.9639 68.1012 56.7096 65.806C59.5176 62.1399 65.0726 55.4188 82.8363 71.9161C86.682 75.6432 90.4057 79.4926 93.8242 83.5253C101.644 76.1734 108.625 67.9766 114.64 59.0849C118.292 53.7288 121.131 47.8605 123.064 41.6711C123.797 38.9216 125.262 27.9845 129.779 33.9724C130.803 35.5441 131.471 37.3217 131.735 39.1797C131.998 41.0377 131.852 42.9311 131.305 44.7262C130.267 47.3535 133.38 41.7933 135.273 43.1376C137.165 44.4818 135.273 50.2864 135.7 52.0583C136.127 53.8302 137.898 50.5919 139.485 50.7141C140.006 50.8983 140.477 51.1999 140.863 51.5956C141.249 51.9913 141.538 52.4706 141.709 52.9962C141.88 53.5219 141.928 54.0799 141.85 54.6271C141.771 55.1744 141.567 55.6961 141.255 56.1521C139.79 58.7183 141.988 60.4902 143.269 59.3293C143.349 59.248 143.444 59.1834 143.549 59.1394C143.654 59.0953 143.766 59.0726 143.88 59.0726C143.994 59.0726 144.106 59.0953 144.211 59.1394C144.316 59.1834 144.411 59.248 144.49 59.3293C140.034 61.7733 135.273 63.973 130.572 66.1726C123.151 69.6195 116.113 73.8383 109.573 78.7594C106.324 81.1995 103.207 83.8102 100.234 86.5803C99.3552 87.3267 98.5196 88.1223 97.7309 88.9632C97.9005 89.2341 98.1058 89.4807 98.3414 89.6965C108.639 81.1754 120.355 74.5362 132.953 70.0831C136.881 68.6564 140.598 66.7038 144.002 64.2785C154.659 56.6999 163.844 47.2369 171.105 36.3554C170.678 35.7443 170.129 35.1944 169.64 34.5834C160.737 23.7646 149.552 15.0529 136.887 9.07356C124.222 3.09425 110.391 -0.00430497 96.388 0.000310382C83.7417 -0.0318375 71.2133 2.4336 59.5204 7.25542C47.8275 12.0772 37.1999 19.1607 28.2462 28.1C19.2926 37.0394 12.1888 47.659 7.34191 59.3506C2.49498 71.0422 7.82127e-05 83.576 0.000118997 96.2343C-0.026542 113.166 4.42725 129.802 12.9085 144.452C21.3898 159.101 33.596 171.241 48.2856 179.637C54.0866 183.017 60.2242 185.781 66.5987 187.886C58.8874 179.782 52.4827 170.526 47.6141 160.451C44.4121 161.185 41.1063 161.35 37.8472 160.94C36.2611 160.734 34.7043 160.344 33.2078 159.779C31.705 159.262 30.2703 158.564 28.9348 157.702C27.5357 156.819 26.2625 155.75 25.1501 154.525C24.5518 153.938 24.0007 153.304 23.5019 152.63C22.9241 151.977 22.3937 151.282 21.9148 150.553C20.9271 148.976 20.0697 147.321 19.351 145.604C18.955 144.741 18.6482 143.84 18.4353 142.915C18.1337 141.932 17.8891 140.933 17.7028 139.921C21.0661 139.827 24.4234 140.26 27.6529 141.205C30.6639 142.005 33.4859 143.396 35.9548 145.298C37.1146 146.276 38.3965 147.192 39.5564 148.231C40.7215 149.316 41.7653 150.525 42.6696 151.836L44.8061 154.647C44.3788 153.669 43.8905 152.753 43.4632 151.775L40.8993 146.093C40.472 145.176 40.1668 144.198 39.7395 143.282C39.6652 142.988 39.563 142.701 39.4343 142.427C39.1291 141.571 38.8239 140.838 38.5186 140.044C38.2134 139.249 37.8472 138.455 37.5419 137.6L36.6263 134.789C36.0769 133.017 35.4665 131.184 34.9171 129.534C31.6894 129.448 28.4957 128.85 25.4553 127.762C23.9862 127.19 22.5585 126.516 21.1823 125.746C20.5718 125.318 19.8393 124.891 19.1678 124.341C18.533 123.909 17.9403 123.418 17.3975 122.874C16.2303 121.796 15.1675 120.609 14.2233 119.33C13.276 117.974 12.4777 116.52 11.8426 114.992C11.1683 113.414 10.6371 111.778 10.2554 110.104C10.0288 109.244 9.88572 108.364 9.82814 107.477C9.76734 106.521 9.76734 105.561 9.82814 104.605C13.1533 105.054 16.3873 106.023 19.412 107.477C22.1275 108.806 24.5868 110.606 26.6762 112.793C27.2115 113.321 27.7016 113.893 28.1412 114.503L29.4842 116.275C30.398 117.535 31.2143 118.863 31.9259 120.247C32.2221 120.983 32.5688 121.697 32.9637 122.385C32.9637 122.385 32.9637 122.874 33.2689 123.119C32.8416 121.652 32.5364 120.125 32.2311 118.658C31.9259 117.192 31.3765 115.298 31.0713 113.648C30.7661 111.998 30.644 111.326 30.4609 110.165C30.2778 109.004 30.1557 108.516 30.0336 107.66C29.4232 104.055 28.9958 100.695 28.6296 97.5785C25.5595 96.9266 22.5991 95.836 19.8393 94.3401C17.1231 92.8062 14.7537 90.7258 12.8803 88.23C11.968 87.0461 11.1708 85.7776 10.4996 84.4418C10.4996 83.7086 9.88919 83.0976 9.52293 82.3643C9.15667 81.6311 9.09561 80.8979 8.91248 80.1647C8.14444 76.8688 8.14444 73.4401 8.91248 70.1442C12.0969 70.8992 15.1036 72.269 17.7638 74.1768C20.1376 75.8433 22.2033 77.9109 23.8682 80.2869C25.4524 82.7293 26.6853 85.3826 27.5308 88.1689C27.7516 88.9088 27.9148 89.6646 28.0191 90.4297C28.0191 90.4297 28.0191 90.7963 28.0191 91.0407C28.0191 87.4357 27.5918 84.3196 27.5918 81.57V76.4376C27.5235 75.1757 27.5235 73.9111 27.5918 72.6493C27.0809 71.9445 26.612 71.21 26.1878 70.4497C25.5219 69.161 24.9308 67.835 24.4176 66.4781C23.9969 65.1836 23.6905 63.8547 23.5019 62.5065C23.4384 61.8359 23.4384 61.1608 23.5019 60.4902V59.5737C23.4378 59.251 23.4378 58.9188 23.5019 58.5961C23.7756 56.023 24.6091 53.5412 25.9437 51.3251C27.5432 48.8949 29.6201 46.816 32.048 45.215C33.7506 47.5675 34.9934 50.2211 35.7106 53.0359C36.3936 55.3764 36.5397 57.841 36.1379 60.2458C36.1723 60.5708 36.1723 60.8985 36.1379 61.2234C36.1379 61.5289 36.1379 61.8344 36.1379 62.0788C36.0322 62.6838 35.8687 63.2771 35.6496 63.8508C35.1969 65.045 34.6667 66.2084 34.0625 67.3335C33.4175 68.5281 32.6829 69.6719 31.8649 70.7552C31.4111 71.4518 30.9221 72.1248 30.3998 72.7715C30.3998 73.8102 30.3998 75.0322 30.3998 76.4987V81.3867C30.3998 80.6535 30.7051 80.0425 30.8271 79.3093C31.0654 78.1432 31.4554 77.0134 31.987 75.9488C32.5236 74.8941 33.1571 73.8918 33.8793 72.9548C35.3202 71.168 37.1602 69.7448 39.2512 68.7999C41.5115 67.9131 43.9059 67.4173 46.3322 67.3335C46.3322 67.9445 46.3322 68.6166 46.3322 69.2277V70.9996C46.2586 72.1395 46.0537 73.2672 45.7218 74.3601C45.6207 74.8856 45.4129 75.3847 45.1113 75.8266C44.9042 76.333 44.6593 76.8232 44.3788 77.293C43.8542 78.2406 43.2189 79.1226 42.4865 79.9203C39.1373 83.5467 34.847 86.1698 30.0946 87.4968C30.4609 92.3238 30.9492 98.1284 31.9259 104.544C31.9259 103.811 31.9259 103.078 31.9259 102.344C32.098 100.959 32.3838 99.5894 32.7805 98.2506C33.1753 96.935 33.7505 95.6807 34.4898 94.5234C35.1087 93.38 35.9132 92.3476 36.8705 91.4684C37.88 90.5478 38.9619 89.7101 40.1058 88.9632C42.8317 87.3829 45.8374 86.3455 48.9571 85.9082C49.2821 87.2913 49.4662 88.7039 49.5065 90.1242C49.6602 91.4231 49.6602 92.7357 49.5065 94.0346C49.2961 95.2666 48.9053 96.4607 48.3467 97.5785C47.8777 98.7585 47.2843 99.8851 46.5764 100.939C43.119 105.581 38.4814 109.21 33.1468 111.448C33.1468 112.182 33.1468 112.854 33.5741 113.587C34.0014 114.32 34.3066 116.825 34.7339 118.475C34.9206 119.446 35.1652 120.405 35.4665 121.347C35.4665 122.202 35.8938 122.935 36.0769 123.73C36.6263 125.44 37.0536 127.09 37.5419 128.923C38.0303 130.756 38.8239 132.467 39.3122 134.239C39.3122 134.789 39.7395 135.4 39.9837 135.95C40.0352 135.812 40.0352 135.66 39.9837 135.522C39.9837 134.667 39.9837 133.934 39.6785 133.2C39.5562 131.736 39.5562 130.265 39.6785 128.801C39.689 127.238 39.8732 125.68 40.2279 124.157C41.3861 121.36 43.1463 118.853 45.3832 116.815C47.6201 114.777 50.2785 113.257 53.1691 112.365C53.7446 113.684 54.1942 115.055 54.5121 116.459C54.8353 117.739 55.0195 119.05 55.0615 120.369C55.1219 120.999 55.1219 121.633 55.0615 122.263C55.0615 122.569 55.0615 122.874 55.0615 123.18C55.0615 123.485 55.0615 123.852 55.0615 124.157C54.7873 125.452 54.3992 126.72 53.9016 127.946C53.3622 129.236 52.6869 130.465 51.8872 131.612C51.1436 132.904 50.2636 134.112 49.2623 135.217C47.2088 137.493 44.9167 139.541 42.4254 141.327C42.8527 142.304 43.1579 143.221 43.5853 144.076C44.4399 145.97 45.2945 147.742 46.088 149.636L46.7595 151.103C47.1868 151.836 47.4921 152.569 47.9194 153.303L48.835 155.197C50.4221 158.374 52.1924 161.307 54.0848 164.545C54.1116 164.342 54.1116 164.137 54.0848 163.934C53.7859 163.22 53.541 162.485 53.3522 161.734C52.9209 160.3 52.6346 158.827 52.4976 157.335C52.3454 155.852 52.3454 154.358 52.4976 152.875C53.1029 149.735 54.3756 146.763 56.2293 144.159C58.0829 141.555 60.4743 139.381 63.2413 137.783C64.1069 138.942 64.8055 140.217 65.3168 141.571C65.9156 142.769 66.347 144.044 66.5987 145.359C67.1169 147.982 67.1169 150.68 66.5987 153.303C66.2924 154.742 65.8635 156.152 65.3168 157.518C64.7999 159.002 64.1882 160.451 63.4855 161.857C61.8918 164.824 60.0108 167.628 57.8695 170.227C59.8839 173.283 65.8662 180.859 65.8662 180.859C67.3312 182.509 70.9938 186.236 74.1681 189.352C76.6709 189.963 79.2347 190.391 81.7375 190.818C84.2403 191.246 86.3768 191.491 88.6354 191.674C90.8941 191.857 93.8242 191.979 96.3269 191.979H99.8064C104.068 192.069 108.331 191.865 112.565 191.368C116.467 190.684 120.321 189.745 124.102 188.558C124.102 188.558 124.59 188.558 124.834 188.558C144.298 182.395 161.297 170.192 173.369 153.714C185.442 137.236 191.961 117.34 191.982 96.9064C192.107 90.8785 191.575 84.8551 190.395 78.9427L190.456 78.2706ZM109.268 24.1352C109.518 23.9318 109.831 23.8207 110.153 23.8207C110.476 23.8207 110.788 23.9318 111.038 24.1352C111.123 24.414 111.123 24.7118 111.038 24.9906C111.114 25.5049 111.325 25.9899 111.649 26.3959C111.876 26.807 112.215 27.1458 112.626 27.3735C113.032 27.5826 113.481 27.6916 113.938 27.6916C114.395 27.6916 114.844 27.5826 115.25 27.3735C115.672 27.1802 116.001 26.8292 116.166 26.3959C116.299 25.9576 116.299 25.49 116.166 25.0517C116.292 24.6124 116.292 24.1467 116.166 23.7075C115.981 23.2866 115.658 22.9417 115.25 22.7299C114.787 22.6326 114.309 22.6326 113.846 22.7299H110.733C110.456 22.823 110.156 22.823 109.879 22.7299C109.773 22.6151 109.691 22.4802 109.639 22.3333C109.587 22.1863 109.564 22.0302 109.573 21.8744V16.131C109.556 15.9837 109.575 15.8345 109.628 15.6962C109.681 15.5578 109.767 15.4345 109.879 15.3366C109.983 15.2087 110.113 15.1044 110.26 15.0306C110.407 14.9569 110.569 14.9154 110.733 14.9089H116.838C117.006 14.8946 117.174 14.9269 117.325 15.0024C117.476 15.0778 117.603 15.1935 117.692 15.3366C117.891 15.5532 118 15.8371 117.997 16.131C118.009 16.4448 117.9 16.7511 117.692 16.9864C117.473 17.2338 117.167 17.3871 116.838 17.4141H111.771V20.2858H113.663C114.573 20.2912 115.47 20.5 116.288 20.8968C117.042 21.3452 117.672 21.9754 118.12 22.7299C118.535 23.5422 118.745 24.4445 118.73 25.3572C118.754 26.2319 118.543 27.097 118.12 27.8623C117.67 28.5994 117.039 29.2093 116.288 29.6343C115.487 30.0773 114.578 30.2888 113.663 30.2453C112.789 30.2695 111.925 30.0585 111.161 29.6343C110.428 29.2054 109.819 28.5952 109.39 27.8623C108.966 27.097 108.756 26.2319 108.78 25.3572C108.657 25.0429 108.657 24.6939 108.78 24.3796L109.268 24.1352ZM97.0595 18.4528C97.4221 17.4866 97.9602 16.5958 98.6466 15.8254C99.3797 15.2081 100.314 14.882 101.271 14.9089C102.229 14.882 103.163 15.2081 103.896 15.8254C104.667 16.5305 105.218 17.4426 105.483 18.4528C105.845 19.7666 106.03 21.1228 106.033 22.4854C106.026 23.8278 105.841 25.1632 105.483 26.457C105.186 27.4537 104.64 28.3581 103.896 29.0843C103.169 29.7187 102.236 30.0663 101.271 30.062C100.307 30.0663 99.3737 29.7187 98.6466 29.0843C97.8156 28.3842 97.219 27.4459 96.9374 26.3959C96.606 25.0983 96.4419 23.7636 96.449 22.4243C96.4174 21.0837 96.5819 19.7457 96.9374 18.4528H97.0595ZM84.8507 18.4528C85.166 17.4643 85.7098 16.5641 86.4379 15.8254C87.171 15.2081 88.1051 14.882 89.0627 14.9089C90.0204 14.882 90.9545 15.2081 91.6876 15.8254C92.4578 16.5305 93.0088 17.4426 93.2748 18.4528C93.6133 19.7698 93.7775 21.1256 93.7631 22.4854C93.7743 23.825 93.6101 25.1602 93.2748 26.457C92.9778 27.4537 92.4315 28.3581 91.6876 29.0843C90.9605 29.7187 90.0273 30.0663 89.0627 30.062C88.0982 30.0663 87.165 29.7187 86.4379 29.0843C85.5649 28.4107 84.9418 27.4645 84.6676 26.3959C84.3363 25.0983 84.1722 23.7636 84.1793 22.4243C84.1774 21.0854 84.3414 19.7513 84.6676 18.4528H84.8507ZM78.7464 18.4528C78.6057 18.093 78.3475 17.7915 78.0139 17.5974C77.6375 17.4716 77.2304 17.4716 76.854 17.5974C76.4776 17.4716 76.0706 17.4716 75.6942 17.5974C75.3519 17.8185 75.0605 18.1101 74.8396 18.4528C74.6468 18.8318 74.5424 19.2496 74.5344 19.6748C74.6274 19.9523 74.6274 20.2527 74.5344 20.5302C74.2959 20.7581 73.9789 20.8852 73.6492 20.8852C73.3196 20.8852 73.0026 20.7581 72.7641 20.5302C72.6443 20.4231 72.5494 20.291 72.4861 20.1432C72.4228 19.9954 72.3927 19.8355 72.3978 19.6748C72.4051 18.8347 72.6369 18.0119 73.0693 17.2919C73.454 16.5829 74.0236 15.9916 74.7175 15.581C75.4571 15.1499 76.3039 14.938 77.1592 14.97C77.9749 14.9478 78.7798 15.1599 79.4789 15.581C80.1086 16.0304 80.63 16.6149 81.005 17.2919C81.3873 18.0703 81.5758 18.9298 81.5544 19.797C81.5343 20.2598 81.4309 20.7152 81.2492 21.1412L80.5777 22.4243C80.3431 22.7925 80.0776 23.14 79.7841 23.4631L75.8773 27.8623H80.5777C80.7388 27.8527 80.8999 27.8808 81.0483 27.9445C81.1967 28.0081 81.3281 28.1055 81.4323 28.2289C81.5435 28.3268 81.6294 28.4501 81.6826 28.5885C81.7358 28.7268 81.7546 28.876 81.7375 29.0232C81.7596 29.1799 81.7433 29.3396 81.6902 29.4886C81.637 29.6376 81.5485 29.7714 81.4323 29.8787C81.3345 30.0133 81.2058 30.1224 81.0571 30.1968C80.9084 30.2713 80.7439 30.3088 80.5777 30.3064H73.6798C73.5135 30.3088 73.3491 30.2713 73.2003 30.1968C73.0516 30.1224 72.9229 30.0133 72.8251 29.8787C72.6174 29.6434 72.5081 29.337 72.5199 29.0232C72.5175 28.7294 72.6266 28.4455 72.8251 28.2289L78.0749 22.1188L78.9295 20.9579C79.1113 20.6852 79.2167 20.3687 79.2347 20.0414C79.4186 19.5699 79.4186 19.0465 79.2347 18.575L78.7464 18.4528ZM100.173 27.1291C100.293 27.3175 100.454 27.476 100.644 27.5925C100.835 27.709 101.049 27.7804 101.271 27.8012C101.524 27.8041 101.773 27.7442 101.997 27.6269C102.221 27.5096 102.412 27.3386 102.553 27.1291C102.932 26.5886 103.221 25.9902 103.408 25.3572C103.609 24.4751 103.711 23.5734 103.713 22.6687C103.716 21.7436 103.613 20.8212 103.408 19.9192C103.274 19.267 102.98 18.6582 102.553 18.1473C102.419 17.9265 102.231 17.7434 102.007 17.6152C101.783 17.4869 101.53 17.4177 101.271 17.4141C101.028 17.4158 100.789 17.4782 100.576 17.5956C100.363 17.7129 100.182 17.8815 100.051 18.0862C99.6819 18.6325 99.3941 19.2293 99.196 19.8581C98.9906 20.7601 98.8882 21.6825 98.8908 22.6077C98.8875 23.5126 98.9899 24.4149 99.196 25.2961C99.3678 25.9142 99.6137 26.5091 99.9285 27.068L100.173 27.1291ZM87.964 27.1291C88.0899 27.3254 88.2609 27.4888 88.4626 27.6057C88.6643 27.7226 88.891 27.7896 89.1238 27.8012C89.3763 27.8041 89.6257 27.7442 89.8494 27.6269C90.0731 27.5096 90.2643 27.3386 90.4057 27.1291C90.7874 26.5984 91.0574 25.9955 91.1993 25.3572C91.4531 24.484 91.5765 23.5781 91.5655 22.6687C91.5807 21.7391 91.4573 20.8124 91.1993 19.9192C91.1113 19.2643 90.8356 18.6488 90.4057 18.1473C90.2617 17.9217 90.0631 17.7362 89.8283 17.608C89.5935 17.4799 89.3302 17.4131 89.0627 17.4141C88.8111 17.4164 88.5637 17.4785 88.3408 17.5954C88.1179 17.7122 87.926 17.8805 87.7808 18.0862C87.4099 18.623 87.1408 19.2237 86.9873 19.8581C86.7292 20.7513 86.6058 21.678 86.621 22.6077C86.6054 23.5172 86.7289 24.4239 86.9873 25.2961C87.1367 25.9216 87.384 26.5196 87.7198 27.068L87.964 27.1291ZM103.408 19.9192C103.303 19.2576 103.005 18.6414 102.553 18.1473C102.422 17.9426 102.241 17.774 102.028 17.6567C101.815 17.5393 101.576 17.4769 101.333 17.4752C101.08 17.4723 100.831 17.5322 100.607 17.6495C100.383 17.7668 100.192 17.9378 100.051 18.1473C99.672 18.6878 99.3833 19.2862 99.196 19.9192C98.9951 20.8013 98.8928 21.703 98.8908 22.6077C98.8882 23.5328 98.9906 24.4552 99.196 25.3572C99.3303 26.0094 99.6239 26.6182 100.051 27.1291C100.177 27.3254 100.348 27.4888 100.549 27.6057C100.751 27.7226 100.978 27.7896 101.21 27.8012C101.454 27.7995 101.693 27.7371 101.906 27.6197C102.119 27.5024 102.3 27.3338 102.431 27.1291C102.848 26.6118 103.14 26.0056 103.286 25.3572C103.522 24.4606 103.624 23.5342 103.591 22.6077C103.693 21.7144 103.693 20.8125 103.591 19.9192H103.408ZM91.1993 19.9192C91.0649 19.267 90.7713 18.6582 90.3447 18.1473C90.2104 17.9265 90.0224 17.7434 89.7982 17.6152C89.574 17.4869 89.3209 17.4177 89.0627 17.4141C88.8195 17.4158 88.5805 17.4782 88.3674 17.5956C88.1542 17.7129 87.9736 17.8815 87.8419 18.0862C87.437 18.6109 87.1459 19.2144 86.9873 19.8581C86.7864 20.7402 86.6841 21.6419 86.682 22.5465C86.6488 23.4731 86.7516 24.3995 86.9873 25.2961C87.0927 25.9577 87.3898 26.5739 87.8419 27.068C87.9678 27.2643 88.1388 27.4277 88.3405 27.5446C88.5422 27.6615 88.7689 27.7285 89.0017 27.7401C89.2449 27.7384 89.4839 27.676 89.6971 27.5586C89.9102 27.4413 90.0908 27.2727 90.2226 27.068C90.6151 26.5357 90.905 25.9348 91.0772 25.2961C91.1805 24.3825 91.1805 23.4601 91.0772 22.5465C91.24 21.6578 91.24 20.7468 91.0772 19.8581L91.1993 19.9192ZM103.408 19.9192C103.303 19.2576 103.005 18.6414 102.553 18.1473C102.422 17.9426 102.241 17.774 102.028 17.6567C101.815 17.5393 101.576 17.4769 101.333 17.4752C101.08 17.4723 100.831 17.5322 100.607 17.6495C100.383 17.7668 100.192 17.9378 100.051 18.1473C99.672 18.6878 99.3833 19.2862 99.196 19.9192C98.9951 20.8013 98.8928 21.703 98.8908 22.6077C98.8882 23.5328 98.9906 24.4552 99.196 25.3572C99.3303 26.0094 99.6239 26.6182 100.051 27.1291C100.177 27.3254 100.348 27.4888 100.549 27.6057C100.751 27.7226 100.978 27.7896 101.21 27.8012C101.454 27.7995 101.693 27.7371 101.906 27.6197C102.119 27.5024 102.3 27.3338 102.431 27.1291C102.848 26.6118 103.14 26.0056 103.286 25.3572C103.522 24.4606 103.624 23.5342 103.591 22.6077C103.693 21.7144 103.693 20.8125 103.591 19.9192H103.408ZM91.1993 19.9192C91.0649 19.267 90.7713 18.6582 90.3447 18.1473C90.2104 17.9265 90.0224 17.7434 89.7982 17.6152C89.574 17.4869 89.3209 17.4177 89.0627 17.4141C88.8195 17.4158 88.5805 17.4782 88.3674 17.5956C88.1542 17.7129 87.9736 17.8815 87.8419 18.0862C87.437 18.6109 87.1459 19.2144 86.9873 19.8581C86.7864 20.7402 86.6841 21.6419 86.682 22.5465C86.6488 23.4731 86.7516 24.3995 86.9873 25.2961C87.0927 25.9577 87.3898 26.5739 87.8419 27.068C87.9678 27.2643 88.1388 27.4277 88.3405 27.5446C88.5422 27.6615 88.7689 27.7285 89.0017 27.7401C89.2449 27.7384 89.4839 27.676 89.6971 27.5586C89.9102 27.4413 90.0908 27.2727 90.2226 27.068C90.6151 26.5357 90.905 25.9348 91.0772 25.2961C91.1805 24.3825 91.1805 23.4601 91.0772 22.5465C91.24 21.6578 91.24 20.7468 91.0772 19.8581L91.1993 19.9192ZM103.408 19.9192C103.303 19.2576 103.005 18.6414 102.553 18.1473C102.422 17.9426 102.241 17.774 102.028 17.6567C101.815 17.5393 101.576 17.4769 101.333 17.4752C101.08 17.4723 100.831 17.5322 100.607 17.6495C100.383 17.7668 100.192 17.9378 100.051 18.1473C99.672 18.6878 99.3833 19.2862 99.196 19.9192C98.9951 20.8013 98.8928 21.703 98.8908 22.6077C98.8882 23.5328 98.9906 24.4552 99.196 25.3572C99.3303 26.0094 99.6239 26.6182 100.051 27.1291C100.177 27.3254 100.348 27.4888 100.549 27.6057C100.751 27.7226 100.978 27.7896 101.21 27.8012C101.454 27.7995 101.693 27.7371 101.906 27.6197C102.119 27.5024 102.3 27.3338 102.431 27.1291C102.848 26.6118 103.14 26.0056 103.286 25.3572C103.522 24.4606 103.624 23.5342 103.591 22.6077C103.693 21.7144 103.693 20.8125 103.591 19.9192H103.408ZM91.1993 19.9192C91.0649 19.267 90.7713 18.6582 90.3447 18.1473C90.2104 17.9265 90.0224 17.7434 89.7982 17.6152C89.574 17.4869 89.3209 17.4177 89.0627 17.4141C88.8195 17.4158 88.5805 17.4782 88.3674 17.5956C88.1542 17.7129 87.9736 17.8815 87.8419 18.0862C87.437 18.6109 87.1459 19.2144 86.9873 19.8581C86.7864 20.7402 86.6841 21.6419 86.682 22.5465C86.6488 23.4731 86.7516 24.3995 86.9873 25.2961C87.0927 25.9577 87.3898 26.5739 87.8419 27.068C87.9678 27.2643 88.1388 27.4277 88.3405 27.5446C88.5422 27.6615 88.7689 27.7285 89.0017 27.7401C89.2449 27.7384 89.4839 27.676 89.6971 27.5586C89.9102 27.4413 90.0908 27.2727 90.2226 27.068C90.6151 26.5357 90.905 25.9348 91.0772 25.2961C91.1805 24.3825 91.1805 23.4601 91.0772 22.5465C91.24 21.6578 91.24 20.7468 91.0772 19.8581L91.1993 19.9192ZM103.408 19.9192C103.303 19.2576 103.005 18.6414 102.553 18.1473C102.422 17.9426 102.241 17.774 102.028 17.6567C101.815 17.5393 101.576 17.4769 101.333 17.4752C101.08 17.4723 100.831 17.5322 100.607 17.6495C100.383 17.7668 100.192 17.9378 100.051 18.1473C99.672 18.6878 99.3833 19.2862 99.196 19.9192C98.9951 20.8013 98.8928 21.703 98.8908 22.6077C98.8882 23.5328 98.9906 24.4552 99.196 25.3572C99.3303 26.0094 99.6239 26.6182 100.051 27.1291C100.177 27.3254 100.348 27.4888 100.549 27.6057C100.751 27.7226 100.978 27.7896 101.21 27.8012C101.454 27.7995 101.693 27.7371 101.906 27.6197C102.119 27.5024 102.3 27.3338 102.431 27.1291C102.848 26.6118 103.14 26.0056 103.286 25.3572C103.522 24.4606 103.624 23.5342 103.591 22.6077C103.693 21.7144 103.693 20.8125 103.591 19.9192H103.408ZM91.1993 19.9192C91.0649 19.267 90.7713 18.6582 90.3447 18.1473C90.2104 17.9265 90.0224 17.7434 89.7982 17.6152C89.574 17.4869 89.3209 17.4177 89.0627 17.4141C88.8195 17.4158 88.5805 17.4782 88.3674 17.5956C88.1542 17.7129 87.9736 17.8815 87.8419 18.0862C87.437 18.6109 87.1459 19.2144 86.9873 19.8581C86.7864 20.7402 86.6841 21.6419 86.682 22.5465C86.6488 23.4731 86.7516 24.3995 86.9873 25.2961C87.0927 25.9577 87.3898 26.5739 87.8419 27.068C87.9678 27.2643 88.1388 27.4277 88.3405 27.5446C88.5422 27.6615 88.7689 27.7285 89.0017 27.7401C89.2449 27.7384 89.4839 27.676 89.6971 27.5586C89.9102 27.4413 90.0908 27.2727 90.2226 27.068C90.6151 26.5357 90.905 25.9348 91.0772 25.2961C91.1805 24.3825 91.1805 23.4601 91.0772 22.5465C91.24 21.6578 91.24 20.7468 91.0772 19.8581L91.1993 19.9192ZM103.408 19.9192C103.303 19.2576 103.005 18.6414 102.553 18.1473C102.422 17.9426 102.241 17.774 102.028 17.6567C101.815 17.5393 101.576 17.4769 101.333 17.4752C101.08 17.4723 100.831 17.5322 100.607 17.6495C100.383 17.7668 100.192 17.9378 100.051 18.1473C99.672 18.6878 99.3833 19.2862 99.196 19.9192C98.9951 20.8013 98.8928 21.703 98.8908 22.6077C98.8882 23.5328 98.9906 24.4552 99.196 25.3572C99.3303 26.0094 99.6239 26.6182 100.051 27.1291C100.177 27.3254 100.348 27.4888 100.549 27.6057C100.751 27.7226 100.978 27.7896 101.21 27.8012C101.454 27.7995 101.693 27.7371 101.906 27.6197C102.119 27.5024 102.3 27.3338 102.431 27.1291C102.848 26.6118 103.14 26.0056 103.286 25.3572C103.522 24.4606 103.624 23.5342 103.591 22.6077C103.693 21.7144 103.693 20.8125 103.591 19.9192H103.408ZM91.1993 19.9192C91.0649 19.267 90.7713 18.6582 90.3447 18.1473C90.2104 17.9265 90.0224 17.7434 89.7982 17.6152C89.574 17.4869 89.3209 17.4177 89.0627 17.4141C88.8195 17.4158 88.5805 17.4782 88.3674 17.5956C88.1542 17.7129 87.9736 17.8815 87.8419 18.0862C87.437 18.6109 87.1459 19.2144 86.9873 19.8581C86.7864 20.7402 86.6841 21.6419 86.682 22.5465C86.6488 23.4731 86.7516 24.3995 86.9873 25.2961C87.0927 25.9577 87.3898 26.5739 87.8419 27.068C87.9678 27.2643 88.1388 27.4277 88.3405 27.5446C88.5422 27.6615 88.7689 27.7285 89.0017 27.7401C89.2449 27.7384 89.4839 27.676 89.6971 27.5586C89.9102 27.4413 90.0908 27.2727 90.2226 27.068C90.6151 26.5357 90.905 25.9348 91.0772 25.2961C91.1805 24.3825 91.1805 23.4601 91.0772 22.5465C91.24 21.6578 91.24 20.7468 91.0772 19.8581L91.1993 19.9192ZM103.408 19.9192C103.303 19.2576 103.005 18.6414 102.553 18.1473C102.422 17.9426 102.241 17.774 102.028 17.6567C101.815 17.5393 101.576 17.4769 101.333 17.4752C101.08 17.4723 100.831 17.5322 100.607 17.6495C100.383 17.7668 100.192 17.9378 100.051 18.1473C99.672 18.6878 99.3833 19.2862 99.196 19.9192C98.9951 20.8013 98.8928 21.703 98.8908 22.6077C98.8882 23.5328 98.9906 24.4552 99.196 25.3572C99.3303 26.0094 99.6239 26.6182 100.051 27.1291C100.177 27.3254 100.348 27.4888 100.549 27.6057C100.751 27.7226 100.978 27.7896 101.21 27.8012C101.454 27.7995 101.693 27.7371 101.906 27.6197C102.119 27.5024 102.3 27.3338 102.431 27.1291C102.848 26.6118 103.14 26.0056 103.286 25.3572C103.522 24.4606 103.624 23.5342 103.591 22.6077C103.693 21.7144 103.693 20.8125 103.591 19.9192H103.408ZM91.1993 19.9192C91.0649 19.267 90.7713 18.6582 90.3447 18.1473C90.2104 17.9265 90.0224 17.7434 89.7982 17.6152C89.574 17.4869 89.3209 17.4177 89.0627 17.4141C88.8195 17.4158 88.5805 17.4782 88.3674 17.5956C88.1542 17.7129 87.9736 17.8815 87.8419 18.0862C87.437 18.6109 87.1459 19.2144 86.9873 19.8581C86.7864 20.7402 86.6841 21.6419 86.682 22.5465C86.6488 23.4731 86.7516 24.3995 86.9873 25.2961C87.0927 25.9577 87.3898 26.5739 87.8419 27.068C87.9678 27.2643 88.1388 27.4277 88.3405 27.5446C88.5422 27.6615 88.7689 27.7285 89.0017 27.7401C89.2449 27.7384 89.4839 27.676 89.6971 27.5586C89.9102 27.4413 90.0908 27.2727 90.2226 27.068C90.6151 26.5357 90.905 25.9348 91.0772 25.2961C91.1805 24.3825 91.1805 23.4601 91.0772 22.5465C91.24 21.6578 91.24 20.7468 91.0772 19.8581L91.1993 19.9192ZM103.408 19.9192C103.303 19.2576 103.005 18.6414 102.553 18.1473C102.422 17.9426 102.241 17.774 102.028 17.6567C101.815 17.5393 101.576 17.4769 101.333 17.4752C101.08 17.4723 100.831 17.5322 100.607 17.6495C100.383 17.7668 100.192 17.9378 100.051 18.1473C99.672 18.6878 99.3833 19.2862 99.196 19.9192C98.9951 20.8013 98.8928 21.703 98.8908 22.6077C98.8882 23.5328 98.9906 24.4552 99.196 25.3572C99.3303 26.0094 99.6239 26.6182 100.051 27.1291C100.177 27.3254 100.348 27.4888 100.549 27.6057C100.751 27.7226 100.978 27.7896 101.21 27.8012C101.454 27.7995 101.693 27.7371 101.906 27.6197C102.119 27.5024 102.3 27.3338 102.431 27.1291C102.848 26.6118 103.14 26.0056 103.286 25.3572C103.522 24.4606 103.624 23.5342 103.591 22.6077C103.693 21.7144 103.693 20.8125 103.591 19.9192H103.408ZM91.1993 19.9192C91.0649 19.267 90.7713 18.6582 90.3447 18.1473C90.2104 17.9265 90.0224 17.7434 89.7982 17.6152C89.574 17.4869 89.3209 17.4177 89.0627 17.4141C88.8195 17.4158 88.5805 17.4782 88.3674 17.5956C88.1542 17.7129 87.9736 17.8815 87.8419 18.0862C87.437 18.6109 87.1459 19.2144 86.9873 19.8581C86.7864 20.7402 86.6841 21.6419 86.682 22.5465C86.6488 23.4731 86.7516 24.3995 86.9873 25.2961C87.0927 25.9577 87.3898 26.5739 87.8419 27.068C87.9678 27.2643 88.1388 27.4277 88.3405 27.5446C88.5422 27.6615 88.7689 27.7285 89.0017 27.7401C89.2449 27.7384 89.4839 27.676 89.6971 27.5586C89.9102 27.4413 90.0908 27.2727 90.2226 27.068C90.6151 26.5357 90.905 25.9348 91.0772 25.2961C91.1805 24.3825 91.1805 23.4601 91.0772 22.5465C91.24 21.6578 91.24 20.7468 91.0772 19.8581L91.1993 19.9192ZM103.408 19.9192C103.303 19.2576 103.005 18.6414 102.553 18.1473C102.422 17.9426 102.241 17.774 102.028 17.6567C101.815 17.5393 101.576 17.4769 101.333 17.4752C101.08 17.4723 100.831 17.5322 100.607 17.6495C100.383 17.7668 100.192 17.9378 100.051 18.1473C99.672 18.6878 99.3833 19.2862 99.196 19.9192C98.9951 20.8013 98.8928 21.703 98.8908 22.6077C98.8882 23.5328 98.9906 24.4552 99.196 25.3572C99.3303 26.0094 99.6239 26.6182 100.051 27.1291C100.177 27.3254 100.348 27.4888 100.549 27.6057C100.751 27.7226 100.978 27.7896 101.21 27.8012C101.454 27.7995 101.693 27.7371 101.906 27.6197C102.119 27.5024 102.3 27.3338 102.431 27.1291C102.848 26.6118 103.14 26.0056 103.286 25.3572C103.522 24.4606 103.624 23.5342 103.591 22.6077C103.693 21.7144 103.693 20.8125 103.591 19.9192H103.408ZM91.1993 19.9192C91.0649 19.267 90.7713 18.6582 90.3447 18.1473C90.2104 17.9265 90.0224 17.7434 89.7982 17.6152C89.574 17.4869 89.3209 17.4177 89.0627 17.4141C88.8195 17.4158 88.5805 17.4782 88.3674 17.5956C88.1542 17.7129 87.9736 17.8815 87.8419 18.0862C87.437 18.6109 87.1459 19.2144 86.9873 19.8581C86.7864 20.7402 86.6841 21.6419 86.682 22.5465C86.6488 23.4731 86.7516 24.3995 86.9873 25.2961C87.0927 25.9577 87.3898 26.5739 87.8419 27.068C87.9678 27.2643 88.1388 27.4277 88.3405 27.5446C88.5422 27.6615 88.7689 27.7285 89.0017 27.7401C89.2449 27.7384 89.4839 27.676 89.6971 27.5586C89.9102 27.4413 90.0908 27.2727 90.2226 27.068C90.6151 26.5357 90.905 25.9348 91.0772 25.2961C91.1805 24.3825 91.1805 23.4601 91.0772 22.5465C91.24 21.6578 91.24 20.7468 91.0772 19.8581L91.1993 19.9192ZM103.408 19.9192C103.303 19.2576 103.005 18.6414 102.553 18.1473C102.422 17.9426 102.241 17.774 102.028 17.6567C101.815 17.5393 101.576 17.4769 101.333 17.4752C101.08 17.4723 100.831 17.5322 100.607 17.6495C100.383 17.7668 100.192 17.9378 100.051 18.1473C99.672 18.6878 99.3833 19.2862 99.196 19.9192C98.9951 20.8013 98.8928 21.703 98.8908 22.6077C98.8882 23.5328 98.9906 24.4552 99.196 25.3572C99.3303 26.0094 99.6239 26.6182 100.051 27.1291C100.177 27.3254 100.348 27.4888 100.549 27.6057C100.751 27.7226 100.978 27.7896 101.21 27.8012C101.454 27.7995 101.693 27.7371 101.906 27.6197C102.119 27.5024 102.3 27.3338 102.431 27.1291C102.848 26.6118 103.14 26.0056 103.286 25.3572C103.522 24.4606 103.624 23.5342 103.591 22.6077C103.693 21.7144 103.693 20.8125 103.591 19.9192H103.408ZM91.1993 19.9192C91.0649 19.267 90.7713 18.6582 90.3447 18.1473C90.2104 17.9265 90.0224 17.7434 89.7982 17.6152C89.574 17.4869 89.3209 17.4177 89.0627 17.4141C88.8195 17.4158 88.5805 17.4782 88.3674 17.5956C88.1542 17.7129 87.9736 17.8815 87.8419 18.0862C87.437 18.6109 87.1459 19.2144 86.9873 19.8581C86.7864 20.7402 86.6841 21.6419 86.682 22.5465C86.6488 23.4731 86.7516 24.3995 86.9873 25.2961C87.0927 25.9577 87.3898 26.5739 87.8419 27.068C87.9678 27.2643 88.1388 27.4277 88.3405 27.5446C88.5422 27.6615 88.7689 27.7285 89.0017 27.7401C89.2449 27.7384 89.4839 27.676 89.6971 27.5586C89.9102 27.4413 90.0908 27.2727 90.2226 27.068C90.6151 26.5357 90.905 25.9348 91.0772 25.2961C91.1805 24.3825 91.1805 23.4601 91.0772 22.5465C91.24 21.6578 91.24 20.7468 91.0772 19.8581L91.1993 19.9192ZM103.408 19.9192C103.303 19.2576 103.005 18.6414 102.553 18.1473C102.422 17.9426 102.241 17.774 102.028 17.6567C101.815 17.5393 101.576 17.4769 101.333 17.4752C101.08 17.4723 100.831 17.5322 100.607 17.6495C100.383 17.7668 100.192 17.9378 100.051 18.1473C99.672 18.6878 99.3833 19.2862 99.196 19.9192C98.9951 20.8013 98.8928 21.703 98.8908 22.6077C98.8882 23.5328 98.9906 24.4552 99.196 25.3572C99.3303 26.0094 99.6239 26.6182 100.051 27.1291C100.177 27.3254 100.348 27.4888 100.549 27.6057C100.751 27.7226 100.978 27.7896 101.21 27.8012C101.454 27.7995 101.693 27.7371 101.906 27.6197C102.119 27.5024 102.3 27.3338 102.431 27.1291C102.848 26.6118 103.14 26.0056 103.286 25.3572C103.522 24.4606 103.624 23.5342 103.591 22.6077C103.693 21.7144 103.693 20.8125 103.591 19.9192H103.408ZM91.1993 19.9192C91.0649 19.267 90.7713 18.6582 90.3447 18.1473C90.2104 17.9265 90.0224 17.7434 89.7982 17.6152C89.574 17.4869 89.3209 17.4177 89.0627 17.4141C88.8195 17.4158 88.5805 17.4782 88.3674 17.5956C88.1542 17.7129 87.9736 17.8815 87.8419 18.0862C87.437 18.6109 87.1459 19.2144 86.9873 19.8581C86.7864 20.7402 86.6841 21.6419 86.682 22.5465C86.6488 23.4731 86.7516 24.3995 86.9873 25.2961C87.0927 25.9577 87.3898 26.5739 87.8419 27.068C87.9678 27.2643 88.1388 27.4277 88.3405 27.5446C88.5422 27.6615 88.7689 27.7285 89.0017 27.7401C89.2449 27.7384 89.4839 27.676 89.6971 27.5586C89.9102 27.4413 90.0908 27.2727 90.2226 27.068C90.6151 26.5357 90.905 25.9348 91.0772 25.2961C91.1805 24.3825 91.1805 23.4601 91.0772 22.5465C91.24 21.6578 91.24 20.7468 91.0772 19.8581L91.1993 19.9192Z" fill="white"/>
</g>
<defs>
<clipPath id="clip0_55_144">
<rect width="192" height="192" fill="white"/>
</clipPath>
</defs>
</svg>
